<?xml version="1.0" encoding="utf-8"?>
<!-- Generator: Adobe Illustrator 22.1.0, SVG Export Plug-In . SVG Version: 6.00 Build 0)  -->
<svg version="1.1" id="Layer_1" xmlns="http://www.w3.org/2000/svg" xmlns:xlink="http://www.w3.org/1999/xlink" x="0px" y="0px"
	 viewBox="0 0 225.5 38" style="enable-background:new 0 0 225.5 38;" xml:space="preserve">
<style type="text/css">
	.st0{fill:#FFFFFF;}
	.st1{opacity:0.5;}
	.st2{enable-background:new    ;}
</style>
<g id="Group_490" transform="translate(-60.169 -108)">
	<g id="Group_180" transform="translate(-4454.25 -2988.746)">
		<g id="Path_218">
			<path class="st0" d="M4517.4,3097.7c2.6,0,4.2,0.3,5.5,1.5c1.1,1,1.6,2.5,1.6,3.9c0,0.8-0.2,1.6-0.6,2.4
				c-0.3,0.6-0.9,1.1-1.5,1.4c1,0.2,1.9,0.7,2.6,1.4c0.9,1,1.4,2.4,1.3,3.7c0.1,1.3-0.4,2.6-1.3,3.6c-1.6,1.7-4,1.9-5.6,1.9h-5
				v-19.9L4517.4,3097.7z M4517.5,3106.2h0.9c0.9,0.1,1.8-0.2,2.5-0.8c0.6-0.6,0.8-1.4,0.8-2.3c0-0.7-0.2-1.4-0.7-1.9
				c-0.7-0.6-1.5-0.8-2.4-0.7h-1L4517.5,3106.2z M4517.5,3114.7h1.8c1.1,0.1,2.1-0.2,3-0.8c0.6-0.6,1-1.4,1-2.2
				c0-0.8-0.3-1.5-0.8-2.1c-0.9-0.7-2-1-3.1-0.9h-1.9L4517.5,3114.7z"/>
		</g>
		<g id="Path_219">
			<path class="st0" d="M4551,3117.5h-13.3l6.9-8.3c0.7-0.8,1.7-2.1,2.4-3.1c0.6-0.8,1-1.8,1-2.9c0.1-1.7-1.3-3.2-3-3.2
				c-0.1,0-0.2,0-0.3,0c-1.9,0-3.5,1.6-3.5,3.5c0,0,0,0.1,0,0.1h-2.9c0.1-1.6,0.6-3.1,1.7-4.3c1.2-1.3,2.9-2,4.6-1.9
				c4.2,0,6.4,2.9,6.4,6c0,1.5-0.5,3-1.4,4.2c-0.9,1.2-1.8,2.4-2.8,3.6l-3.1,3.7h7.4L4551,3117.5z"/>
		</g>
		<g id="Path_220">
			<path class="st0" d="M4567.8,3097.7c2.6,0,4.2,0.3,5.5,1.5c1.1,1,1.6,2.5,1.6,3.9c0,0.8-0.2,1.6-0.6,2.4
				c-0.3,0.6-0.9,1.1-1.5,1.4c1,0.2,1.9,0.7,2.6,1.4c0.9,1,1.4,2.4,1.3,3.7c0.1,1.3-0.4,2.6-1.3,3.6c-1.6,1.7-4,1.9-5.6,1.9h-5
				v-19.9L4567.8,3097.7z M4567.9,3106.2h0.9c0.9,0.1,1.8-0.2,2.5-0.8c0.6-0.6,0.8-1.4,0.8-2.3c0-0.7-0.2-1.4-0.7-1.9
				c-0.7-0.6-1.5-0.8-2.4-0.7h-1L4567.9,3106.2z M4567.9,3114.7h1.8c1.1,0.1,2.1-0.2,3-0.8c0.6-0.6,1-1.4,1-2.2
				c0-0.8-0.3-1.5-0.8-2.1c-0.9-0.7-2-1-3.1-0.9h-1.9L4567.9,3114.7z"/>
		</g>
		<g id="Path_221">
			<path class="st0" d="M4614.3,3097.7l-8.9,21.1h-3.7v-3h2.6l-4.1-11.1l-4.1,11.1h2.6v3h-3.7l-8.5-21.1h3.3l5.2,13.3l5.4-14.2
				l5.2,14.2l5.4-13.3H4614.3z"/>
		</g>
		<g id="Path_222">
			<path class="st0" d="M4644.8,3107.6c0,5.7-4.6,10.3-10.3,10.4c-5.7,0-10.3-4.6-10.4-10.3c0-5.7,4.6-10.3,10.3-10.4c0,0,0,0,0,0
				c5.6-0.1,10.2,4.2,10.3,9.8C4644.8,3107.3,4644.8,3107.5,4644.8,3107.6z M4641.8,3107.6c-0.1-4-3.5-7.2-7.5-7.1
				c-4,0.1-7.2,3.5-7.1,7.5c0.1,4,3.3,7.1,7.3,7.1c3.9,0.1,7.2-3,7.3-6.9C4641.8,3108,4641.8,3107.8,4641.8,3107.6z"/>
		</g>
		<g id="Path_223">
			<path class="st0" d="M4677.2,3107.6c0,5.7-4.6,10.3-10.3,10.4c-5.7,0-10.3-4.6-10.4-10.3c0-5.7,4.6-10.3,10.3-10.4c0,0,0,0,0,0
				c5.6-0.1,10.2,4.2,10.3,9.8C4677.2,3107.3,4677.2,3107.5,4677.2,3107.6z M4674.2,3107.6c-0.1-4-3.5-7.2-7.5-7.1
				c-4,0.1-7.2,3.5-7.1,7.5c0.1,4,3.3,7.1,7.3,7.1c3.9,0.1,7.2-3,7.3-6.9C4674.2,3108,4674.2,3107.8,4674.2,3107.6L4674.2,3107.6z"
				/>
		</g>
		<g id="Path_224">
			<path class="st0" d="M4694.1,3097.7c2.8,0,5.2,0.3,7.4,1.9c2.5,1.9,3.9,4.9,3.8,8c0.1,3.2-1.4,6.2-4,8c-2.3,1.6-4.5,1.9-7.3,1.9
				h-4.1v-19.9L4694.1,3097.7z M4693,3114.7h1.3c1.9,0.1,3.7-0.4,5.3-1.4c1.7-1.4,2.7-3.4,2.7-5.7c0.1-2.2-0.9-4.3-2.7-5.7
				c-1.6-1-3.4-1.5-5.3-1.4h-1.3L4693,3114.7z"/>
		</g>
	</g>
	<g id="layer1" transform="translate(166.217 37.33)" class="st1">
		<g id="g15654" transform="translate(90 70.919)">
			<g id="path13902">
				<path class="st0" d="M17.4,0C10.2,0,7.7,11.2,5.3,20.2c-0.9-0.9-3.5-3.5-3.5-3.5c-0.4-0.4-1-0.4-1.4-0.1c0,0-0.1,0-0.1,0.1
					c-0.4,0.4-0.4,1.1,0,1.5c0,0,3.6,3.6,4.8,4.8c0.3,0.4,0.9,0.5,1.3,0.2c0.3-0.2,0.5-0.5,0.6-0.9C11.2,3.5,15,2.1,17.4,2.1
					c2.4,0,4.4,1.9,4.4,4.4c0,0.1,0,0.1,0,0.2c2.1,0.1,3.7,1.9,3.6,4c0,0.9-0.4,1.8-1.1,2.5c2,1,3,2.2,3,3.7c0,1.7-1.4,3.1-3.2,3.1
					c-1.9,0-2.8-1.2-4.3-1.2c-0.6,0-1.1,0.5-1.1,1c0,0,0,0,0,0v3.8h-2.7v-3.8c0-0.6-0.4-1-1-1.1c0,0-0.2,0-0.2,0l-3.7,0.5
					c-0.5,0.1-0.8,0.5-0.9,1c0,0.6,0.5,1.1,1.1,1.1c0,0,0,0,0,0c0.1,0,0.1,0,0.2,0l2.3-0.3v3.8c0.1,0.5,0.5,0.9,1,0.9h4.9
					c0.6,0,1.1-0.5,1.1-1.1v-3.4c1,0.5,2.1,0.8,3.2,0.9c2.9,0,5.3-2.3,5.3-5.3c0,0,0,0,0,0c0-1.7-0.8-3.3-2.2-4.3
					c1.2-3.1-0.4-6.5-3.4-7.6c0,0,0,0,0,0C23,2,20.4,0,17.4,0"/>
			</g>
			<g id="path13910">
				<path class="st0" d="M14.4,30c0,0.9,1,1.4,2.6,2.2c1.3,0.6,2,1.2,2,1.8c0,0.8-0.9,1.1-1.7,1.1c-1.1,0.1-2.2-0.6-2.5-1.7l0-0.1
					h-0.1c-0.2,0-0.4,0-0.5,0.1c-0.1,0.1-0.1,0.3,0,0.4l0.3,1.2c0.1,0.3,0.2,0.3,0.6,0.4c0.7,0.1,1.4,0.2,2.1,0.2c2.5,0,3.6-1,3.6-2
					c0-0.7-0.7-1.4-2.3-2.2l-0.7-0.3c-1.1-0.5-1.7-0.8-1.7-1.3c0-0.5,0.7-0.9,1.6-0.9c0.8-0.1,1.6,0.5,1.7,1.3l0,0.1h0.1
					c0.3,0,0.5,0,0.6-0.1c0.1-0.1,0.1-0.2,0.1-0.3l-0.1-1c0-0.3-0.3-0.4-0.6-0.4c-0.5-0.1-1.1-0.2-1.7-0.2
					C15.6,28.3,14.4,29,14.4,30"/>
			</g>
			<g id="path13914">
				<path class="st0" d="M21.5,32.1c0,1.8,1.6,3.6,4.5,3.6c1,0,2.1-0.2,3-0.7l0.2-0.1l-0.3-0.3l0,0c0-0.1-0.1-0.1-0.2-0.1l-0.1,0.1
					c-0.7,0.3-1.4,0.5-2.2,0.4c-1.7,0.1-3.1-1.2-3.2-2.9c0-0.1,0-0.2,0-0.3c0-2.1,1.8-2.8,3.3-2.8c1.1,0,1.7,0.4,1.8,1.2l0,0.1h0.1
					c0.1,0,0.5,0,0.5-0.3v-1.2c0-0.3-0.3-0.3-0.5-0.4l-0.1,0c-0.5-0.1-1.1-0.1-1.6-0.1C23.7,28.3,21.5,29.9,21.5,32.1"/>
			</g>
			<g id="path13918">
				<path class="st0" d="M10.3,28.4l-2.7,0l-1.8,0l-0.3,0c-0.1,0-0.3,0.1-0.3,0.3c0,0,0,0,0,0c0,0.2,0.1,0.3,0.2,0.3c0,0,0,0,0.1,0
					c1.1,0,1.1,0.1,1.1,0.5l0,0.3l0,1.1v2.4c0,0.4,0,1,0,1.5c0,0.1,0,0.3-1,0.3c-0.3,0-0.4,0.1-0.4,0.3c0,0.1,0.1,0.3,0.2,0.3
					c0,0,0,0,0.1,0h0.1c0.1,0,0.4,0,1.9,0c1.6,0,1.9,0,2,0h0.1c0.2,0,0.4,0,0.4-0.3c0-0.3-0.2-0.3-0.6-0.3c-1,0-1-0.1-1-0.3
					c0-0.5,0-1.1,0-1.5v-0.9h0.8c1.2,0,1.4,0,1.5,1c0,0.2,0.2,0.3,0.4,0.2c0.3,0,0.3-0.2,0.3-0.2l0-0.4c0-0.3,0-0.5,0-0.8v-1.5
					c0-0.2-0.3-0.2-0.4-0.2c-0.2,0-0.3,0.1-0.4,0.8c-0.1,0.3-0.6,0.4-1.4,0.4H8.3v-2.1c0-0.6,0.1-0.6,0.2-0.6c0.5,0,1.6-0.1,2-0.1
					c0.3,0,0.6,0.1,0.8,0.2c0.4,0.2,0.8,0.5,1.1,0.8c0.2,0.2,0.3,0.2,0.4,0.2c0.1,0,0.3,0,0.3-0.2c0-0.1-0.1-0.2-0.1-0.3
					c-0.1-0.2-0.3-0.6-0.5-1.1c-0.1-0.2-0.3-0.2-0.6-0.2L10.3,28.4"/>
			</g>
		</g>
	</g>
	<g class="st2">
		<path class="st0" d="M171.3,143.1c-0.9,0-1.5-0.3-2-0.8c-0.5-0.5-0.7-1.3-0.7-2.2c0-1,0.2-1.7,0.7-2.3c0.5-0.5,1.2-0.8,2-0.8
			c0.3,0,0.6,0,0.8,0.1c0.3,0.1,0.5,0.1,0.7,0.2l-0.3,0.8c-0.2-0.1-0.4-0.1-0.6-0.2s-0.4-0.1-0.6-0.1c-1.2,0-1.8,0.8-1.8,2.3
			c0,0.7,0.1,1.3,0.4,1.7c0.3,0.4,0.7,0.6,1.3,0.6c0.5,0,1-0.1,1.5-0.3v0.8C172.4,143,171.9,143.1,171.3,143.1z"/>
		<path class="st0" d="M176.7,143.1c-0.9,0-1.6-0.3-2.1-0.8c-0.5-0.5-0.8-1.3-0.8-2.2c0-0.9,0.2-1.7,0.7-2.3
			c0.5-0.6,1.1-0.8,1.9-0.8c0.7,0,1.3,0.2,1.8,0.7s0.6,1.1,0.6,1.9v0.6h-4.1c0,0.7,0.2,1.2,0.5,1.6c0.3,0.4,0.8,0.5,1.4,0.5
			c0.6,0,1.3-0.1,1.9-0.4v0.8c-0.3,0.1-0.6,0.2-0.9,0.3C177.4,143.1,177.1,143.1,176.7,143.1z M176.4,137.8c-0.5,0-0.8,0.2-1.1,0.5
			c-0.3,0.3-0.4,0.7-0.5,1.3h3.1c0-0.6-0.1-1-0.4-1.3C177.3,137.9,176.9,137.8,176.4,137.8z"/>
		<path class="st0" d="M183,137c0.3,0,0.5,0,0.7,0.1l-0.1,0.8c-0.2-0.1-0.5-0.1-0.6-0.1c-0.5,0-0.9,0.2-1.2,0.6
			c-0.3,0.4-0.5,0.9-0.5,1.4v3.2h-0.9v-5.9h0.7l0.1,1.1h0c0.2-0.4,0.5-0.7,0.8-0.9C182.3,137.1,182.7,137,183,137z"/>
		<path class="st0" d="M186.7,142.4c0.2,0,0.3,0,0.5,0c0.1,0,0.3,0,0.3-0.1v0.7c-0.1,0-0.2,0.1-0.4,0.1c-0.2,0-0.4,0-0.5,0
			c-1.1,0-1.7-0.6-1.7-1.8v-3.5h-0.8v-0.4l0.8-0.4l0.4-1.3h0.5v1.4h1.7v0.7h-1.7v3.5c0,0.4,0.1,0.6,0.3,0.8
			C186.2,142.3,186.5,142.4,186.7,142.4z"/>
		<path class="st0" d="M188.7,135.5c0-0.2,0.1-0.4,0.2-0.4c0.1-0.1,0.2-0.1,0.4-0.1c0.1,0,0.3,0,0.4,0.1c0.1,0.1,0.2,0.2,0.2,0.4
			c0,0.2-0.1,0.4-0.2,0.4c-0.1,0.1-0.2,0.1-0.4,0.1c-0.2,0-0.3,0-0.4-0.1C188.7,135.9,188.7,135.7,188.7,135.5z M189.6,143h-0.9
			v-5.9h0.9V143z"/>
		<path class="st0" d="M194.2,137.8h-1.5v5.2h-0.9v-5.2h-1.1v-0.4l1.1-0.3v-0.3c0-1.4,0.6-2.2,1.9-2.2c0.3,0,0.7,0.1,1.1,0.2
			l-0.2,0.7c-0.3-0.1-0.6-0.2-0.9-0.2c-0.3,0-0.6,0.1-0.7,0.3s-0.2,0.6-0.2,1.1v0.4h1.5V137.8z M195.2,135.5c0-0.2,0.1-0.4,0.2-0.4
			c0.1-0.1,0.2-0.1,0.4-0.1c0.1,0,0.3,0,0.4,0.1c0.1,0.1,0.2,0.2,0.2,0.4c0,0.2-0.1,0.4-0.2,0.4c-0.1,0.1-0.2,0.1-0.4,0.1
			c-0.2,0-0.3,0-0.4-0.1C195.2,135.9,195.2,135.7,195.2,135.5z M196.1,143h-0.9v-5.9h0.9V143z"/>
		<path class="st0" d="M200.5,143.1c-0.9,0-1.6-0.3-2.1-0.8c-0.5-0.5-0.8-1.3-0.8-2.2c0-0.9,0.2-1.7,0.7-2.3
			c0.5-0.6,1.1-0.8,1.9-0.8c0.7,0,1.3,0.2,1.8,0.7s0.6,1.1,0.6,1.9v0.6h-4.1c0,0.7,0.2,1.2,0.5,1.6c0.3,0.4,0.8,0.5,1.4,0.5
			c0.6,0,1.3-0.1,1.9-0.4v0.8c-0.3,0.1-0.6,0.2-0.9,0.3C201.2,143.1,200.9,143.1,200.5,143.1z M200.3,137.8c-0.5,0-0.8,0.2-1.1,0.5
			c-0.3,0.3-0.4,0.7-0.5,1.3h3.1c0-0.6-0.1-1-0.4-1.3C201.1,137.9,200.7,137.8,200.3,137.8z"/>
		<path class="st0" d="M208.2,142.2L208.2,142.2c-0.5,0.6-1.1,0.9-1.9,0.9c-0.8,0-1.4-0.3-1.8-0.8c-0.4-0.5-0.6-1.3-0.6-2.2
			c0-1,0.2-1.7,0.6-2.3s1-0.8,1.8-0.8c0.8,0,1.4,0.3,1.8,0.9h0.1l0-0.4l0-0.4v-2.4h0.9v8.4h-0.7L208.2,142.2z M206.4,142.4
			c0.6,0,1-0.2,1.3-0.5c0.3-0.3,0.4-0.9,0.4-1.6v-0.2c0-0.8-0.1-1.4-0.4-1.8s-0.7-0.5-1.3-0.5c-0.5,0-0.9,0.2-1.2,0.6
			c-0.3,0.4-0.4,1-0.4,1.7c0,0.8,0.1,1.3,0.4,1.7C205.5,142.2,205.9,142.4,206.4,142.4z"/>
		<path class="st0" d="M216.5,143.1c-0.4,0-0.7-0.1-1-0.2c-0.3-0.1-0.6-0.4-0.8-0.7h-0.1c0,0.3,0.1,0.7,0.1,1v2.4h-0.9v-8.5h0.7
			l0.1,0.8h0c0.2-0.3,0.5-0.6,0.8-0.7c0.3-0.1,0.7-0.2,1-0.2c0.8,0,1.4,0.3,1.8,0.8c0.4,0.5,0.6,1.3,0.6,2.2c0,1-0.2,1.7-0.6,2.3
			S217.3,143.1,216.5,143.1z M216.4,137.8c-0.6,0-1,0.2-1.3,0.5s-0.4,0.9-0.4,1.6v0.2c0,0.8,0.1,1.4,0.4,1.8
			c0.3,0.4,0.7,0.5,1.3,0.5c0.5,0,0.9-0.2,1.2-0.6s0.4-1,0.4-1.7c0-0.7-0.1-1.3-0.4-1.7C217.3,138,216.9,137.8,216.4,137.8z"/>
		<path class="st0" d="M224.1,143l-0.2-0.8h0c-0.3,0.4-0.6,0.6-0.9,0.7s-0.7,0.2-1.1,0.2c-0.6,0-1-0.2-1.4-0.5
			c-0.3-0.3-0.5-0.7-0.5-1.3c0-1.2,1-1.8,2.9-1.9l1,0v-0.4c0-0.5-0.1-0.8-0.3-1c-0.2-0.2-0.5-0.3-1-0.3c-0.5,0-1,0.2-1.7,0.5
			l-0.3-0.7c0.3-0.2,0.6-0.3,1-0.4c0.3-0.1,0.7-0.1,1-0.1c0.7,0,1.2,0.2,1.6,0.5c0.3,0.3,0.5,0.8,0.5,1.5v4H224.1z M222.1,142.4
			c0.6,0,1-0.2,1.3-0.5c0.3-0.3,0.5-0.7,0.5-1.3v-0.5l-0.9,0c-0.7,0-1.2,0.1-1.5,0.3s-0.5,0.5-0.5,0.9c0,0.3,0.1,0.6,0.3,0.7
			C221.5,142.3,221.8,142.4,222.1,142.4z"/>
		<path class="st0" d="M229.3,137c0.3,0,0.5,0,0.7,0.1l-0.1,0.8c-0.2-0.1-0.5-0.1-0.6-0.1c-0.5,0-0.9,0.2-1.2,0.6
			c-0.3,0.4-0.5,0.9-0.5,1.4v3.2h-0.9v-5.9h0.7l0.1,1.1h0c0.2-0.4,0.5-0.7,0.8-0.9C228.6,137.1,229,137,229.3,137z"/>
		<path class="st0" d="M233,142.4c0.2,0,0.3,0,0.5,0c0.1,0,0.3,0,0.3-0.1v0.7c-0.1,0-0.2,0.1-0.4,0.1c-0.2,0-0.4,0-0.5,0
			c-1.1,0-1.7-0.6-1.7-1.8v-3.5h-0.8v-0.4l0.8-0.4l0.4-1.3h0.5v1.4h1.7v0.7h-1.7v3.5c0,0.4,0.1,0.6,0.3,0.8
			C232.5,142.3,232.7,142.4,233,142.4z"/>
		<path class="st0" d="M239,143v-3.8c0-0.5-0.1-0.8-0.3-1.1c-0.2-0.2-0.6-0.4-1-0.4c-0.6,0-1.1,0.2-1.4,0.5
			c-0.3,0.3-0.4,0.9-0.4,1.6v3.1H235v-5.9h0.7l0.1,0.8h0c0.2-0.3,0.4-0.5,0.8-0.7c0.3-0.2,0.7-0.2,1.1-0.2c0.7,0,1.2,0.2,1.6,0.5
			c0.4,0.3,0.5,0.9,0.5,1.6v3.8H239z"/>
		<path class="st0" d="M244.3,143.1c-0.9,0-1.6-0.3-2.1-0.8c-0.5-0.5-0.8-1.3-0.8-2.2c0-0.9,0.2-1.7,0.7-2.3
			c0.5-0.6,1.1-0.8,1.9-0.8c0.7,0,1.3,0.2,1.8,0.7s0.6,1.1,0.6,1.9v0.6h-4.1c0,0.7,0.2,1.2,0.5,1.6c0.3,0.4,0.8,0.5,1.4,0.5
			c0.6,0,1.3-0.1,1.9-0.4v0.8c-0.3,0.1-0.6,0.2-0.9,0.3C245,143.1,244.7,143.1,244.3,143.1z M244,137.8c-0.5,0-0.8,0.2-1.1,0.5
			c-0.3,0.3-0.4,0.7-0.5,1.3h3.1c0-0.6-0.1-1-0.4-1.3C244.8,137.9,244.5,137.8,244,137.8z"/>
		<path class="st0" d="M250.6,137c0.3,0,0.5,0,0.7,0.1l-0.1,0.8c-0.2-0.1-0.5-0.1-0.6-0.1c-0.5,0-0.9,0.2-1.2,0.6
			c-0.3,0.4-0.5,0.9-0.5,1.4v3.2h-0.9v-5.9h0.7l0.1,1.1h0c0.2-0.4,0.5-0.7,0.8-0.9C249.9,137.1,250.3,137,250.6,137z"/>
	</g>
</g>
</svg>
