<?xml version="1.0" encoding="UTF-8"?>
<svg width="60px" height="60px" viewBox="0 0 60 60" version="1.1" xmlns="http://www.w3.org/2000/svg" xmlns:xlink="http://www.w3.org/1999/xlink">
    <!-- Generator: Sketch 52.5 (67469) - http://www.bohemiancoding.com/sketch -->
    <title>advertisement</title>
    <desc>Created with Sketch.</desc>
    <g id="advertisement" stroke="none" stroke-width="1" fill="none" fill-rule="evenodd">
        <g id="online" fill="#FFFFFF" fill-rule="nonzero">
            <path d="M54.9998474,-4.4408921e-13 L5.00015262,-4.4408921e-13 C1.99606751,-4.4408921e-13 -3.55271368e-15,1.99591489 -3.55271368e-15,5 L-3.55271368e-15,55 C-3.55271368e-15,58.0039574 1.99591489,60 5,60 L55,60 C58.0039574,60 60,58.0040851 60,55 L60,5 C59.9998723,1.99591489 58.0038048,-4.4408921e-13 54.9998474,-4.4408921e-13 Z M58,55 C58,56.5012766 56.5012766,58 55,58 C22.6675177,58 6.00085106,58 5,58 C3.4987234,58 1.99996945,56.5012766 1.99996945,55 L1.99996945,13.0016641 L58,13.0016641 L58,55 Z M58.0000305,11 L1.99996945,11 L2,5 C2,3.4987234 3.4987234,2 5,2 L54.9998474,2 C56.501124,2 58.0000305,3.4987234 58.0000305,5 L58.0000305,11 Z M6.5,8 C7.32842712,8 8,7.32842712 8,6.5 C8,5.67157288 7.32842712,5 6.5,5 C5.67157288,5 5,5.67157288 5,6.5 C5,7.32842712 5.67157288,8 6.5,8 Z M12.5,8 C13.3284271,8 14,7.32842712 14,6.5 C14,5.67157288 13.3284271,5 12.5,5 C11.6715729,5 11,5.67157288 11,6.5 C11,7.32842712 11.6715729,8 12.5,8 Z M18.5,8 C17.6715729,8 17,7.32842712 17,6.5 C17,5.67157288 17.6715729,5 18.5,5 C19.3284271,5 20,5.67157288 20,6.5 C20,7.32842712 19.3284271,8 18.5,8 Z M10.5319574,44 C9.7792766,44 9,43.2526809 9,42.5 L9,21.4255319 C9,20.6728511 9.7792766,20 10.5319574,20 L37.5,20 C38.2526809,20 39,20.7473191 39,21.5 L39,42.5 C39,43.2526809 38.2526809,44 37.5,44 L10.5319574,44 Z M11,22 L11,42 L37,42 L37,22 L11,22 Z M18.999939,24.9828371 C21.2524922,24.9828371 22.9997503,26.7473191 22.9998779,29 L22.9998779,38 C22.9998779,38.7526809 22.7526809,39 22,39 C21.2473191,39 21,38.7526809 21,38 L21,36 L17,36 L17,38 C17,38.7526809 16.7528944,39 16.0002136,39 C15.2475327,39 15,38.7526809 15,38 L15,29 C15,26.7473191 16.7472581,24.9828371 18.999939,24.9828371 Z M17,34 L21,34 L21,30 C21,29.2485957 21,27 19,27 C17,27 17,29.2487234 17,30 L17,34 Z M30,25 C32.2526809,25 33,26.7473191 33,29 L33,35 C33,37.2526809 32.2526809,39 30,39 L26,39 C25.2473191,39 25.0000611,38.7526809 25.0000611,38 L25.0000611,26.0166582 C25.0000611,25.2639773 25.2473191,25 26,25 L30,25 Z M31,35 L31,29 C31,28.2485957 31,27 29.5,27 L27,27 L27,37 L29.5,37 C31,37 31,35.7512766 31,35 Z M9.95454545,51 C9.23607737,51 9,50.4545455 9,50 C9,49.5454545 9.23607737,49.0001277 9.95454545,49 L50.0454545,49 C50.7639226,49 51,49.5 51,50 C51,50.5 50.7639226,51 50.0454545,51 L9.95454545,51 Z M42.8180321,35 C42.2022023,35 42,34.5 42,34 C42,33.5 42.2022023,33 42.8180321,33 L50.1818182,33 C50.797648,33 51,33.5 51,34 C51,34.5 50.797648,35 50.1818182,35 L42.8180321,35 Z M42.8180321,26 C42.2022023,26 42,25.5 42,25 C42,24.5 42.2022023,24 42.8180321,24 L50.1818182,24 C50.797648,24 51,24.5 51,25 C51,25.5 50.797648,26 50.1818182,26 L42.8180321,26 Z M42.8180321,44 C42.2022023,44 42,43.5 42,43 C42,42.5 42.2022023,42 42.8180321,42 L50.1818182,42 C50.797648,42 51,42.5 51,43 C51,43.5 50.797648,44 50.1818182,44 L42.8180321,44 Z" id="Combined-Shape"></path>
        </g>
    </g>
</svg>