<?xml version="1.0" encoding="UTF-8"?>
<svg width="67px" height="25px" viewBox="0 0 67 25" version="1.1" xmlns="http://www.w3.org/2000/svg" xmlns:xlink="http://www.w3.org/1999/xlink">
    <!-- Generator: Sketch 52.5 (67469) - http://www.bohemiancoding.com/sketch -->
    <title>bank-transfer</title>
    <desc>Created with Sketch.</desc>
    <g id="Platform" stroke="none" stroke-width="1" fill="none" fill-rule="evenodd">
        <g id="Payment" transform="translate(-1105.000000, -1013.000000)" fill="#063C34">
            <g id="Registration" transform="translate(-6.000000, 57.000000)">
                <g id="Group-7" transform="translate(454.000000, 934.000000)">
                    <g id="Group-6" transform="translate(198.000000, 0.000000)">
                        <g id="Group-4" transform="translate(364.000000, 0.000000)">
                            <g id="bank-transfer" transform="translate(95.000000, 22.000000)">
                                <g id="Group" transform="translate(15.992312, 0.135102)">
                                    <path d="M0.0253924851,0.0597211987 L5.8798223,0.0597211987 C8.03572123,0.0248710391 10.4018392,0.584469418 10.4018392,3.18994105 C10.4018392,4.30898428 9.73563269,5.21815893 8.75425161,5.70774994 C10.086049,6.09232989 10.9104583,7.24668386 10.9104583,8.66295136 C10.9104583,11.6356546 8.71916381,12.5446758 6.0374096,12.5446758 L0.0253924851,12.5446758 L0.0253924851,0.0597211987 Z M3.28532589,4.97344019 L5.8098006,4.97344019 C6.37043589,4.97344019 7.14159797,4.67606239 7.14159797,3.78438958 C7.14159797,2.87506141 6.49293539,2.57799067 5.8098006,2.57799067 L3.28532589,2.57799067 L3.28532589,4.97344019 Z M3.28532589,9.93935765 L5.8972123,9.93935765 C6.93122507,9.93935765 7.64990935,9.57227954 7.64990935,8.54059199 C7.64990935,7.43889708 6.87874727,7.07166544 5.8972123,7.07166544 L3.28532589,7.07166544 L3.28532589,9.93935765 Z" id="Shape" fill-rule="nonzero"></path>
                                    <path d="M16.0799066,0.0597211987 L19.3923178,0.0597211987 L24.0723837,12.5446758 L20.6719452,12.5446758 L19.9007831,10.3065893 L15.5363535,10.3065893 L14.7474937,12.5446758 L11.3996869,12.5446758 L16.0799066,0.0597211987 Z M16.2899717,7.89379145 L19.1293132,7.89379145 L17.7445764,3.52232253 L17.7097964,3.52232253 L16.2899717,7.89379145 Z" id="Shape" fill-rule="nonzero"></path>
                                    <polygon id="Path" points="24.9825119 0.0597211987 28.3307804 0.0597211987 32.677666 7.75362319 32.7124461 7.75362319 32.7124461 0.0597211987 35.7803199 0.0597211987 35.7803199 12.5446758 32.4320515 12.5446758 28.0851658 4.76372513 28.0503858 4.76372513 28.0503858 12.5446758 24.9825119 12.5446758"></polygon>
                                    <polygon id="Path" points="38.0051633 0.0597211987 41.2654045 0.0597211987 41.2654045 4.85108082 45.3843734 0.0597211987 49.4334745 0.0597211987 44.8058864 4.97344019 50.0119614 12.5448293 45.9631682 12.5448293 42.5976636 7.29934291 41.2655584 8.6982621 41.2655584 12.5449828 38.0053172 12.5449828 38.0053172 0.0598747237"></polygon>
                                </g>
                                <g id="Group" transform="translate(0.295139, 15.027020)">
                                    <polygon id="Path" points="7.52433197 2.18266396 4.95291964 2.18266396 4.95291964 8.85362933 2.70822396 8.85362933 2.70822396 2.18266396 0.13711942 2.18266396 0.13711942 0.255926062 7.52433197 0.255926062"></polygon>
                                    <path d="M8.51402331,0.256079587 L12.9076927,0.256079587 C14.4286256,0.256079587 15.9252433,0.942643085 15.9252433,2.67624662 C15.9252433,3.60353721 15.479105,4.48262098 14.5735936,4.83204372 L14.5735936,4.85584009 C15.490801,5.07292434 15.756114,6.09601449 15.8287519,6.91507001 C15.8529132,7.27616065 15.889386,8.54043847 16.191018,8.85393638 L13.9695603,8.85393638 C13.7765774,8.56500246 13.7404123,7.72199705 13.716251,7.48126996 C13.6556168,6.61416114 13.5112644,5.72325596 12.4610928,5.72325596 L10.7591807,5.72325596 L10.7591807,8.85393638 L8.51402331,8.85393638 L8.51402331,0.256079587 Z M10.7596424,3.98873127 L12.6420719,3.98873127 C13.3181276,3.98873127 13.6802398,3.62764063 13.6802398,2.97761606 C13.6802398,2.33956645 13.1733135,2.05001842 12.5457344,2.05001842 L10.7594885,2.05001842 C10.7596424,2.05001842 10.7596424,3.98873127 10.7596424,3.98873127 Z" id="Shape" fill-rule="nonzero"></path>
                                    <path d="M19.5705269,0.256079587 L21.8518493,0.256079587 L25.0745404,8.85378285 L22.7325838,8.85378285 L22.2019578,7.31223901 L19.1962571,7.31223901 L18.6533196,8.85378285 L16.347528,8.85378285 L19.5705269,0.256079587 Z M19.7154949,5.65063866 L21.6710241,5.65063866 L20.7173439,2.63986121 L20.6931825,2.63986121 L19.7154949,5.65063866 Z" id="Shape" fill-rule="nonzero"></path>
                                    <polygon id="Path" points="25.7025812 0.256079587 28.0079111 0.256079587 31.0016081 5.55437853 31.0260773 5.55437853 31.0260773 0.256079587 33.1384242 0.256079587 33.1384242 8.85378285 30.8330944 8.85378285 27.8390895 3.49545566 27.8149282 3.49545566 27.8149282 8.85378285 25.7025812 8.85378285"></polygon>
                                    <path d="M36.4212878,5.963676 C36.4697644,6.97509826 37.0973435,7.29995701 38.0510237,7.29995701 C38.7267716,7.29995701 39.4269886,7.05938344 39.4269886,6.4211803 C39.4269886,5.66261361 38.1956839,5.51814665 36.9526833,5.16857038 C35.7213786,4.81945468 34.4297475,4.26584377 34.4297475,2.68806804 C34.4297475,0.809690494 36.3249503,0.075073692 37.9425285,0.075073692 C39.6564443,0.075073692 41.3823638,0.905643577 41.3946753,2.84450995 L39.149518,2.84450995 C39.185683,2.06183984 38.449301,1.80898428 37.7612416,1.80898428 C37.2784766,1.80898428 36.6749049,1.97740113 36.6749049,2.54360108 C36.6749049,3.20575411 37.9180594,3.32611766 39.1733715,3.67554041 C40.4169877,4.0246561 41.672146,4.60252395 41.672146,6.15588922 C41.672146,8.33563621 39.8131083,9.03417465 37.9182133,9.03417465 C35.9386767,9.03417465 34.1887498,8.16691231 34.1761305,5.96352248 L36.4212878,5.96352248 L36.4212878,5.963676 Z" id="Path"></path>
                                    <polygon id="Path" points="42.7221637 0.256079587 49.0715161 0.256079587 49.0715161 2.05017195 44.9676288 2.05017195 44.9676288 3.80833947 48.5162671 3.80833947 48.5162671 5.54194301 44.9676288 5.54194301 44.9676288 8.85378285 42.7221637 8.85378285 42.7221637 0.256079587"></polygon>
                                    <polygon id="Path" points="50.0978342 0.256079587 56.9659628 0.256079587 56.9659628 2.05017195 52.3428377 2.05017195 52.3428377 3.55548391 56.5675316 3.55548391 56.5675316 5.2893945 52.3428377 5.2893945 52.3428377 6.92719848 57.0867695 6.92719848 57.0867695 8.85362933 50.0979881 8.85362933"></polygon>
                                    <path d="M58.3662429,0.256079587 L62.7599123,0.256079587 C64.2808452,0.256079587 65.7771551,0.942643085 65.7771551,2.67624662 C65.7771551,3.60353721 65.330863,4.48262098 64.4255055,4.83204372 L64.4255055,4.85584009 C65.3427128,5.07292434 65.6084875,6.09601449 65.6806637,6.91507001 C65.7051328,7.27616065 65.7409901,8.54043847 66.0429298,8.85393638 L63.8217799,8.85393638 C63.6283353,8.56500246 63.5926319,7.72199705 63.5683167,7.48126996 C63.5079903,6.61416114 63.3633301,5.72325596 62.3131585,5.72325596 L60.6114003,5.72325596 L60.6114003,8.85393638 L58.3662429,8.85393638 L58.3662429,0.256079587 Z M60.6114003,3.98873127 L62.4945993,3.98873127 C63.1703472,3.98873127 63.5321517,3.62764063 63.5321517,2.97761606 C63.5321517,2.33956645 63.025687,2.05001842 62.3976462,2.05001842 L60.6114003,2.05001842 L60.6114003,3.98873127 Z" id="Shape" fill-rule="nonzero"></path>
                                </g>
                                <g id="Group" transform="translate(0.295139, 0.135102)">
                                    <rect id="Rectangle" x="0.136811632" y="0.0583394743" width="13.5888269" height="2.71462786"></rect>
                                    <rect id="Rectangle" x="0.136811632" y="9.83020142" width="13.5888269" height="2.71447433"></rect>
                                    <rect id="Rectangle" x="0.136811632" y="4.94350282" width="13.5888269" height="2.71462786"></rect>
                                </g>
                            </g>
                        </g>
                    </g>
                </g>
            </g>
        </g>
    </g>
</svg>