<?xml version="1.0" encoding="UTF-8"?>
<svg width="60px" height="60px" viewBox="0 0 60 60" version="1.1" xmlns="http://www.w3.org/2000/svg" xmlns:xlink="http://www.w3.org/1999/xlink">
    <!-- Generator: Sketch 52.5 (67469) - http://www.bohemiancoding.com/sketch -->
    <title>buy-now</title>
    <desc>Created with Sketch.</desc>
    <g id="buy-now" stroke="none" stroke-width="1" fill="none" fill-rule="evenodd">
        <g id="buy-button" transform="translate(0.000000, 1.000000)" fill="#FFFFFF" fill-rule="nonzero">
            <path d="M32.1917506,37.7726337 L32.4139245,37.9947599 L51.0029438,37.9662643 C52.1063149,37.9645729 52.9998779,37.069639 52.9998779,35.9662666 L52.9998779,20 C52.9998779,18.8954305 52.1044474,18 50.9998779,18 L9.00012207,18 C7.89555257,18 7.00012207,18.8954305 7.00012207,20 L7.00003313,35.9947601 C7.00003313,37.0993296 7.89546363,37.9947601 9.00003313,37.9947601 C9.00006278,37.9947601 9.00009243,37.9947601 9.00012207,37.9947601 L27.5862122,37.9938446 L29.2932129,36.2870738 C29.6832275,35.8961964 30.3167725,35.8961964 30.7067871,36.2870738 L32.1917506,37.7726337 Z M34.4140546,39.9944602 L36.4141846,41.9941604 L56.0000305,41.9941604 C57.1046,41.9941604 58.0000305,41.0987299 58.0000305,39.9941604 L58.0000305,16 C58.0000305,14.8954305 57.1046,14 56.0000305,14 L3.99996945,14 C2.89539995,14 1.99996945,14.8954305 1.99996945,16 L1.99996945,39.9941604 C1.99996945,41.0987299 2.89539995,41.9941604 3.99996945,41.9941604 L23.5858154,41.9941604 L25.5859454,39.9944602 L8,39.9944602 C6.34314575,39.9944602 5,38.6513144 5,36.9944602 L5,18.9978289 C5,17.3409746 6.34314575,15.9978289 8,15.9978289 L51.9999619,15.9978289 C53.6568161,15.9978289 54.9999619,17.3409746 54.9999619,18.9978289 L54.9999619,36.9944602 C54.9999619,38.6513144 53.6568161,39.9944602 51.9999619,39.9944602 L34.4140546,39.9944602 Z M21.5863037,43.9938605 L3,43.9938605 C1.34314575,43.9938605 -3.9357041e-16,42.6507148 -1.33226763e-15,40.9938605 L1.59872116e-14,15.0642226 C1.65196601e-14,13.4087252 1.34102894,12.0661421 2.99652528,12.0642246 L56.9965253,12.0016796 C58.6533784,11.9997605 59.998079,13.3413497 59.999998,14.9982028 C59.9999993,14.9993611 60,15.0005193 60,15.0016776 L60,40.9097944 C60,42.561962 58.6641602,43.9031585 57.0120059,43.9097704 L38.4040736,43.9842391 L38.7071228,44.2872475 C38.9932252,44.5728535 39.0788269,45.0030934 38.9241028,45.377036 C38.7689209,45.7509786 38.4049988,45.9940183 37.9998779,45.9940183 L33.9999389,45.9940183 L33.9999389,51.9931187 C33.9999389,52.5460227 33.5517884,52.9927399 33.000183,52.9927399 L26.999817,52.9927399 C26.4482116,52.9927399 26.0000611,52.5460227 26.0000611,51.9931187 L26.0000611,45.9940183 L22.0001221,45.9940183 C21.5950013,45.9940183 21.2310791,45.7509786 21.0758972,45.377036 C20.9211731,45.0030934 21.0067748,44.5728535 21.2928772,44.2872475 L21.5863037,43.9938605 Z M43.0000305,28.2737504 L43.0000305,32.9957386 C43.0000305,33.5486426 42.5518799,33.9953598 41.999817,33.9953598 C41.4482116,33.9953598 41.0000611,33.5486426 41.0000611,32.9957386 L41.0000611,28.2731401 L38.1431579,23.511695 C37.8588867,23.0379735 38.0117798,22.424195 38.4860229,22.1399621 C38.9588929,21.8561869 39.5741272,22.0090594 39.8579407,22.4827809 L42.0002289,26.0526715 L44.1430664,22.4818656 C44.4268799,22.0081439 45.0421143,21.8552715 45.5149841,22.1390467 C45.9892273,22.422822 46.1421204,23.0370581 45.8578491,23.5107797 L43.0000305,28.2737504 Z M18.5000611,28.9958807 L16.0002136,28.9958807 L16.0002136,31.9956597 L18.5000611,31.9956597 C19.3267822,31.9956597 20.0001526,31.3228378 20.0001526,30.4957702 C20.0001526,29.6691604 19.3267822,28.9958807 18.5000611,28.9958807 Z M13.9997864,27.996259 L13.9997864,22.9967803 C13.9997864,22.4438763 14.447937,21.9971591 15,21.9971591 L18.5000611,21.9971591 C20.4299927,21.9971591 22.0001221,23.5666193 22.0001221,25.4967487 C22.0001221,26.4749554 21.5966348,27.360596 20.9473286,27.9961427 C21.5966348,28.6318053 22.0001221,29.5175635 22.0001221,30.4957702 C22.0001221,32.4254419 20.4299927,33.9953598 18.5000611,33.9953598 L15,33.9953598 C14.447937,33.9953598 13.9997864,33.5486426 13.9997864,32.9957386 L13.9997864,27.9962595 Z M18.5000611,26.9961806 C19.3267822,26.9961806 20.0001526,26.3233586 20.0001526,25.4967487 C20.0001526,24.6696812 19.3267822,23.9968592 18.5000611,23.9968592 L16.0002136,23.9968592 L16.0002136,26.9961806 L18.5000611,26.9961806 Z M30.9988404,33.9953598 L28.9997864,33.9953598 C27.3458862,33.9953598 26.0000611,32.6488005 26.0000611,30.9946655 L26.0000611,22.9967803 C26.0000611,22.4438763 26.4482116,21.9971591 26.999817,21.9971591 C27.5518799,21.9971591 28.0000305,22.4438763 28.0000305,22.9967803 L28.0000305,30.9946655 C28.0000305,31.546654 28.4490967,31.9956597 29.0011596,31.9956597 L31.0002136,31.9956597 C31.5509033,31.9956597 31.9999695,31.546654 31.9999695,30.9946655 L31.9999695,22.9967803 C31.9999695,22.4438763 32.4481201,21.9971591 33.000183,21.9971591 C33.5517884,21.9971591 33.9999389,22.4438763 33.9999389,22.9967803 L33.9999389,30.9946655 C33.9999389,32.6488005 32.6541138,33.9953598 30.9988404,33.9953598 Z M58.9997864,53.9928188 L56.0000611,53.9928188 C55.447998,53.9928188 54.9998474,53.5456439 54.9998474,52.9927399 C54.9998474,52.4398359 55.447998,51.9931187 56.0000611,51.9931187 L58.9997864,51.9931187 C59.5518493,51.9931187 60,52.4398359 60,52.9927399 C60,53.5456439 59.5518493,53.9928188 58.9997864,53.9928188 Z M52.0001221,53.9928188 L41.0000611,53.9928188 C40.447998,53.9928188 39.9998474,53.5456439 39.9998474,52.9927399 C39.9998474,52.4398359 40.447998,51.9931187 41.0000611,51.9931187 L52.0001221,51.9931187 C52.552185,51.9931187 52.9998779,52.4398359 52.9998779,52.9927399 C52.9998779,53.5456439 52.552185,53.9928188 52.0001221,53.9928188 Z M41.0000611,49.9934186 L37.9998779,49.9934186 C37.447815,49.9934186 37.0001221,49.5462436 37.0001221,48.9933396 C37.0001221,48.4404355 37.447815,47.9937184 37.9998779,47.9937184 L41.0000611,47.9937184 C41.552124,47.9937184 41.999817,48.4404355 41.999817,48.9933396 C41.999817,49.5462436 41.552124,49.9934186 41.0000611,49.9934186 Z M56.0000611,49.9934186 L45,49.9934186 C44.447937,49.9934186 43.9997864,49.5462436 43.9997864,48.9933396 C43.9997864,48.4404355 44.447937,47.9937184 45,47.9937184 L56.0000611,47.9937184 C56.552124,47.9937184 56.999817,48.4404355 56.999817,48.9933396 C56.999817,49.5462436 56.552124,49.9934186 56.0000611,49.9934186 Z M41.0000611,57.9922191 L37.9998779,57.9922191 C37.447815,57.9922191 37.0001221,57.5450443 37.0001221,56.9921402 C37.0001221,56.4392362 37.447815,55.992519 37.9998779,55.992519 L41.0000611,55.992519 C41.552124,55.992519 41.999817,56.4392362 41.999817,56.9921402 C41.999817,57.5450443 41.552124,57.9922191 41.0000611,57.9922191 Z M56.0000611,57.9922191 L45,57.9922191 C44.447937,57.9922191 43.9997864,57.5450443 43.9997864,56.9921402 C43.9997864,56.4392362 44.447937,55.992519 45,55.992519 L56.0000611,55.992519 C56.552124,55.992519 56.999817,56.4392362 56.999817,56.9921402 C56.999817,57.5450443 56.552124,57.9922191 56.0000611,57.9922191 Z M3.99993891,5.99910041 L1.00021359,5.99910041 C0.448150664,5.99910041 0,5.55238324 0,4.9994792 C0,4.44657516 0.448150664,3.99940019 1.00021359,3.99940019 L3.99993891,3.99940019 C4.55200195,3.99940019 5.00015262,4.44657516 5.00015262,4.9994792 C5.00015262,5.55238324 4.55200195,5.99910041 3.99993891,5.99910041 Z M18.9999389,5.99910041 L7.99987793,5.99910041 C7.447815,5.99910041 7.00012207,5.55238324 7.00012207,4.9994792 C7.00012207,4.44657516 7.447815,3.99940019 7.99987793,3.99940019 L18.9999389,3.99940019 C19.552002,3.99940019 20.0001526,4.44657516 20.0001526,4.9994792 C20.0001526,5.55238324 19.552002,5.99910041 18.9999389,5.99910041 Z M22.0001221,9.9985006 L18.9999389,9.9985006 C18.447876,9.9985006 18.000183,9.55178343 18.000183,8.99887939 C18.000183,8.44597535 18.447876,7.99880051 18.9999389,7.99880051 L22.0001221,7.99880051 C22.552185,7.99880051 22.9998779,8.44597535 22.9998779,8.99887939 C22.9998779,9.55178343 22.552185,9.9985006 22.0001221,9.9985006 Z M15,9.9985006 L3.99993891,9.9985006 C3.44787598,9.9985006 3.00018305,9.55178343 3.00018305,8.99887939 C3.00018305,8.44597535 3.44787598,7.99880051 3.99993891,7.99880051 L15,7.99880051 C15.552063,7.99880051 16.0002136,8.44597535 16.0002136,8.99887939 C16.0002136,9.55178343 15.552063,9.9985006 15,9.9985006 Z M22.0001221,1.9997001 L18.9999389,1.9997001 C18.447876,1.9997001 18.000183,1.55298293 18.000183,1.00007888 C18.000183,0.446717172 18.447876,0 18.9999389,0 L22.0001221,0 C22.552185,0 22.9998779,0.446717172 22.9998779,1.00007888 C22.9998779,1.55298293 22.552185,1.9997001 22.0001221,1.9997001 Z M15,1.9997001 L3.99993891,1.9997001 C3.44787598,1.9997001 3.00018305,1.55298293 3.00018305,1.00007888 C3.00018305,0.446717172 3.44787598,0 3.99993891,0 L15,0 C15.552063,0 16.0002136,0.446717172 16.0002136,1.00007888 C16.0002136,1.55298293 15.552063,1.9997001 15,1.9997001 Z M28.0000305,50.9930398 L31.9999695,50.9930398 L31.9999695,44.9939394 C31.9999695,44.4410354 32.4481201,43.9938605 33.000183,43.9938605 L35.5860901,43.9938605 L30,38.4089804 L24.4139099,43.9938605 L26.999817,43.9938605 C27.5518799,43.9938605 28.0000305,44.4410354 28.0000305,44.9939394 L28.0000305,50.9930398 Z" id="Combined-Shape"></path>
        </g>
    </g>
</svg>