<svg xmlns="http://www.w3.org/2000/svg" width="47" height="51" viewBox="0 0 47 51"><g><g><path fill="#fff" d="M26.053 6.737v14.202a.976.976 0 0 0 1.952 0V6.737a.976.976 0 1 0-1.952 0zm4.393 0v14.202a.976.976 0 1 0 1.952 0V6.737a.976.976 0 1 0-1.952 0zM17.198 31.435l-4.433 4.432a.976.976 0 1 0 1.38 1.38l10.902-10.901a3.528 3.528 0 0 1 4.976 0 3.508 3.508 0 0 1 1.025 2.488c0 .903-.342 1.805-1.025 2.488L13.051 48.294H2.433V26.83l14.765-13.388zm-6.49 6.895a.975.975 0 1 0 0 1.95.975.975 0 0 0 0-1.95zm28.348-16.515a.975.975 0 1 0 0 1.95.975.975 0 0 0 0-1.95zm0 3.901a.975.975 0 0 0-.975.975h-.001v16.626H22.964c-.441 0-.896-.103-1.325-.271a4.782 4.782 0 0 1-.4-.18l10.164-10.164A5.454 5.454 0 0 0 33 28.834a5.453 5.453 0 0 0-1.597-3.868c-2.126-2.126-5.61-2.127-7.736 0l-4.517 4.517V6.077c0-1.048.429-2.001 1.12-2.692a3.801 3.801 0 0 1 2.694-1.122H38.08V18.89a.975.975 0 1 0 1.951 0V2.263h.435c1.048 0 2.001.43 2.693 1.122a3.8 3.8 0 0 1 1.12 2.692v33.426a3.8 3.8 0 0 1-1.12 2.693 3.8 3.8 0 0 1-2.693 1.12h-.434V26.691a.975.975 0 0 0-.976-.975zm-25.023 24.34a.968.968 0 0 0 .12-.103l5.66-5.66c.347.219.723.412 1.117.567a5.6 5.6 0 0 0 2.034.409h17.502a5.748 5.748 0 0 0 4.073-1.693 5.749 5.749 0 0 0 1.693-4.073V6.077a5.748 5.748 0 0 0-1.693-4.073A5.748 5.748 0 0 0 40.466.311H22.964a5.749 5.749 0 0 0-4.073 1.693 5.748 5.748 0 0 0-1.693 4.073v4.742L.873 25.62a.974.974 0 0 0-.392.782V49.27c0 .539.437.976.976.976h11.998a.968.968 0 0 0 .578-.19z"/></g></g></svg>