<svg fill="white" id="Capa_1"  enable-background="new 0 0 512 512" height="512" viewBox="0 0 512 512" width="512" xmlns="http://www.w3.org/2000/svg"><g><path d="m126.1 285.023c4.143 0 7.5-3.357 7.5-7.5v-125.818c0-4.143-3.357-7.5-7.5-7.5s-7.5 3.357-7.5 7.5v125.818c0 4.143 3.358 7.5 7.5 7.5z"/><path d="m75.039 352.046v-82.57c0-4.143-3.357-7.5-7.5-7.5s-7.5 3.357-7.5 7.5v82.57c0 4.143 3.357 7.5 7.5 7.5s7.5-3.358 7.5-7.5z"/><path d="m192.162 412.105v-82.542c0-4.143-3.357-7.5-7.5-7.5s-7.5 3.357-7.5 7.5v82.542c0 4.143 3.357 7.5 7.5 7.5s7.5-3.357 7.5-7.5z"/><path d="m349.365 17.373c12.332-1.173 24.377 2.533 33.918 10.424 9.537 7.888 15.427 19.013 16.584 31.327.364 3.886 3.632 6.8 7.458 6.8.234 0 .472-.012.71-.034 4.124-.387 7.153-4.044 6.766-8.168-1.531-16.308-9.33-31.04-21.958-41.484-12.629-10.444-28.57-15.34-44.894-13.798-4.123.391-7.149 4.051-6.759 8.175.392 4.122 4.035 7.145 8.175 6.758z"/><path d="m394.634 174.167c.838 3.424 3.904 5.719 7.279 5.719.59 0 1.189-.07 1.789-.217 15.924-3.897 29.371-13.761 37.865-27.774 8.489-14.007 11.017-30.483 7.116-46.396-.986-4.023-5.046-6.489-9.069-5.499-4.023.986-6.485 5.047-5.499 9.069 2.946 12.021 1.037 24.47-5.376 35.05-6.415 10.585-16.573 18.036-28.604 20.979-4.023.985-6.486 5.046-5.501 9.069z"/><path d="m318.259 205.324c-4.143 0-7.5 3.357-7.5 7.5s3.357 7.5 7.5 7.5c25.564 0 46.363 20.79 46.363 46.345 0 4.143 3.357 7.5 7.5 7.5s7.5-3.357 7.5-7.5c0-33.825-27.528-61.345-61.363-61.345z"/><path d="m504.056 427.878-43.656-37.649-15.047-12.986c-.036-.031-.075-.056-.111-.087l-30.281-26.115c-3.772-3.264-8.595-4.857-13.585-4.488-4.378.324-8.411 2.128-11.533 5.124l-42.757-36.868c-1.805-12.704-8.826-26.999-20.906-41.919l-28.077-34.684c-2.606-3.22-7.328-3.716-10.548-1.11s-3.717 7.328-1.11 10.548l28.077 34.685c6.643 8.203 27.222 36.235 13.157 52.532-14.057 16.298-44.819.054-53.906-5.309l-23.049-13.632v-112.358l13.545 16.731c1.482 1.831 3.648 2.781 5.834 2.781 1.657 0 3.325-.547 4.714-1.671 3.22-2.606 3.717-7.329 1.11-10.548l-25.203-31.131v-61.442c0-34.082 27.726-61.811 61.806-61.811 34.096 0 61.834 27.729 61.834 61.811 0 22.727-18.511 41.217-41.263 41.217-24.127 0-40.978-14.924-40.978-36.291 0-8.125 2.39-14.771 6.911-19.22 3.839-3.775 9.045-5.855 14.659-5.855 9.72 0 19.527 6.23 19.527 20.149 0 4.143 3.357 7.5 7.5 7.5s7.5-3.357 7.5-7.5c0-23.076-17.369-35.149-34.527-35.149-9.575 0-18.517 3.609-25.179 10.163-5.196 5.112-11.392 14.452-11.392 29.912 0 29.72 23.542 51.291 55.978 51.291 31.023 0 56.263-25.219 56.263-56.217 0-42.354-34.468-76.811-76.834-76.811-25.318 0-47.806 12.32-61.806 31.274v-59.66c0-7.215-5.883-13.085-13.115-13.085h-223.016c-7.215 0-13.086 5.87-13.086 13.085v135.957c0 4.143 3.357 7.5 7.5 7.5s7.5-3.357 7.5-7.5v-134.042h43.533v85.41c0 4.143 3.357 7.5 7.5 7.5s7.5-3.357 7.5-7.5v-85.41h102.123v148.706c0 4.143 3.357 7.5 7.5 7.5s7.5-3.357 7.5-7.5v-148.706h43.562v482h-102.124v-118.318c0-4.143-3.357-7.5-7.5-7.5s-7.5 3.357-7.5 7.5v118.318h-102.094v-312.96c0-4.143-3.357-7.5-7.5-7.5s-7.5 3.357-7.5 7.5v314.875c0 7.215 5.871 13.085 13.086 13.085h223.016c7.231 0 13.115-5.87 13.115-13.085v-165.568l15.419 9.119c16.408 9.683 31.477 14.538 44.246 14.538.099 0 .196-.006.295-.007l42.744 36.853c-2.503 3.505-3.7 7.743-3.389 12.118.355 5.001 2.632 9.552 6.412 12.816l89.099 76.869c3.408 2.943 7.679 4.523 12.157 4.523.473 0 .947-.018 1.424-.053 4.989-.372 9.524-2.656 12.756-6.418l34.107-39.482c6.686-7.78 5.828-19.589-1.937-26.345zm-175.266-75.074c.005-.002.008-.006.013-.009 3.841-2 7.275-4.704 10.234-8.135 2.966-3.436 5.138-7.236 6.553-11.335l34.372 29.638-16.813 19.466zm37.462 54.628c-.994-.858-1.211-1.952-1.252-2.527-.04-.565.018-1.657.86-2.624.007-.008.014-.016.02-.023l34.092-39.491c.856-.991 1.941-1.21 2.512-1.253.08-.006.17-.01.27-.01.608 0 1.544.147 2.404.892l24.71 21.31-38.905 45.046zm36.076 31.106 38.898-45.038 8.792 7.582 10.254 8.849-38.901 45.041zm92.301 5.897-34.108 39.483c-.849.987-1.933 1.206-2.504 1.249-.57.04-1.677-.013-2.665-.866l-22.63-19.523 38.912-45.053 22.602 19.492c1.538 1.338 1.709 3.686.393 5.218z"/></g></svg>