<?xml version="1.0" encoding="UTF-8"?>
<svg width="64px" height="51px" viewBox="0 0 64 51" version="1.1" xmlns="http://www.w3.org/2000/svg" xmlns:xlink="http://www.w3.org/1999/xlink">
    <!-- Generator: Sketch 52.5 (67469) - http://www.bohemiancoding.com/sketch -->
    <title>Combined Shape</title>
    <desc>Created with Sketch.</desc>
    <g id="Platform" stroke="none" stroke-width="1" fill="none" fill-rule="evenodd">
        <g id="Registration-V2" transform="translate(-463.000000, -408.000000)" fill="#063C34">
            <g id="Registration" transform="translate(0.000000, 60.000000)">
                <g id="Live-support" transform="translate(293.000000, 268.000000)">
                    <g id="chat-3" transform="translate(170.000000, 80.000000)">
                        <path d="M46.53625,0.0938300971 C48.523375,0.0938300971 50.14,1.69475971 50.14,3.66259223 L50.14,13.4485267 C50.14,14.2743058 49.463875,14.9436189 48.63025,14.9436189 C47.796625,14.9436189 47.1205,14.2743058 47.1205,13.4485267 L47.1205,3.66259223 C47.1205,3.34359466 46.8585,3.08401456 46.53625,3.08401456 L3.603875,3.08401456 C3.28175,3.08401456 3.019625,3.34347087 3.019625,3.66259223 L3.019625,29.1696481 C3.019625,29.4886456 3.281625,29.7482257 3.603875,29.7482257 L7.89675,29.7482257 C8.685125,29.7482257 9.331625,30.3468568 9.39975,31.1101238 C9.404625,31.1488689 9.40725,38.6245777 9.40725,38.6245777 L17.928375,30.186182 C18.197125,29.920165 18.542125,29.7768204 18.893625,29.7531772 C18.92325,29.7502063 21.7595,29.7482257 21.7595,29.7482257 C22.593125,29.7482257 23.26925,30.4175388 23.26925,31.2434417 C23.26925,32.0692209 22.593375,32.738534 21.7595,32.738534 L19.6215,32.738534 L8.965125,43.2913252 C8.67625,43.5772718 8.29025,43.7292816 7.89725,43.7292816 C7.70275,43.7292816 7.5065,43.6921456 7.31975,43.6153981 C6.7555,43.3839175 6.38775,42.8386383 6.38775,42.2340655 L6.38775,32.7384102 L3.603875,32.7384102 C1.616625,32.7384102 -4.33431069e-13,31.1373568 -4.33431069e-13,29.1695243 L-4.33431069e-13,3.66259223 C-4.33431069e-13,1.69475971 1.616625,0.0938300971 3.603875,0.0938300971 L46.53625,0.0938300971 Z M60.396125,18.3812913 C62.383375,18.3812913 64,19.9822209 63.999875,21.9500534 L63.999875,39.3507087 C63.999875,41.318665 62.383125,42.9195947 60.396,42.9195947 L59.358375,42.9195947 L59.358375,49.4109539 C59.358375,50.0157743 58.990375,50.5608058 58.426375,50.7922864 C58.239625,50.8689102 58.043375,50.9061699 57.848875,50.9061699 C57.456,50.9061699 57.069875,50.754284 56.781,50.4682136 L49.1585,42.9197184 L30.34425,42.9197184 C28.357,42.9197184 26.740375,41.318665 26.740375,39.3508325 L26.740375,21.9501772 C26.740375,19.9822209 28.357125,18.3812913 30.34425,18.3812913 L60.396125,18.3812913 Z M60.9805,39.3508325 L60.9805,21.9500534 C60.9805,21.6310558 60.718375,21.3714757 60.39625,21.3714757 L30.34425,21.3714757 C30.022125,21.3714757 29.76,21.630932 29.76,21.9500534 L29.76,39.3507087 C29.76,39.6697063 30.022,39.9292864 30.34425,39.9292864 L49.78475,39.9292864 C50.16575,39.9292864 50.512875,40.0702791 50.778625,40.301017 C50.797875,40.317233 50.81825,40.3353058 50.83975,40.3561019 C50.8455,40.3617961 50.8515,40.3671189 50.85725,40.3728131 L56.339,45.801466 C56.339,45.801466 56.3415,41.3419369 56.345375,41.3092573 C56.405,40.537449 57.05475,39.9294102 57.84925,39.9294102 L60.39625,39.9294102 C60.718375,39.9294102 60.9805,39.6698301 60.9805,39.3508325 Z M45.3705,29.1554126 C46.203875,29.1554126 46.88025,29.8252209 46.88025,30.6505049 C46.88025,31.4757888 46.204,32.1455971 45.3705,32.1455971 C44.537125,32.1455971 43.86075,31.4757888 43.86075,30.6505049 C43.86075,29.8252209 44.537125,29.1554126 45.3705,29.1554126 Z M38.809,9.97854612 C39.64275,9.97854612 40.31875,10.6478592 40.31875,11.4736383 C40.31875,12.2994175 39.64275,12.9687306 38.809,12.9687306 L11.33125,12.9687306 C10.497625,12.9687306 9.8215,12.2994175 9.8215,11.4736383 C9.8215,10.6478592 10.4975,9.97854612 11.33125,9.97854612 C11.33125,9.97854612 38.809,9.97854612 38.809,9.97854612 Z M21.759375,19.8633859 C22.593125,19.8633859 23.269125,20.532699 23.269125,21.3584782 C23.269125,22.1842573 22.59325,22.8535704 21.759375,22.8535704 L11.33125,22.8535704 C10.497625,22.8535704 9.8215,22.1842573 9.8215,21.3584782 C9.8215,20.532699 10.4975,19.8633859 11.33125,19.8633859 L21.759375,19.8633859 Z M38.354625,29.1554126 C39.188125,29.1554126 39.864375,29.8252209 39.864375,30.6505049 C39.864375,31.4757888 39.188125,32.1455971 38.354625,32.1455971 C37.521375,32.1455971 36.844875,31.4757888 36.844875,30.6505049 C36.844875,29.8252209 37.521375,29.1554126 38.354625,29.1554126 Z M52.384875,29.1554126 C53.21825,29.1554126 53.894625,29.8252209 53.894625,30.6505049 C53.894625,31.4757888 53.218375,32.1455971 52.384875,32.1455971 C51.5515,32.1455971 50.875125,31.4757888 50.875125,30.6505049 C50.875125,29.8252209 51.5515,29.1554126 52.384875,29.1554126 Z" id="Combined-Shape"></path>
                    </g>
                </g>
            </g>
        </g>
    </g>
</svg>