<svg xmlns="http://www.w3.org/2000/svg" width="44" height="34" viewBox="0 0 44 34"><g><g><path fill="#fff" d="M14.443 33.613a7.438 7.438 0 0 1-5.715-2.681l-7.111-8.557a4.478 4.478 0 0 1 .581-6.3l1.994-1.656a4.478 4.478 0 0 1 6.299.58l3.582 4.312a.799.799 0 0 0 .594.29.8.8 0 0 0 .61-.25l.038-.037L33.614 1.46a4.443 4.443 0 0 1 3.11-1.366 4.444 4.444 0 0 1 3.194 1.233l1.877 1.788a4.478 4.478 0 0 1 .153 6.324l-.03.03-9.724 9.612a1.432 1.432 0 1 1-2.014-2.038l9.706-9.594a1.61 1.61 0 0 0-.067-2.26l-1.877-1.788a1.593 1.593 0 0 0-1.149-.443 1.598 1.598 0 0 0-1.162.535l-18.3 17.855a3.674 3.674 0 0 1-5.462-.207l-3.582-4.31a1.61 1.61 0 0 0-2.264-.21l-1.994 1.657a1.61 1.61 0 0 0-.21 2.264l7.112 8.557a4.57 4.57 0 0 0 6.818.231l.03-.03 8.032-7.94a1.432 1.432 0 1 1 2.014 2.039l-8.017 7.924a7.436 7.436 0 0 1-5.365 2.29z"/></g></g></svg>