<?xml version="1.0" encoding="UTF-8"?>
<svg width="24px" height="28px" viewBox="0 0 24 28" version="1.1" xmlns="http://www.w3.org/2000/svg" xmlns:xlink="http://www.w3.org/1999/xlink">
    <!-- Generator: Sketch 52.5 (67469) - http://www.bohemiancoding.com/sketch -->
    <title>Combined Shape</title>
    <desc>Created with Sketch.</desc>
    <g id="Platform" stroke="none" stroke-width="1" fill="none" fill-rule="evenodd">
        <g id="User-interface-v11" transform="translate(-1027.000000, -1914.000000)" fill="#FFFFFF">
            <g id="Features" transform="translate(0.000000, 1698.000000)">
                <g id="Group-9" transform="translate(366.000000, 190.000000)">
                    <g id="Group-10">
                        <g id="Feature-4" transform="translate(633.000000, 0.000000)">
                            <g id="Group-11">
                                <g id="hourglass-2" transform="translate(28.000000, 26.000000)">
                                    <path d="M11.403907,13.0835833 C11.4033488,12.355 11.1549767,11.6456667 10.7045581,11.088 C9.70381395,9.84783333 8.9547907,8.50325 8.47869767,7.09158333 C8.41451163,6.90083333 8.4424186,6.68966667 8.55404651,6.52458333 C8.66623256,6.3595 8.84762791,6.2615 9.04130233,6.2615 L14.9581395,6.2615 C15.151814,6.2615 15.3326512,6.3595 15.4448372,6.52458333 C15.5564651,6.68966667 15.5843721,6.90083333 15.520186,7.09158333 C15.0452093,8.50325 14.2950698,9.84783333 13.2943256,11.088 C12.8444651,11.6456667 12.5966512,12.3544167 12.596093,13.0835833 C12.596093,13.4265833 12.3287442,13.706 12,13.706 C11.6712558,13.706 11.403907,13.4283333 11.403907,13.0835833 Z M12.596093,15.5808333 C12.5966512,16.4803333 13.1106977,17.3699167 14.0444651,18.0915 C16.0386977,19.6309167 17.5322791,21.3033333 18.4816744,23.0615 C18.5854884,23.2551667 18.583814,23.4908333 18.4772093,23.681 C18.3700465,23.8729167 18.1741395,23.9901667 17.9626047,23.9901667 L6.03851163,23.9901667 C5.8264186,23.9901667 5.62995349,23.8729167 5.52390698,23.681 C5.41618605,23.4908333 5.41451163,23.2551667 5.51888372,23.0615 C6.46883721,21.3033333 7.96186047,19.6309167 9.95665116,18.0915 C10.8893023,17.3699167 11.4033488,16.4803333 11.403907,15.5808333 C11.403907,15.2378333 11.6712558,14.9584167 12,14.9584167 C12.3287442,14.9584167 12.596093,15.2366667 12.596093,15.5808333 Z M22.4327442,24.92525 C23.091907,24.92525 23.6260465,25.4823333 23.6260465,26.1706667 C23.6260465,26.8595833 23.0924651,27.4178333 22.4338605,27.4178333 L20.9425116,27.4178333 L3.05748837,27.4178333 L1.56669767,27.4178333 C0.908093023,27.4178333 0.374511628,26.8595833 0.374511628,26.1706667 C0.374511628,25.4823333 0.908093023,24.92525 1.56669767,24.92525 L1.9227907,24.92525 C2.3335814,20.0754167 5.05004651,16.3525833 7.16204651,13.7089167 C5.04948837,11.0658333 2.3335814,7.34241667 1.92334884,2.49258333 L1.56669767,2.49258333 C0.908093023,2.49258333 0.374511628,1.93433333 0.374511628,1.246 C0.374511628,0.55825 0.908093023,-3.78364007e-13 1.56669767,-3.78364007e-13 L22.4338605,-3.78364007e-13 C23.0924651,-3.78364007e-13 23.6260465,0.557666667 23.6260465,1.246 C23.6260465,1.93433333 23.0924651,2.49258333 22.4338605,2.49258333 L22.0772093,2.49258333 C21.6658605,7.34183333 18.9499535,11.06525 16.8373953,13.7089167 C18.9493953,16.3531667 21.6664186,20.076 22.076093,24.92525 L22.4327442,24.92525 Z M4.31330233,24.92525 L19.6866977,24.92525 C19.2385116,20.5438333 16.5131163,17.1698333 14.4770233,14.6486667 L14.368186,14.5139167 C13.9931163,14.0495833 13.9931163,13.3705833 14.368186,12.9068333 L14.475907,12.7726667 C16.512,10.2509167 19.2385116,6.87691667 19.6866977,2.49491667 L4.31330233,2.49491667 C4.76148837,6.87691667 7.488,10.2509167 9.52409302,12.7726667 L9.63237209,12.9068333 C10.0074419,13.3711667 10.0074419,14.0501667 9.63237209,14.5139167 L9.52353488,14.6486667 C7.48688372,17.1698333 4.76148837,20.5438333 4.31330233,24.92525 Z" id="Combined-Shape"></path>
                                </g>
                            </g>
                        </g>
                    </g>
                </g>
            </g>
        </g>
    </g>
</svg>