<?xml version="1.0" encoding="UTF-8"?>
<svg width="60px" height="60px" viewBox="0 0 60 60" version="1.1" xmlns="http://www.w3.org/2000/svg" xmlns:xlink="http://www.w3.org/1999/xlink">
    <!-- Generator: Sketch 52.5 (67469) - http://www.bohemiancoding.com/sketch -->
    <title>company-profile</title>
    <desc>Created with Sketch.</desc>
    <g id="Platform" stroke="none" stroke-width="1" fill="none" fill-rule="evenodd">
        <g id="Registration-Success-v2" transform="translate(-538.000000, -423.000000)" fill="#063C34">
            <g id="block-1" transform="translate(311.000000, 373.000000)">
                <g id="company-profile" transform="translate(227.000000, 50.000000)">
                    <g id="resume">
                        <path d="M48.5164453,17.4316406 C47.8693359,17.4316406 47.3445703,16.9069922 47.3445703,16.2597656 L47.3445703,3.515625 C47.3445703,2.86945313 46.8188672,2.34375 46.1726953,2.34375 L3.51644531,2.34375 C2.87027344,2.34375 2.34457031,2.86945313 2.34457031,3.515625 L2.34457031,56.484375 C2.34457031,57.1305469 2.87027344,57.65625 3.51644531,57.65625 L46.1726953,57.65625 C46.8188672,57.65625 47.3445703,57.1305469 47.3445703,56.484375 L47.3445703,47.8509375 C47.3445703,47.2037109 47.8693359,46.6790625 48.5164453,46.6790625 C49.1635547,46.6790625 49.6883203,47.2037109 49.6883203,47.8509375 L49.6883203,56.484375 C49.6883203,58.4228906 48.1112109,60 46.1726953,60 L3.51644531,60 C1.57792969,60 0.0008203125,58.4228906 0.0008203125,56.484375 L0.0008203125,3.515625 C0.0008203125,1.57710938 1.57792969,0 3.51644531,0 L46.1726953,0 C48.1112109,0 49.6883203,1.57710937 49.6883203,3.515625 L49.6883203,16.2597656 C49.6883203,16.9069922 49.1635547,17.4316406 48.5164453,17.4316406 Z M31.1726953,51.328125 C31.8198047,51.328125 32.3445703,51.8527734 32.3445703,52.5 C32.3445703,53.1472266 31.8198047,53.671875 31.1726953,53.671875 L24.8445703,53.671875 C24.1974609,53.671875 23.6726953,53.1472266 23.6726953,52.5 C23.6726953,51.8527734 24.1974609,51.328125 24.8445703,51.328125 L31.1726953,51.328125 Z M31.1726953,44.765625 C31.8198047,44.765625 32.3445703,45.2902734 32.3445703,45.9375 C32.3445703,46.5847266 31.8198047,47.109375 31.1726953,47.109375 L14.5320703,47.109375 C13.8849609,47.109375 13.3601953,46.5847266 13.3601953,45.9375 C13.3601953,45.2902734 13.8849609,44.765625 14.5320703,44.765625 L31.1726953,44.765625 Z M31.1726953,38.203125 C31.8198047,38.203125 32.3445703,38.7277734 32.3445703,39.375 C32.3445703,40.0222266 31.8198047,40.546875 31.1726953,40.546875 L14.5320703,40.546875 C13.8849609,40.546875 13.3601953,40.0222266 13.3601953,39.375 C13.3601953,38.7277734 13.8849609,38.203125 14.5320703,38.203125 L31.1726953,38.203125 Z M10.3553906,38.5464844 C10.5734766,38.7644531 10.6988672,39.0667969 10.6988672,39.375 C10.6988672,39.6832031 10.5733594,39.9855469 10.3553906,40.2035156 C10.1363672,40.4214844 9.83519531,40.546875 9.52582031,40.546875 C9.2175,40.546875 8.91644531,40.4214844 8.69730469,40.2035156 C8.47921875,39.9855469 8.35394531,39.6832031 8.35394531,39.375 C8.35394531,39.0667969 8.47933594,38.7644531 8.69730469,38.5464844 C8.91644531,38.3285156 9.2175,38.203125 9.52582031,38.203125 C9.83519531,38.203125 10.1363672,38.3285156 10.3553906,38.5464844 Z M10.3553906,45.1089844 C10.5734766,45.3269531 10.6988672,45.6292969 10.6988672,45.9375 C10.6988672,46.2457031 10.5733594,46.5480469 10.3553906,46.7660156 C10.1375391,46.9839844 9.83519531,47.109375 9.52582031,47.109375 C9.2175,47.109375 8.91515625,46.9839844 8.69730469,46.7660156 C8.47921875,46.5480469 8.35394531,46.2457031 8.35394531,45.9375 C8.35394531,45.6292969 8.47933594,45.3269531 8.69730469,45.1089844 C8.91644531,44.8910156 9.2175,44.765625 9.52582031,44.765625 C9.83519531,44.765625 10.1363672,44.8910156 10.3553906,45.1089844 Z M57.5392969,15.271875 C59.8896094,16.6289063 60.6977344,19.6450781 59.3407031,21.9953906 L44.5937109,47.5379297 C44.5129687,47.6779688 44.4039844,47.7997266 44.2737891,47.8955859 L36.7405078,53.4437109 C36.5348437,53.5952344 36.290625,53.6719922 36.0454687,53.6719922 C35.8437891,53.6719922 35.6416406,53.6199609 35.4596484,53.5149609 C35.0565234,53.2821094 34.8294141,52.8326953 34.8809766,52.3700391 L35.9190234,43.0719141 C35.9369531,42.91125 35.9880469,42.7559766 36.0687891,42.6159375 L50.8158984,17.0733984 C51.4730859,15.9349219 52.5345703,15.1204688 53.8044141,14.7801563 C55.0744922,14.4399609 56.4008203,14.6145703 57.5392969,15.271875 Z M37.5073828,49.9680469 L41.4411328,47.0709375 L38.0494922,45.1127344 L37.5073828,49.9680469 Z M43.1499609,45.3510938 L54.9841406,24.8538281 L50.5187109,22.2757031 L38.6845312,42.7729688 L43.1499609,45.3510938 Z M57.3110156,20.8233984 C57.6553125,20.2270313 57.7467187,19.5322266 57.5684766,18.8670703 C57.3902344,18.2019141 56.9636719,17.6459766 56.3673047,17.3016797 C55.7710547,16.9573828 55.0763672,16.8657422 54.4109766,17.0441016 C53.7458203,17.2223438 53.1898828,17.6489063 52.8455859,18.2452734 L51.6904687,20.2460156 L56.1558984,22.8241406 L57.3110156,20.8233984 Z M31.5008203,12.3636364 L35.8341536,12.3636364 C37.0307706,12.3636364 38.0008203,13.3336861 38.0008203,14.530303 L38.0008203,23.2265625 C37.9982813,23.7903646 37.4350326,24.1739662 36.917487,24.3636364 L36.917487,30.9090909 C36.917487,31.645419 36.5520736,32 35.8341536,32 L14.167487,32 C13.4495671,32 13.0841536,31.645419 13.0841536,30.9090909 L13.0841536,24.4817708 C12.566608,24.2923177 12.003571,23.7903646 12.0008203,23.2265625 L12.0008203,14.530303 C12.0008203,13.3336861 12.97087,12.3636364 14.167487,12.3636364 L18.5008203,12.3636364 L18.5008203,10.1666667 C18.5008203,8.97004971 19.47087,8 20.667487,8 L29.3341536,8 C30.5307706,8 31.5008203,8.97004971 31.5008203,10.1666667 L31.5008203,12.3636364 Z M29.3341536,12.3636364 L29.3341536,10.1818182 L20.667487,10.1818182 L20.667487,12.3636364 L29.3341536,12.3636364 Z M34.7508203,29.8181818 L34.7508203,24.3636364 L28.2508203,25.4545455 L28.2508203,26.5606061 C28.2508203,27.757223 27.2807706,28.7272727 26.0841536,28.7272727 L23.917487,28.7272727 C22.72087,28.7272727 21.7508203,27.757223 21.7508203,26.5606061 L21.7508203,25.4545455 L15.2508203,24.3636364 L15.2508203,29.8181818 L34.7508203,29.8181818 Z M25.0008203,26.5454545 C25.5991288,26.5454545 26.0841536,26.0604297 26.0841536,25.4621212 L26.0841536,23.2651515 C26.0841536,22.666843 25.5991288,22.1818182 25.0008203,22.1818182 C24.4025118,22.1818182 23.917487,22.666843 23.917487,23.2651515 L23.917487,25.4621212 C23.917487,26.0604297 24.4025118,26.5454545 25.0008203,26.5454545 Z M35.8341536,22.1818182 L35.8341536,14.5454545 L14.167487,14.5407176 L14.167487,22.1818182 L21.7508203,23.2727273 L21.7508203,22.1666667 C21.7508203,20.9700497 22.72087,20 23.917487,20 L26.0841536,20 C27.2807706,20 28.2508203,20.9700497 28.2508203,22.1666667 L28.2508203,23.2727273 C33.3065169,22.6931687 35.8342947,22.3295323 35.8341536,22.1818182 Z" id="Combined-Shape"></path>
                    </g>
                </g>
            </g>
        </g>
    </g>
</svg>