<?xml version="1.0" encoding="UTF-8"?>
<svg width="60px" height="60px" viewBox="0 0 60 60" version="1.1" xmlns="http://www.w3.org/2000/svg" xmlns:xlink="http://www.w3.org/1999/xlink">
    <!-- Generator: Sketch 52.5 (67469) - http://www.bohemiancoding.com/sketch -->
    <title>companies copy 2</title>
    <desc>Created with Sketch.</desc>
    <g id="companies-copy-2" stroke="none" stroke-width="1" fill="none" fill-rule="evenodd">
        <g id="suitcase" transform="translate(0.000000, 3.000000)" fill="#063C34" fill-rule="nonzero">
            <path d="M57,9 L44,9 L44,5 C43.996582,2.23974612 41.7602539,0.003417975 39,0 L21,0 C18.2397461,0.003417975 16.003418,2.23974612 16,5 L16,9 L3,9 C1.34326175,9 0,10.3432617 0,12 L0,34.2597656 C0.00634765,35.5283203 0.805664,36.6567383 2,37.0830078 L2,51 C2,52.6567383 3.34326175,54 5,54 L55,54 C56.6567383,54 58,52.6567383 58,51 L58,37.0839844 C59.194336,36.6572265 59.9941406,35.5283203 60,34.2597656 L60,12 C60,10.3432617 58.6567383,9 57,9 Z M18,5 C18,3.34326175 19.3432617,2 21,2 L39,2 C40.6567383,2 42,3.34326175 42,5 L42,9 L40,9 L40,5 C40,4.44775388 39.5522461,4 39,4 L21,4 C20.4477539,4 20,4.44775388 20,5 L20,9 L18,9 L18,5 Z M38,9 L22,9 L22,6 L38,6 L38,9 Z M56,51 C56,51.5522461 55.5522461,52 55,52 L5,52 C4.44775388,52 4,51.5522461 4,51 L4,37.4267577 L26,40.4609375 L26,43 C26,44.6567383 27.3432618,46 29,46 L31,46 C32.6567383,46 34,44.6567383 34,43 L34,40.4609375 L56,37.4267577 L56,51 Z M32,43 C32,43.5522461 31.5522461,44 31,44 L29,44 C28.4477539,44 28,43.5522461 28,43 L28,37 C28,36.4477539 28.4477539,36 29,36 L31,36 C31.5522461,36 32,36.4477539 32,37 L32,43 Z M58,34.2597656 C58.0004882,34.7583007 57.633789,35.1811524 57.1401367,35.2509765 L56.862793,35.2890625 L34,38.4418945 L34,37 C34,35.3432617 32.6567383,34 31,34 L29,34 C27.3432617,34 26,35.3432617 26,37 L26,38.4418945 L2.86083987,35.2509765 C2.3671875,35.1816406 1.99951175,34.758789 2,34.2597656 L2,12 C2,11.4477539 2.44775387,11 3,11 L57,11 C57.5522461,11 58,11.4477539 58,12 L58,34.2597656 Z" id="Shape"></path>
        </g>
    </g>
</svg>