<?xml version="1.0" encoding="UTF-8"?>
<svg width="60px" height="60px" viewBox="0 0 60 60" version="1.1" xmlns="http://www.w3.org/2000/svg" xmlns:xlink="http://www.w3.org/1999/xlink">
    <!-- Generator: Sketch 52.5 (67469) - http://www.bohemiancoding.com/sketch -->
    <title>confirm</title>
    <desc>Created with Sketch.</desc>
    <g id="Platform" stroke="none" stroke-width="1" fill="none" fill-rule="evenodd">
        <g id="Login-v4" transform="translate(-963.000000, -350.000000)" fill="#FFFFFF">
            <g id="Login-section" transform="translate(0.000000, 125.000000)">
                <g id="right-side" transform="translate(962.000000, 102.000000)">
                    <g id="Group-2" transform="translate(1.000000, 123.000000)">
                        <g id="Group">
                            <g id="confirm">
                                <g id="Combined-Shape">
                                    <path d="M30.0144981,-4.4408921e-13 C46.5022305,-4.4408921e-13 59.9921933,13.4564444 59.9921933,29.9033333 C59.9921933,46.4435556 46.5959108,59.8066667 30.0144981,59.8066667 C13.4330855,59.8066667 0.036802974,46.3502222 0.036802974,29.9033333 C0.036802974,13.4564444 13.5267658,-4.4408921e-13 30.0144981,-4.4408921e-13 Z M30.0144981,57.9377778 C45.4717472,57.9377778 58.1185874,45.3222222 58.1185874,29.9033333 C58.1185874,14.3908889 45.4717472,1.86888889 30.0144981,1.86888889 C14.5572491,1.86888889 1.91040892,14.4844444 1.91040892,29.9033333 C1.91040892,45.3222222 14.5572491,57.9377778 30.0144981,57.9377778 Z M42.2866171,20.7455556 L44.3475836,22.8946667 C45.1907063,23.7357778 45.1907063,25.2308889 44.3475836,26.072 L28.9840149,41.3975556 C28.6092937,41.8648889 28.0472119,42.0517778 27.3914498,42.0517778 L27.2977695,42.0517778 C26.7356877,42.0517778 26.0799257,41.8648889 25.7052045,41.3975556 L15.6814126,31.3986667 C14.83829,30.5575556 14.83829,29.0624444 15.6814126,28.2213333 L17.7423792,26.1655556 C18.5855019,25.3244444 20.0843866,25.3244444 20.9275093,26.1655556 L27.2977695,32.4266667 L39.101487,20.7455556 C39.9446097,19.9044444 41.4434944,19.9044444 42.2866171,20.7455556 Z M43.0360595,24.6702222 C43.1297398,24.5768889 43.1297398,24.2964444 42.9423792,24.1095556 L40.8814126,22.0537778 C40.7877323,21.9602222 40.694052,21.9602222 40.6003717,21.9602222 C40.5066914,21.9602222 40.4130112,21.9602222 40.3193309,22.0537778 L27.9535316,34.4824444 C27.5788104,34.8562222 27.0167286,34.8562222 26.6420074,34.4824444 L19.6159851,27.4737778 C19.5223048,27.3802222 19.4286245,27.3802222 19.3349442,27.3802222 C19.2412639,27.3802222 19.1475836,27.3802222 19.0539033,27.4737778 L16.9929368,29.5295556 C16.8055762,29.7164444 16.8055762,29.9033333 16.9929368,30.0902222 L26.9230483,40.0891111 C27.0167286,40.1826667 27.1104089,40.1826667 27.2040892,40.1826667 L27.2977695,40.1826667 C27.3914498,40.1826667 27.4851301,40.1826667 27.5788104,40.0891111 L43.0360595,24.6702222 Z" fill-rule="nonzero"></path>
                                </g>
                            </g>
                        </g>
                    </g>
                </g>
            </g>
        </g>
    </g>
</svg>