<?xml version="1.0" encoding="UTF-8"?>
<svg width="209px" height="25px" viewBox="0 0 209 25" version="1.1" xmlns="http://www.w3.org/2000/svg" xmlns:xlink="http://www.w3.org/1999/xlink">
    <!-- Generator: Sketch 52.5 (67469) - http://www.bohemiancoding.com/sketch -->
    <title>Group 5</title>
    <desc>Created with Sketch.</desc>
    <g id="Platform" stroke="none" stroke-width="1" fill="none" fill-rule="evenodd">
        <g id="Payment" transform="translate(-741.000000, -1013.000000)">
            <g id="Registration" transform="translate(-6.000000, 57.000000)">
                <g id="Group-7" transform="translate(454.000000, 934.000000)">
                    <g id="Group-6" transform="translate(198.000000, 0.000000)">
                        <g id="Cards-option">
                            <g id="Group-5" transform="translate(95.000000, 22.000000)">
                                <g id="Paysera" transform="translate(132.000000, 0.000000)">
                                    <path d="M73.9873153,24.9681497 L2.13525298,24.9681497 C0.955978125,24.9681497 0,24.0110169 0,22.8306497 L0,2.16927966 C0,0.988771186 0.955978125,0.0318502825 2.13525298,0.0318502825 L73.9872447,0.0318502825 C75.1665901,0.0318502825 76.1224977,0.988841808 76.1224977,2.16927966 L76.1225683,22.8306497 C76.1225683,24.0111582 75.1665901,24.9681497 73.9873153,24.9681497 Z" id="Path" fill="#E7E8E3"></path>
                                    <path d="M1.51806504,22.8306497 L1.51806504,2.16927966 C1.51806504,0.988771186 2.47418427,0.0318502825 3.65345913,0.0318502825 L2.13518243,0.0318502825 C0.955978125,0.0318502825 0,0.988912429 0,2.16927966 L0,22.8306497 C0,24.0111582 0.955978125,24.9681497 2.13525298,24.9681497 L3.65352968,24.9681497 C2.47425482,24.9681497 1.51806504,24.0110169 1.51806504,22.8306497 Z" id="Path" fill="#202121" opacity="0.15"></path>
                                    <path d="M32.2888425,19 C32.2761429,18.9703947 32.2492576,18.9820987 32.2286528,18.9816645 C31.5750845,18.9679868 30.9229625,18.9275658 30.2711376,18.8802961 C30.2052419,18.8755 30.1440219,18.8469803 30.0768186,18.8527237 C30.7565787,18.8545789 31.4352294,18.8366579 32.1129687,18.7970066 C32.985879,18.7459474 33.855976,18.6638421 34.7231011,18.5494474 C35.6618874,18.4255987 36.5940959,18.2691053 37.5066309,18.0121908 C38.101317,17.8447829 38.6814609,17.6393618 39.2131637,17.3181053 C39.5060688,17.141125 39.7789833,16.9361382 39.9690428,16.6475263 C40.3387205,16.0861908 40.2764703,15.8219539 39.9216121,15.3941184 C39.6753055,15.0971382 39.3640344,14.8730066 39.0638978,14.6365 C38.4685975,14.1673553 37.8500375,13.7274605 37.2761543,13.2314737 C36.9114891,12.9162961 36.5610094,12.58675 36.2907894,12.1832697 C36.0547654,11.8308882 35.8890553,11.4526118 35.9415381,11.0186184 C36.0010146,10.5267368 36.1892711,10.0809605 36.4823545,9.68022368 C36.861562,9.16173684 37.3612878,8.78539474 37.9186079,8.47834868 C38.7189062,8.03744737 39.582366,7.76740789 40.466292,7.55715132 C41.3754984,7.34085526 42.2990292,7.20930921 43.2289593,7.12333553 C43.8007623,7.07048026 44.3739718,7.03544737 44.9481721,7.01855263 C44.9748196,7.01778289 45.0083024,7.03434211 45.0281543,7 L47.286757,7 C47.3208936,7.03773684 47.3662044,7.01851316 47.4057101,7.01997368 C47.5404338,7.02498684 47.6745433,7.03550658 47.7858884,7.05078289 C46.945074,7.07150658 46.084487,7.13273026 45.2277831,7.23867763 C43.7637331,7.41978289 42.3120657,7.66513158 40.9059864,8.12606579 C40.2239479,8.34964474 39.5650501,8.62540789 38.9821522,9.05346053 C38.5740584,9.353125 38.2434307,9.71373684 38.0652586,10.2005461 C37.941293,10.5392697 37.9861084,10.8417566 38.1926715,11.1325592 C38.4366006,11.4759408 38.7528644,11.7435921 39.0853942,11.9937368 C39.7121762,12.46525 40.3467445,12.9265395 40.9701387,13.4023947 C41.4186496,13.74475 41.8503796,14.1083026 42.1880407,14.5668289 C42.3811512,14.8290329 42.5352711,15.1099868 42.5760845,15.4399276 C42.6178092,15.7769539 42.537292,16.0934737 42.4005276,16.39675 C42.1671783,16.9140724 41.765999,17.2792237 41.2933764,17.5736382 C40.6831773,17.9537895 40.0118373,18.1863289 39.3204275,18.3665855 C38.5439041,18.5690263 37.7536903,18.6960132 36.9567205,18.7855395 C35.9755558,18.89575 34.9912607,18.9573092 34.00439,18.9816842 C33.980318,18.9822763 33.9505005,18.9696053 33.9332638,19 L32.2888425,19 Z M63.485638,14.6183816 C63.907224,14.6232171 64.3292855,14.6336184 64.7499205,14.5965329 C64.9826953,14.5759868 65.2150144,14.5495987 65.434297,14.4601118 C65.5660092,14.4064079 65.6694888,14.3193092 65.7106588,14.1821974 C65.8344065,13.7702303 65.7289654,13.4518553 65.2954325,13.3348158 C65.2699935,13.3279474 65.244713,13.3203882 65.2189769,13.3148816 C64.8602553,13.2380658 64.4959664,13.2079671 64.1304492,13.1990461 C63.4611301,13.1827237 62.7917318,13.183 62.1226901,13.2160197 C61.9444586,13.2248224 61.7685452,13.2461776 61.5957026,13.2933684 C61.41759,13.3420395 61.308761,13.4543224 61.2523356,13.6279276 C61.2043502,13.7756382 61.2010019,13.9273553 61.2217652,14.0752237 C61.2524346,14.2933947 61.3562313,14.4625395 61.5930279,14.5218684 C61.8639216,14.5897632 62.1417297,14.5999474 62.416883,14.6139605 C62.7722761,14.6320592 63.1293137,14.6183816 63.485638,14.6183816 Z M67.000004,15.625 C66.9303043,15.6668618 66.8549185,15.6781908 66.7739059,15.6772039 C66.542835,15.6743618 66.3116849,15.6763947 66.0805545,15.6761579 C65.8618465,15.6759013 65.8118799,15.6247829 65.8163376,15.4073816 C65.816932,15.3781316 65.8164169,15.3488816 65.8164169,15.3116776 C65.7987047,15.3192961 65.7859059,15.3218421 65.7769508,15.3291053 C65.497835,15.5559803 65.1702386,15.6505 64.8183324,15.6841908 C63.8493721,15.7769342 62.8796192,15.7479408 61.9096682,15.7083882 C61.6324941,15.6970592 61.3556567,15.6791382 61.086566,15.6061513 C60.4205358,15.4255197 59.9955816,15.0161184 59.9497162,14.2586776 C59.928834,13.9134013 59.9331531,13.5697632 59.9998413,13.2276447 C60.1187151,12.6176579 60.5540113,12.2758553 61.1347892,12.1718026 C61.7849101,12.0553158 62.4427381,12.0661316 63.0994565,12.0664474 C63.6210154,12.0666842 64.1426536,12.0706711 64.6630436,12.1124934 C64.9622094,12.1365329 65.2625441,12.1542171 65.5395201,12.2895724 C65.6306369,12.3340987 65.7152553,12.3890461 65.8119195,12.455875 C65.8164169,12.1382105 65.8245796,11.837875 65.7221896,11.5472303 C65.6006015,11.2021316 65.3242198,11.0508092 64.9910759,10.9877895 C64.492955,10.8935461 63.9870279,10.8890263 63.4819331,10.8896184 C63.0100436,10.8901711 62.5378569,10.8918092 62.0698705,10.9664145 C62.0243022,10.9736776 61.978298,10.9790461 61.9333241,10.9890724 C61.5673314,11.0707237 61.4496067,11.2145855 61.4395816,11.5907303 C61.4387099,11.6235921 61.439859,11.6566118 61.4371447,11.6893158 C61.4285462,11.7926974 61.3770738,11.8514934 61.2755556,11.8526974 C60.9685441,11.8563289 60.6614138,11.8567237 60.3544221,11.8524211 C60.261859,11.8511382 60.197786,11.7933487 60.1870081,11.7002105 C60.1550113,11.4236382 60.162322,11.1484671 60.2477923,10.8805197 C60.3903616,10.4335395 60.7055556,10.1632632 61.1433877,10.0208224 C61.5670342,9.883 62.0055796,9.83095395 62.447394,9.80468421 C63.1335139,9.76390789 63.8201489,9.76826974 64.5062688,9.80533553 C64.9639925,9.83006579 65.4231823,9.85282237 65.8583397,10.0200329 C66.4176015,10.2349276 66.7984336,10.6135197 66.9487892,11.2033553 C66.9704638,11.2883816 66.9634304,11.3787171 67.000004,11.4605263 L67.000004,15.625 Z M47.6091528,12.0408941 C48.3515,12.0408941 49.0938472,12.0408941 49.8361747,12.0408941 C49.9822904,12.0408941 49.9845886,12.0405191 49.961646,11.8940322 C49.9163551,11.604848 49.8101215,11.3495717 49.5469546,11.1871375 C49.4226324,11.1104204 49.2868191,11.060052 49.1452404,11.0260059 C48.7057836,10.9202559 48.2572132,10.9102296 47.8086429,10.9054928 C47.2710954,10.8998086 46.7340235,10.8968086 46.200379,10.9852099 C45.7227044,11.0643349 45.4044197,11.3112822 45.290915,11.7923283 C45.2803749,11.8370125 45.2759964,11.8835914 45.2612758,11.9267559 C45.2309828,12.0155717 45.2530735,12.0436178 45.3524322,12.0430849 C46.104646,12.0390783 46.8568994,12.0408941 47.6091528,12.0408941 Z M48.2018379,13.1388349 C47.23789,13.1388349 46.2739223,13.1401967 45.3099943,13.1366046 C45.2195115,13.1362493 45.1971038,13.1588678 45.2103384,13.2457099 C45.2335782,13.3982362 45.2536084,13.5509401 45.2851496,13.7024007 C45.3833394,14.1739138 45.677255,14.4360783 46.1457763,14.5212033 C46.4711538,14.5803151 46.7987503,14.6141046 47.1291403,14.6183086 C47.795646,14.6268349 48.4624885,14.6504007 49.1274489,14.5793086 C49.2787555,14.5631441 49.4261788,14.5313283 49.5695803,14.4789072 C49.8181455,14.3880783 49.9609922,14.2180257 50.0019244,13.9537099 C50.0517722,13.6319796 50.0574583,13.632848 50.3805177,13.632848 C50.6115886,13.632848 50.8426794,13.6322559 51.0737701,13.6330849 C51.2268597,13.6336375 51.2927158,13.6987493 51.2881392,13.850348 C51.2753801,14.2742164 51.1728712,14.6687362 50.8982529,15.0051309 C50.6416241,15.3194993 50.2883113,15.4657888 49.9094208,15.5644533 C49.2972404,15.7238678 48.6707555,15.7415717 48.0431413,15.743052 C47.4191528,15.7445125 46.7957784,15.7278941 46.1746825,15.6632362 C45.8757544,15.6321309 45.5815417,15.5766309 45.2952935,15.4821901 C44.6369901,15.2650454 44.2689567,14.7844138 44.0786794,14.1467757 C43.9236283,13.6271836 43.9044103,13.0922954 43.9156241,12.5548414 C43.9245,12.1293151 43.965987,11.707973 44.09867,11.3014928 C44.3496126,10.5328414 44.8737471,10.0678217 45.6746595,9.92170987 C46.3959067,9.79014408 47.1252769,9.78720329 47.8548055,9.79531513 C48.2738754,9.79997303 48.6927273,9.81347303 49.1096376,9.86141382 C49.425208,9.89770987 49.7373707,9.9522625 50.027403,10.086552 C50.6990401,10.3975454 51.0773165,10.9336967 51.207305,11.6501243 C51.2832258,12.068427 51.2952716,12.4928875 51.3060297,12.9167954 C51.3099327,13.0709796 51.2406095,13.1386178 51.0837951,13.138677 C50.1231559,13.138973 49.1624969,13.1388349 48.2018379,13.1388349 Z M53.9450643,10.3252336 C54.3386754,9.95524671 54.8035711,9.84898355 55.2989778,9.82034539 C55.8136024,9.79060197 56.3281874,9.78221382 56.8430497,9.80386513 C57.15969,9.8171875 57.4761717,9.83885855 57.7789434,9.94377961 C58.3703605,10.1487072 58.7087348,10.5759901 58.8559601,11.1690428 C58.9651457,11.6089178 58.9401029,12.0573191 58.9381019,12.5039638 C58.9377056,12.5942796 58.8633302,12.6653322 58.7708068,12.6662796 C58.4670842,12.669398 58.1632625,12.6698717 57.8595596,12.6660625 C57.7529694,12.6647204 57.6923042,12.5865428 57.6907786,12.4628125 C57.6883615,12.2720559 57.6911352,12.0812204 57.6874105,11.8905033 C57.6844585,11.7391414 57.6677171,11.5886875 57.629618,11.4416678 C57.5801863,11.2509507 57.4671175,11.1158914 57.2797129,11.0433783 C57.0646702,10.9601678 56.8389882,10.9262796 56.6121571,10.9150691 C56.0475857,10.8872007 55.4834303,10.8898651 54.9267046,11.0089967 C54.3347327,11.1356678 54.1257724,11.3581217 54.0230456,11.962227 C53.9621822,12.3200954 53.9453417,12.6808454 53.9451832,13.0428586 C53.9448464,13.8421612 53.9451436,14.6414638 53.9450049,15.4407664 C53.9449653,15.6176875 53.8873511,15.6752204 53.7063459,15.6759704 C53.455423,15.6769572 53.2044606,15.6768783 52.9535179,15.6759704 C52.7841029,15.6753388 52.7208026,15.6120822 52.7207828,15.4418717 C52.7204064,13.6590428 52.7204064,11.8762336 52.7207234,10.0934046 C52.720763,9.92200987 52.7824585,9.8614375 52.9531613,9.86124013 C53.204104,9.86096382 53.4550466,9.86096382 53.7059893,9.86124013 C53.8904616,9.86145724 53.9448266,9.91697697 53.9450445,10.1041809 C53.9451238,10.1691743 53.9450643,10.2341678 53.9450643,10.3252336 Z" id="Combined-Shape" fill="#F37925"></path>
                                    <path d="M22.3129015,14.6307368 C22.5753551,14.6299079 23.0540798,14.6322763 23.5312987,14.5934342 C23.7542862,14.5752763 23.9779473,14.5490658 24.1871058,14.4592434 C24.2857909,14.4168289 24.3731236,14.3594342 24.4271913,14.2627829 C24.641085,13.8804803 24.4687774,13.4556842 24.0496877,13.3361776 C23.7818055,13.2598158 23.5053843,13.2363092 23.2291413,13.2175789 C22.5401486,13.1708816 21.850304,13.1886842 21.1608358,13.2014342 C20.8841371,13.2065461 20.6069828,13.2221382 20.337159,13.2949276 C20.158135,13.3432434 20.049306,13.459375 20.0036981,13.6363355 C19.9612007,13.8011974 19.9541079,13.9680526 19.9886804,14.1345921 C20.0303655,14.3353355 20.1478921,14.4673947 20.3513446,14.5213158 C20.483037,14.5562105 20.6176418,14.5660197 20.7519692,14.5787895 C21.1992716,14.6213224 21.6482185,14.6212237 22.3129015,14.6307368 Z M24.5645104,15.2939145 C24.1484124,15.6661316 23.6477158,15.6915724 23.154013,15.7184342 C22.2666992,15.7667303 21.3787909,15.7491842 20.491695,15.7005329 C20.2610996,15.6879013 20.0307617,15.6635066 19.8078535,15.5994605 C19.1845782,15.4204474 18.7670339,15.0281184 18.7012372,14.318875 C18.6670412,13.9503289 18.6737377,13.5840724 18.7489849,13.2199276 C18.8723165,12.6229276 19.2847294,12.2782829 19.8899359,12.1710921 C20.5401361,12.0559474 21.1978253,12.064375 21.8544051,12.0653816 C22.3758253,12.0661908 22.8975229,12.0697632 23.4177742,12.1127105 C23.6673102,12.1333158 23.9185897,12.1448618 24.156793,12.2345658 C24.2959745,12.2869868 24.427865,12.3527697 24.5507211,12.4533289 C24.5709494,12.4032763 24.5607263,12.3579408 24.561499,12.3146382 C24.5646689,12.1369276 24.5571204,11.9598882 24.5269463,11.7841316 C24.4460527,11.3132303 24.2140506,11.0719671 23.7395459,10.9860724 C23.2604249,10.8993487 22.7748452,10.8901118 22.2895824,10.8897368 C21.7582956,10.8893026 21.2266721,10.8900724 20.7011705,10.9858947 C20.6462508,10.9959013 20.591866,11.0103487 20.538452,11.02675 C20.3363665,11.0888224 20.2295782,11.2308092 20.2041194,11.4354605 C20.1939953,11.5168355 20.1938764,11.5994342 20.1885469,11.6814211 C20.1815136,11.7894605 20.1218587,11.8524803 20.0122967,11.8534474 C19.7119223,11.8560921 19.4114885,11.8560329 19.1110944,11.8533882 C19.0152226,11.8525395 18.9441163,11.7894803 18.9343884,11.6989474 C18.9002518,11.3812632 18.9164583,11.0673684 19.0390172,10.7680592 C19.1983279,10.3789868 19.498841,10.1459934 19.8928087,10.0193421 C20.3201403,9.88195395 20.7617565,9.83046053 21.2068399,9.80419079 C21.8829745,9.76428289 22.5596637,9.7675 23.2357388,9.80490132 C23.6569682,9.82819079 24.0791684,9.85092763 24.4864896,9.97815132 C25.263231,10.2207171 25.6930391,10.7739605 25.7525751,11.5831908 C25.7943989,12.1515526 25.7896637,12.7200526 25.7902581,13.2888092 C25.7909911,14.0024342 25.7904562,14.7160592 25.7904166,15.4296842 C25.7903968,15.6169474 25.7314552,15.6751118 25.5402466,15.6754079 C25.3025386,15.6757632 25.0648702,15.6757039 24.827182,15.6754276 C24.6129317,15.6751711 24.5571601,15.6174803 24.5643916,15.4053487 C24.5653624,15.3765132 24.5645104,15.3476184 24.5645104,15.2939145 Z M30.4740731,14.5165947 C30.726779,14.0277526 30.9714412,13.5551737 31.2154892,13.0822789 C31.7414068,12.0631868 32.2685131,11.0446868 32.790706,10.0236803 C32.8512326,9.90533816 32.926559,9.85512763 33.0610449,9.85868026 C33.3613202,9.86661447 33.6619521,9.86075263 33.9624454,9.86130526 C34.1606477,9.86166053 34.2350627,9.98446316 34.1427968,10.1600026 C33.2776132,11.8065684 32.411657,13.4527395 31.546949,15.0995421 C31.3191868,15.5332987 31.08768,15.9650026 30.8210262,16.3764961 C30.5188489,16.8427987 30.1368875,17.2180355 29.6008656,17.4128184 C29.3372034,17.5086605 29.0618718,17.5383842 28.7851534,17.5549829 C28.4522274,17.5749961 28.1187863,17.5802066 27.7853651,17.5609632 C27.6562483,17.5535224 27.5921357,17.4911342 27.591462,17.3628053 C27.5901941,17.1160947 27.5906101,16.8693842 27.5912243,16.6226737 C27.5915809,16.4723974 27.661241,16.4031013 27.813023,16.4182592 C27.9943849,16.4363579 28.1755882,16.4368513 28.3571086,16.4338118 C28.5820575,16.4300026 28.8039156,16.4000618 29.0242285,16.3543908 C29.2666716,16.3041408 29.4477759,16.1643447 29.5980126,15.9770816 C29.6412431,15.9232 29.6820762,15.8673447 29.7225924,15.8113513 C29.7742629,15.7399632 29.8607238,15.6673118 29.7093578,15.6049237 C29.683899,15.5944039 29.668901,15.5546342 29.6528333,15.5262526 C28.6421878,13.7411145 27.6318395,11.9557789 26.6218082,10.1703053 C26.5182691,9.98730526 26.5929021,9.86148289 26.8040418,9.86124605 C27.1078437,9.86093026 27.4116852,9.86483816 27.7153682,9.85927237 C27.8291899,9.85718026 27.8975225,9.90008816 27.9520856,9.99808158 C28.7675799,11.4628513 29.5855705,12.9262592 30.4029865,14.3899829 C30.4236706,14.4269895 30.4444933,14.4639171 30.4740731,14.5165947 Z M13.5590745,10.9035388 C13.0971308,10.9085717 12.635088,10.9145914 12.1774832,10.9879928 C11.6295343,11.0759007 11.3358565,11.3408086 11.2327929,11.8768217 C11.1143351,12.4929862 11.123845,13.1132954 11.2507825,13.7277625 C11.3316761,14.1193612 11.562965,14.386677 11.9621433,14.4922296 C12.1089921,14.531052 12.2576042,14.5629467 12.4084947,14.5763678 C13.2816428,14.6539533 14.1546719,14.6550191 15.0267105,14.5590783 C15.6408127,14.4914993 15.9559076,14.2312296 16.0726417,13.6471375 C16.1961714,13.0289599 16.1873946,12.4048217 16.0564947,11.7870191 C15.971698,11.3868349 15.71921,11.1348151 15.3206261,11.0335257 C15.2091224,11.0051836 15.09538,10.9835125 14.981479,10.9667954 C14.509649,10.8975191 14.0343518,10.8997493 13.5590745,10.9035388 Z M9.99999208,9.90132171 C10.0849076,9.85900592 10.1758659,9.85987434 10.2678544,9.86056513 C10.5022538,9.86234145 10.7366928,9.86052566 10.971112,9.86143355 C11.1058357,9.86194671 11.1722267,9.92401908 11.1789233,10.0573809 C11.1824895,10.1283151 11.1795572,10.1995849 11.1795572,10.2880454 C11.2440067,10.2400849 11.2918732,10.2019928 11.3421766,10.1674336 C11.6628982,9.94715066 12.0304561,9.87491382 12.408039,9.84295987 C13.3146501,9.76624276 14.2217762,9.77648618 15.128209,9.8453875 C15.508209,9.8742625 15.8802642,9.94762434 16.2255333,10.1172033 C16.7748492,10.3869664 17.1450025,10.8136572 17.2830546,11.409552 C17.4893007,12.2997822 17.504477,13.1987757 17.2738023,14.085473 C17.0455645,14.9627164 16.4527408,15.4749072 15.5591068,15.6213349 C14.699015,15.7622954 13.8299879,15.7566112 12.9613967,15.7302033 C12.6841235,15.7217559 12.4074644,15.702927 12.1334008,15.6597033 C11.7908065,15.6056638 11.4711151,15.4921967 11.1960807,15.2698414 C11.1698492,15.3103809 11.1806073,15.3469336 11.1805677,15.3810586 C11.179795,16.0454796 11.1800724,16.7098809 11.1799535,17.3743217 C11.1798941,17.593223 11.1328993,17.6394862 10.9117543,17.6395454 C10.6938388,17.6395849 10.4759034,17.637848 10.2580275,17.6403743 C10.1688325,17.6414007 10.0818961,17.6380454 9.99999208,17.5986901 L9.99999208,9.90132171 Z" id="Combined-Shape" fill="#156C9C"></path>
                                </g>
                                <g id="mastercard" transform="translate(88.000000, 0.000000)">
                                    <path d="M36,22.7987994 C36,23.9793079 35.0472656,24.9362994 33.8719922,24.9362994 L2.12800781,24.9362994 C0.952734375,24.9362994 0,23.9791667 0,22.7987994 L0,2.13742938 C0,0.956920904 0.952734375,0 2.12800781,0 L33.8719219,0 C35.0472656,0 35.9999297,0.956991525 35.9999297,2.13742938 L36,22.7987994 Z" id="Path" fill="#E7E8E3"></path>
                                    <path d="M1.51291406,22.8306497 L1.51291406,2.16927966 C1.51291406,0.988771186 2.46578906,0.0318502825 3.6410625,0.0318502825 L2.1279375,0.0318502825 C0.952734375,0.0318502825 0,0.988912429 0,2.16927966 L0,22.8306497 C0,24.0111582 0.952734375,24.9681497 2.12800781,24.9681497 L3.64113281,24.9681497 C2.46585937,24.9681497 1.51291406,24.0110169 1.51291406,22.8306497 Z" id="Path" fill="#202121" opacity="0.15"></path>
                                    <ellipse id="Oval" fill="#EE0005" cx="13.7980461" cy="10.2814366" rx="6.76372079" ry="6.81633575"></ellipse>
                                    <ellipse id="Oval" fill="#F9A000" cx="22.2014413" cy="10.2814366" rx="6.76372079" ry="6.81633575"></ellipse>
                                    <path d="M15.437823,10.2813333 C15.437823,12.4456594 16.4389521,14.3741824 17.999795,15.6227764 C19.5605866,14.3741308 20.5617669,12.4456594 20.5617669,10.2813333 C20.5617669,8.11700726 19.5606379,6.18848426 17.999795,4.93989023 C16.4390034,6.18858757 15.437823,8.11705892 15.437823,10.2813333 Z" id="Path" fill="#FF6300"></path>
                                    <path d="M9.70454965,19.1427764 C10.1394042,19.1427764 10.5448379,19.4881905 10.5449404,20.1013818 L10.5449404,21.3087554 C10.5449404,21.3912994 10.429256,21.4787506 10.2894813,21.4787506 C10.1587789,21.4787506 10.0382764,21.3913511 10.0382764,21.3087554 L10.0382764,20.1013818 C10.0382764,19.7656788 9.8111618,19.5902599 9.58891647,19.5902599 C9.36180184,19.5902599 9.13473846,19.7753898 9.13473846,20.0916707 L9.13473846,21.313611 C9.13473846,21.4301953 9.00941793,21.4787506 8.87871554,21.4787506 C8.7630311,21.4787506 8.62751066,21.4301953 8.62751066,21.313611 L8.62751066,20.0965262 C8.62751066,19.7948119 8.41541399,19.5951154 8.17871452,19.5951154 C7.95159988,19.5951154 7.72935456,19.7705343 7.72935456,20.1013818 L7.72935456,21.313611 C7.72935456,21.4362389 7.59506425,21.4787506 7.47576628,21.4787506 C7.36441297,21.4787506 7.22217801,21.4362389 7.22217801,21.313611 L7.22217801,19.3371009 C7.22217801,19.2399903 7.32397211,19.1719613 7.47338289,19.1719613 C7.59439793,19.1719613 7.70044626,19.2399387 7.70044626,19.3371009 L7.70044626,19.5125198 C7.8064946,19.3224826 8.01910383,19.1427764 8.34257944,19.1427764 C8.63232871,19.1427764 8.86426139,19.3419564 8.97564033,19.6291041 C9.14432331,19.298205 9.42443648,19.1427764 9.70454965,19.1427764 Z M11.7863056,19.1427764 C12.4964553,19.1427764 12.7621143,19.5999193 12.7621143,20.0867635 L12.7621143,21.3087038 C12.7621143,21.4009588 12.6555022,21.478699 12.5157275,21.478699 C12.3850764,21.478699 12.2838461,21.4010105 12.2838461,21.3087038 L12.2838461,21.1381404 C12.1145993,21.3378886 11.8826666,21.5175948 11.554373,21.5175948 C11.201989,21.5175948 10.9122398,21.313611 10.9122398,20.875322 C10.9122398,20.3253559 11.3711846,20.1790702 12.0422773,20.1790702 L12.2548865,20.1790702 L12.2548865,20.091619 C12.2548865,19.8433672 12.1290022,19.5659306 11.7766183,19.5659306 C11.4242344,19.5659306 11.3369457,19.7122163 11.2405334,19.7122163 C11.120031,19.7122163 11.0568325,19.5707861 11.0568325,19.4542018 C11.0568325,19.2787829 11.458012,19.1427764 11.7863056,19.1427764 Z M12.2549378,20.6416368 L12.2549378,20.4613624 L12.1339228,20.4613624 C11.7670334,20.4613624 11.4242856,20.5007748 11.4242856,20.8122002 C11.4242856,21.0313188 11.5592423,21.128481 11.7381251,21.128481 C11.9796427,21.128481 12.2549378,20.875322 12.2549378,20.6416368 Z M13.6506343,19.8190379 C13.6506343,20.2476158 14.8240856,19.9653236 14.8241368,20.8412817 C14.8241368,21.2547248 14.5199334,21.5175948 13.9741612,21.5175948 C13.4964568,21.5175948 13.1435091,21.3135593 13.1435091,21.1284294 C13.1435091,21.0410299 13.215831,20.8995997 13.3175739,20.8995997 C13.4428944,20.8995997 13.5446373,21.1235738 13.9597071,21.1235738 C14.2783646,21.1235738 14.3704714,20.9918547 14.3704714,20.8607038 C14.3704714,20.3495819 13.2061437,20.6512962 13.2061437,19.8433156 C13.2061437,19.5076126 13.423571,19.1427248 14.0319778,19.1427248 C14.3945104,19.1427248 14.7565816,19.2738757 14.7565816,19.4298725 C14.7565816,19.5027571 14.6842596,19.6781759 14.5632446,19.6781759 C14.4620143,19.6781759 14.3126035,19.5367458 14.0416139,19.5367458 C13.7566827,19.5367458 13.6506343,19.6975981 13.6506343,19.8190379 Z M16.2395669,21.0410299 C16.3841596,21.0410299 16.4564816,21.1479031 16.4564303,21.259632 C16.4564303,21.3718773 16.3841084,21.4787506 16.2395156,21.4787506 L16.0702688,21.4787506 C15.5197298,21.4787506 15.2251625,21.2498692 15.2251625,20.7193253 L15.2251625,18.2808168 C15.2251625,18.1837062 15.3553524,18.1156772 15.4763674,18.1156772 C15.6016879,18.1156772 15.7323903,18.1836546 15.7323903,18.2808168 L15.7323903,19.1719096 L16.321525,19.1719096 C16.4083011,19.1719096 16.4618635,19.2642163 16.4618635,19.3613785 C16.4618635,19.4590573 16.4083011,19.551364 16.321525,19.551364 L15.7323903,19.551364 L15.7323903,20.7193253 C15.7323903,20.9530621 15.8191152,21.0410299 16.0703201,21.0410299 L16.2395669,21.0410299 Z M18.4563308,20.9190218 C18.5768332,20.9190218 18.6544858,21.060452 18.6544858,21.1478515 C18.6544858,21.2936207 18.3401338,21.5175948 17.852742,21.5175948 C17.1955908,21.5175948 16.7317767,21.128481 16.7317767,20.5493301 L16.7317767,20.0867635 C16.7317767,19.5756416 17.1810854,19.1427764 17.7364937,19.1427764 C18.2533064,19.1427764 18.6978483,19.5125198 18.6978483,20.0430638 C18.6978483,20.4467958 18.4755517,20.4613624 18.2581244,20.4613624 L17.2389533,20.4613624 L17.2389533,20.5736077 C17.2389533,20.8995997 17.4949762,21.1041517 17.8671961,21.1041517 C18.2099439,21.1041517 18.3256284,20.9190218 18.4563308,20.9190218 Z M17.2389533,19.9896013 L17.2389533,20.1450299 L18.0406971,20.1450299 C18.1810356,20.1450299 18.21958,20.1158967 18.21958,19.9993123 C18.21958,19.7412978 18.0069708,19.5318902 17.7316757,19.5318902 C17.4660166,19.5318902 17.2389533,19.7218757 17.2389533,19.9896013 Z M20.3543858,19.1427764 C20.4556161,19.1427764 20.5477228,19.2447942 20.5477741,19.3662857 C20.5477741,19.4930977 20.4556673,19.5951154 20.3544371,19.5951154 L20.1996444,19.5951154 C19.9050771,19.5951154 19.6153278,19.8676449 19.6153278,20.3107893 L19.6153278,21.3087554 C19.6153278,21.3912994 19.4996434,21.4787506 19.3544869,21.4787506 C19.2098429,21.4787506 19.1081,21.3913511 19.1081,21.3087554 L19.1081,19.3371009 C19.1081,19.2399903 19.2098941,19.1719613 19.3544869,19.1719613 C19.4803199,19.1719613 19.5863683,19.2399387 19.5863683,19.3371009 L19.5863683,19.551364 C19.6881111,19.3468119 19.9146619,19.1427764 20.1995932,19.1427764 L20.3543858,19.1427764 Z M22.3198935,20.9044552 C22.455414,20.9044552 22.5373721,21.0458854 22.5373208,21.1478515 C22.5373208,21.3184149 22.2186633,21.5175948 21.7741213,21.5175948 C21.0789384,21.5175948 20.7699169,21.1042034 20.7699169,20.5493301 L20.7699169,20.1110412 C20.7699169,19.5659306 21.0789384,19.1427764 21.7693033,19.1427764 C22.2090272,19.1427764 22.5084125,19.3273382 22.5084125,19.4979015 C22.5084125,19.5950638 22.4264544,19.746205 22.3054394,19.746205 C22.2042091,19.746205 22.1174842,19.5950638 21.8078989,19.5950638 C21.4458789,19.5950638 21.2766322,19.7899048 21.2766322,20.1110412 L21.2766322,20.5493301 C21.2766322,20.8704665 21.4410096,21.0653075 21.812717,21.0653075 C22.1318871,21.0653075 22.2090272,20.9044552 22.3198935,20.9044552 Z M23.6336833,19.1427764 C24.3438329,19.1427764 24.609492,19.5999193 24.609492,20.0867635 L24.609492,21.3087038 C24.609492,21.4009588 24.5028798,21.478699 24.3631051,21.478699 C24.232454,21.478699 24.1312237,21.4010105 24.1312237,21.3087038 L24.1312237,21.1381404 C23.9619769,21.3378886 23.7306081,21.5175948 23.4017506,21.5175948 C23.0493667,21.5175948 22.7596174,21.313611 22.7596174,20.875322 C22.7596174,20.3253559 23.2185622,20.1790702 23.8896549,20.1790702 L24.1022642,20.1790702 L24.1022642,20.091619 C24.1022642,19.8433672 23.9763798,19.5659306 23.6239959,19.5659306 C23.271612,19.5659306 23.1848359,19.7122163 23.0879111,19.7122163 C22.9674086,19.7122163 22.9042101,19.5707861 22.9042101,19.4542018 C22.9042101,19.2787829 23.3053896,19.1427764 23.6336833,19.1427764 Z M24.1023154,20.6416368 L24.1023154,20.4613624 L23.9813004,20.4613624 C23.6144111,20.4613624 23.2716633,20.5007748 23.2716633,20.8122002 C23.2716633,21.0313188 23.4066199,21.128481 23.5855028,21.128481 C23.8270203,21.128481 24.1023154,20.875322 24.1023154,20.6416368 Z M26.3720266,19.1427764 C26.4738207,19.1427764 26.5654149,19.2447942 26.5654149,19.3662857 C26.5654149,19.4930977 26.4738207,19.5951154 26.3720778,19.5951154 L26.217849,19.5951154 C25.9232817,19.5951154 25.6335324,19.8676449 25.6335324,20.3107893 L25.6335324,21.3087554 C25.6335324,21.3912994 25.5172842,21.4787506 25.3726914,21.4787506 C25.2275349,21.4787506 25.1263046,21.3913511 25.1263046,21.3087554 L25.1263046,19.3371009 C25.1263046,19.2399903 25.2275349,19.1719613 25.3726914,19.1719613 C25.498012,19.1719613 25.6045729,19.2399387 25.6045729,19.3371009 L25.6045729,19.551364 C25.7058032,19.3468119 25.9328665,19.1427764 26.2177978,19.1427764 L26.3720266,19.1427764 Z M28.5261046,17.7993446 C28.6712611,17.7993446 28.7773094,17.8673737 28.7773094,17.9645359 L28.7773094,21.3593253 C28.7773094,21.4878935 28.633178,21.5142889 28.5236955,21.5142889 C28.4049357,21.5142889 28.2700816,21.4787506 28.2700816,21.3593253 L28.2700816,21.2037934 C28.1486565,21.3845843 27.9180053,21.5175948 27.6279485,21.5175432 C27.1748952,21.5174625 26.7779728,21.0555448 26.7779728,20.5492785 L26.7779728,20.1012785 C26.7779728,19.57559 27.1689524,19.1427248 27.6424026,19.1427248 C27.946606,19.1427248 28.1640333,19.3224826 28.2700816,19.5124681 L28.2700816,17.9644843 C28.2700816,17.8673737 28.3815118,17.7993446 28.5261046,17.7993446 Z M28.2701329,20.6610589 L28.2701329,20.1013301 C28.2701329,19.7850492 28.018928,19.5950638 27.777923,19.5950638 C27.5069334,19.5950638 27.2852006,19.8481711 27.2852006,20.1013301 L27.2852006,20.5493301 C27.2852006,20.8121485 27.5069334,21.0653075 27.7725924,21.0653075 C28.0532182,21.0653075 28.2701329,20.7781598 28.2701329,20.6610589 Z" id="Combined-Shape" fill="#171614"></path>
                                </g>
                                <g id="maestro" transform="translate(44.000000, 0.000000)">
                                    <path d="M36,22.8306497 C36,24.0111582 35.0472656,24.9681497 33.8719922,24.9681497 L2.12800781,24.9681497 C0.952734375,24.9681497 0,24.0110169 0,22.8306497 L0,2.16927966 C0,0.988771186 0.952734375,0.0318502825 2.12800781,0.0318502825 L33.8719219,0.0318502825 C35.0472656,0.0318502825 35.9999297,0.988841808 35.9999297,2.16927966 L36,22.8306497 Z" id="Path" fill="#E7E8E3"></path>
                                    <path d="M1.51291406,22.8306497 L1.51291406,2.16927966 C1.51291406,0.988771186 2.46578906,0.0318502825 3.6410625,0.0318502825 L2.1279375,0.0318502825 C0.952734375,0.0318502825 0,0.988912429 0,2.16927966 L0,22.8306497 C0,24.0111582 0.952734375,24.9681497 2.12800781,24.9681497 L3.64113281,24.9681497 C2.46585937,24.9681497 1.51291406,24.0110169 1.51291406,22.8306497 Z" id="Path" fill="#202121" opacity="0.15"></path>
                                    <path d="M15.8005547,9.90049435 C15.8005547,8.03029661 16.6582266,6.36172316 18,5.2690678 C16.9801875,4.43862994 15.6810234,3.9404661 14.2659141,3.9404661 C10.9887187,3.9404661 8.33203125,6.60875706 8.33203125,9.90049435 C8.33203125,13.1920198 10.9887187,15.8602401 14.2659141,15.8602401 C15.6810234,15.8602401 16.9801875,15.3624294 18,14.5320621 C16.6582266,13.4389831 15.8005547,11.7704802 15.8005547,9.90049435 Z" id="Path" fill="#EA001B"></path>
                                    <path d="M21.7342266,3.94039548 C20.3191172,3.94039548 19.0198125,4.4384887 18,5.26899718 C19.3418437,6.36158192 20.1995156,8.03022599 20.1995156,9.90042373 C20.1995156,11.7704096 19.3418438,13.4389831 18,14.5319209 C19.0198125,15.3622881 20.3191172,15.8600989 21.7342266,15.8600989 C25.0114219,15.8600989 27.6679688,13.1918785 27.6679688,9.90035311 C27.6679688,6.60882768 25.0114219,3.94039548 21.7342266,3.94039548 Z" id="Path" fill="#0099DF"></path>
                                    <path d="M20.1995156,9.90049435 C20.1995156,8.03029661 19.3418438,6.36172316 18,5.2690678 C16.6582266,6.36165254 15.8005547,8.03029661 15.8005547,9.90049435 C15.8005547,11.7704802 16.6582266,13.4390537 18,14.5319915 C19.3418438,13.4389831 20.1995156,11.7704802 20.1995156,9.90049435 Z" id="Path" fill="#6C6BBD"></path>
                                    <path d="M8.86689844,18.4764124 C9.69904687,18.4764124 10.3758047,19.302048 10.3759453,20.3168785 L10.3759453,22.0001412 C10.3759453,22.0218927 10.3584375,22.0394774 10.3367812,22.0394774 L9.48810937,22.0394774 C9.46652344,22.0394774 9.44894531,22.021822 9.44894531,22.0001412 L9.44894531,20.3168785 C9.44894531,19.8228107 9.1468125,19.4358757 8.76079687,19.4358757 C8.35853906,19.4358757 8.09430469,19.8653249 8.08003125,20.2631356 L8.08003125,22.0001412 C8.08003125,22.0218927 8.06252344,22.0394774 8.04086719,22.0394774 L7.19219531,22.0394774 C7.17060937,22.0394774 7.15303125,22.021822 7.15303125,22.0001412 L7.15303125,20.3168785 C7.15303125,19.8228814 6.85089844,19.4358757 6.46488281,19.4358757 C6.15375,19.4358757 5.90807812,19.6670198 5.80689844,20.0544492 L5.80689844,22.0001412 C5.80689844,22.0218927 5.78939062,22.0394774 5.76773437,22.0394774 L4.85859375,22.0394774 C4.83700781,22.0394774 4.81942969,22.021822 4.81942969,22.0001412 L4.81942969,18.6100282 C4.81942969,18.5882768 4.83707812,18.5706921 4.85859375,18.5706921 L5.59357031,18.5706921 C5.60791406,18.5706921 5.62120312,18.5786723 5.62795312,18.5913136 L5.74867969,18.8156073 C6.00208594,18.599435 6.29669531,18.4764124 6.56339062,18.4764124 C7.00804687,18.4764124 7.42485937,18.7081921 7.71482812,19.1147599 C7.99467187,18.7138418 8.42153906,18.4764124 8.86689844,18.4764124 Z M14.5113047,18.5708333 C14.5329609,18.5708333 14.5503984,18.5884181 14.5505391,18.6102401 L14.5505391,22.0003531 C14.5505391,22.0221045 14.5330313,22.0396893 14.511375,22.0396893 L13.7082656,22.0396893 C13.6866797,22.0396893 13.6691016,22.0220339 13.6691016,22.0003531 L13.6691016,21.754096 C13.3619063,21.9996469 12.9808125,22.1340395 12.5867813,22.1340395 C11.6085234,22.1340395 10.8125859,21.3118644 10.8125859,20.3013418 C10.8125859,19.2907486 11.6085234,18.4686441 12.5867813,18.4686441 C12.9875625,18.4686441 13.3749844,18.6075565 13.6848516,18.8612994 L13.7459531,18.6011299 C13.7500313,18.5833333 13.7659922,18.5708333 13.7839922,18.5708333 L14.5113047,18.5708333 Z M12.7080703,21.182274 C12.9244922,21.182274 13.1268516,21.0918079 13.2779531,20.9275424 C13.4346094,20.7573446 13.5175078,20.5407486 13.5175078,20.3012712 C13.5175078,20.0577684 13.4327109,19.8356638 13.2785859,19.6757062 C13.1269922,19.5107345 12.9246328,19.4202684 12.7081406,19.4202684 C12.4910156,19.4202684 12.2911875,19.5086158 12.1300313,19.6757062 C11.9783672,19.8407486 11.8909688,20.0689266 11.8909688,20.3012712 C11.8909688,20.5294492 11.9762578,20.752048 12.1312266,20.928178 C12.2911172,21.0939266 12.4910859,21.182274 12.7080703,21.182274 Z M16.8145313,18.4528249 C17.7927891,18.4528249 18.5885859,19.2784605 18.5885156,20.2934322 C18.5885156,20.4180791 18.5790234,20.5200565 18.5575078,20.6238701 C18.5537109,20.6420904 18.5378203,20.6551554 18.5191875,20.6551554 L16.1365078,20.6551554 C16.1793984,20.7588983 16.232625,20.8461158 16.2982266,20.9201271 C16.4491172,21.0916667 16.6405781,21.182274 16.8522891,21.182274 C17.0440313,21.182274 17.2379531,21.0949153 17.3848359,20.9425141 C17.3983359,20.9286723 17.4195703,20.9265537 17.4353203,20.9375 L18.1475156,21.4330508 C18.1565156,21.4392655 18.1624922,21.4488701 18.1640391,21.4597458 C18.1655859,21.4706215 18.1625625,21.4816384 18.1556719,21.490113 C17.8259766,21.8993644 17.3371641,22.1339689 16.8145313,22.1339689 C15.8362734,22.1339689 15.0401953,21.3083333 15.0401953,20.2933616 C15.0401953,19.2784605 15.8362734,18.4528249 16.8145313,18.4528249 Z M16.1192813,19.9787429 L17.5802344,19.9788136 C17.5410703,19.8581215 17.4789844,19.7484463 17.3991094,19.6589689 C17.2574297,19.4971751 17.0582344,19.4045904 16.8523594,19.4045904 C16.6428281,19.4045904 16.4509453,19.4926554 16.2976641,19.659322 C16.2256641,19.7464689 16.1642109,19.8564266 16.1192813,19.9787429 Z M20.6990859,19.9495056 C21.2832422,20.1284605 21.6192656,20.5234463 21.6192656,21.0324153 C21.6192656,21.6190678 21.0380625,22.1336864 20.3754375,22.1336864 C19.7441719,22.1336864 19.1825859,21.9115113 18.7940391,21.5081215 C18.7794844,21.4930085 18.7793437,21.4689266 18.7938984,21.4536723 L19.3999219,20.8165254 C19.4077969,20.8086158 19.4191875,20.8051554 19.4294531,20.8044492 C19.4405625,20.8048729 19.4509687,20.809887 19.4581406,20.8183616 C19.7341875,21.145904 20.0718984,21.2621469 20.2771406,21.2621469 C20.4754922,21.2621469 20.5938281,21.1675141 20.5938281,21.0089689 C20.5938281,20.7992232 20.4156562,20.7256356 20.1436875,20.6374294 C19.5186797,20.4366525 19.0405547,20.2280367 19.0405547,19.5381356 C19.0405547,18.9283192 19.5558047,18.4685028 20.2389609,18.4685028 C20.8122891,18.4685028 21.1227187,18.5997881 21.5629453,18.8757062 C21.5810859,18.8872175 21.5867812,18.9113701 21.5754609,18.9297316 L21.1360078,19.6454096 C21.1303828,19.6548729 21.1208906,19.6612994 21.1102031,19.6634181 C21.099375,19.6653955 21.0883359,19.6628531 21.0794766,19.6564266 C20.7833906,19.4368644 20.5112812,19.3159605 20.3133516,19.3159605 C20.1467109,19.3159605 20.0479219,19.3999294 20.0278828,19.5588983 C20.0034141,19.7211864 20.1753984,19.7830508 20.4812578,19.8784605 C20.5510781,19.9002825 20.6246953,19.9232345 20.6990859,19.9495056 Z M24.4288828,18.5708333 C24.4505391,18.5708333 24.4680469,18.5884181 24.4680469,18.6101695 L24.4680469,19.5305085 C24.4680469,19.5522599 24.4505391,19.5698446 24.4288828,19.5698446 L23.7102891,19.5698446 L23.7102891,22.0003531 C23.7102891,22.0221045 23.6927813,22.0396893 23.671125,22.0396893 L22.7088984,22.0396893 C22.6873125,22.0396893 22.6697344,22.0220339 22.6697344,22.0003531 L22.6697344,19.5698446 L22.0267969,19.5698446 C22.0052109,19.5698446 21.9876328,19.5521893 21.9876328,19.5305085 L21.9876328,18.6101695 C21.9876328,18.5884181 22.0052813,18.5708333 22.0267969,18.5708333 L22.6697344,18.5708333 L22.6697344,17.3516243 C22.6697344,17.3298729 22.6873828,17.3122881 22.7088984,17.3122881 L23.671125,17.3122881 C23.6928516,17.3122881 23.7102891,17.3299435 23.7102891,17.3516243 L23.7102891,18.5708333 L24.4288828,18.5708333 Z M27.5636953,18.5809322 C27.5738203,18.5846045 27.5821172,18.5923729 27.5864063,18.6021186 C27.5906953,18.6120056 27.5906953,18.6233051 27.5865469,18.6332627 L27.2152969,19.5063559 C27.2112188,19.5161017 27.2032031,19.5237288 27.1934297,19.527613 C27.1834453,19.5313559 27.1726172,19.5312147 27.163125,19.5267655 C27.0461953,19.4735876 26.92575,19.4466102 26.8053047,19.4466102 C26.4141563,19.4466102 26.0777109,19.7361582 26.0052188,20.1351695 L26.0058516,22.0002119 C26.0058516,22.0219633 25.9883438,22.039548 25.9666875,22.039548 L25.0195781,22.039548 C24.9979922,22.039548 24.9804141,22.0218927 24.9804141,22.0002119 L24.9804141,18.6100989 C24.9804141,18.5883475 24.9980625,18.5707627 25.0195781,18.5707627 L25.7545547,18.5707627 C25.7712188,18.5707627 25.7859141,18.5812147 25.7913984,18.5968927 L25.9043203,18.915678 C26.1390938,18.640678 26.5327031,18.484322 26.9972578,18.484322 C27.1924453,18.484322 27.3882656,18.5176554 27.5636953,18.5809322 Z M29.5429922,18.4686441 C30.5631563,18.4686441 31.3929844,19.2907486 31.3929844,20.3013418 C31.3929844,21.3290254 30.5804531,22.1340395 29.5429922,22.1340395 C28.5271875,22.1340395 27.7005234,21.3118644 27.7005234,20.3013418 C27.7005234,19.2907486 28.5271875,18.4686441 29.5429922,18.4686441 Z M29.5505156,21.190113 C29.7707344,21.190113 29.9652188,21.1041667 30.1286953,20.9346751 C30.2775469,20.7654661 30.3600938,20.5372881 30.3600938,20.2934322 C30.3600938,20.0574859 30.2776875,19.8378531 30.1280625,19.6751412 C29.9673984,19.5008475 29.773125,19.4124294 29.5505859,19.4124294 C29.33325,19.4124294 29.1287109,19.5076977 28.9896328,19.6737994 C28.8284766,19.8339689 28.7410781,20.0558616 28.7410781,20.3012712 C28.7410781,20.5516243 28.8239766,20.7647599 28.9877344,20.9346751 C29.1303281,21.0975282 29.3350078,21.190113 29.5505156,21.190113 Z" id="Combined-Shape" fill="#34495E"></path>
                                </g>
                                <g id="visa">
                                    <path d="M36.1225683,22.8305791 C36.1225683,24.0110876 35.1665901,24.9680791 33.9873153,24.9680791 L2.13525298,24.9680791 C0.955978125,24.9681497 0,24.0110876 0,22.8305791 L0,2.16927966 C0,0.988771186 0.955978125,0.0318502825 2.13525298,0.0318502825 L33.9873153,0.0318502825 C35.1666607,0.0318502825 36.1225683,0.988841808 36.1225683,2.16927966 L36.1225683,22.8305791 Z" id="Path" fill="#FFFFFF"></path>
                                    <path d="M8.01751691,12.6437147 L7.16934207,8.57090395 C7.02435794,8.00925141 6.60245763,7.84216102 6.0752939,7.8200565 L2.18661476,7.8200565 L2.15197378,8.00614407 C5.18069592,8.74110169 7.18472238,10.5141243 8.01751691,12.6437147 Z" id="Path" fill="#F7981D"></path>
                                    <path d="M17.0279811,7.9019774 L15.4546034,17.1199859 L12.9462015,17.1199859 L14.5154166,7.9019774 L17.0279811,7.9019774 Z M9.5488457,17.1107345 L6.89193204,17.1138418 L4.6448543,9.42577684 C6.26162144,10.4605226 7.63879436,12.1042373 8.12066377,13.2462571 L8.38304626,14.1955508 L10.8412858,7.90826271 L13.5004571,7.90826271 L9.5488457,17.1107345 Z M24.1944306,14.1066384 C24.1755227,16.0223164 22.4609706,17.255791 19.8232471,17.255791 C18.6979444,17.2464689 17.6139146,17.0224576 17.0281222,16.7661723 L17.3807406,14.700565 L17.7017517,14.8481638 C18.5278438,15.1926554 19.0605106,15.3314266 20.065875,15.3314266 C20.7875503,15.3314266 21.5598113,15.0498588 21.5660904,14.4324153 C21.5723695,14.0286017 21.2445855,13.7405367 20.2676534,13.2903955 C19.315979,12.8487994 18.0519713,12.1105932 18.0677749,10.7855226 C18.0835785,8.99364407 19.8295262,7.74427966 22.309919,7.74427966 C23.2836057,7.74427966 24.0621458,7.94300847 24.5601716,8.12923729 L24.2196882,10.1262006 L23.9926522,10.0220339 C23.5293379,9.83587571 22.9369842,9.65607345 22.1142786,9.66871469 C21.1310675,9.66871469 20.6772777,10.0788136 20.6772777,10.4605932 C20.6708575,10.892726 21.2066991,11.1766949 22.0858462,11.6025424 C23.5324422,12.2618644 24.2037434,13.0600989 24.1944306,14.1066384 Z M27.1789167,15.7383475 C27.0812023,15.9877119 26.6526701,17.1232345 26.6528818,17.1232345 L24.0148055,17.1232345 L27.7431201,8.67485876 C28.0079719,8.07556497 28.4553415,7.9115113 29.0573608,7.9115113 L30.9955623,7.9115113 L33.028374,17.1232345 L30.6993855,17.1232345 C30.6993855,17.1232345 30.4693158,16.0625 30.3936841,15.7415254 C30.0279431,15.7415254 27.4657101,15.7383475 27.1789167,15.7383475 Z M28.8996067,11.2743644 C28.8996067,11.2743644 28.1086495,13.3218927 27.900592,13.8518362 L29.9838482,13.8518362 C29.8831001,13.3912429 29.4039117,11.1891243 29.4039117,11.1891243 L29.2338111,10.394209 C29.1077348,10.7412429 28.8871896,11.2995763 28.8996067,11.2743644 Z" id="Combined-Shape" fill="#293688"></path>
                                    <path d="M33.9873153,0.0318502825 L2.13525298,0.0318502825 C0.955978125,0.0318502825 0,0.988771186 0,2.16927966 L0,4.38764124 L36.1225683,4.38764124 L36.1225683,2.16927966 C36.1225683,0.988771186 35.1666607,0.0318502825 33.9873153,0.0318502825 Z" id="Path" fill="#293688"></path>
                                    <path d="M33.9873153,24.9681497 L2.13525298,24.9681497 C0.955978125,24.9681497 0,24.0111582 0,22.8307203 L0,20.6123588 L36.1225683,20.6123588 L36.1225683,22.8307203 C36.1225683,24.0111582 35.1666607,24.9681497 33.9873153,24.9681497 Z" id="Path" fill="#F7981D"></path>
                                    <path d="M1.51806504,22.8305791 L1.51806504,2.16927966 C1.51806504,0.988771186 2.47411372,0.0318502825 3.65345913,0.0318502825 L2.13518243,0.0318502825 C0.955978125,0.0318502825 0,0.988771186 0,2.16927966 L0,22.8306497 C0,24.0111582 0.955978125,24.9681497 2.13525298,24.9681497 L3.65352968,24.9681497 C2.47418427,24.9681497 1.51806504,24.0110876 1.51806504,22.8305791 Z" id="Path" fill="#202121" opacity="0.15"></path>
                                </g>
                            </g>
                        </g>
                    </g>
                </g>
            </g>
        </g>
    </g>
</svg>