<svg xmlns="http://www.w3.org/2000/svg" width="48" height="49" viewBox="0 0 48 49"><g><g><path fill="#fff" d="M45.416 10.652l-2.309 2.31-7.854-7.855 2.309-2.309a2.436 2.436 0 0 1 3.441 0l4.413 4.413a2.436 2.436 0 0 1 0 3.441zM32.9 7.461l1.382-1.382 7.854 7.854-1.381 1.382zM10.206 39.978a1.521 1.521 0 0 0-.721-.055l-1.233.206a.14.14 0 0 1-.126-.04.14.14 0 0 1-.04-.127l.205-1.233c.04-.244.02-.492-.055-.72L34.87 11.374l1.97 1.97zm-6.123 6.114a1.454 1.454 0 0 1-1.694-.267 1.453 1.453 0 0 1-.267-1.694l.551-1.079 2.49 2.489zm1.453-7.55l1.232-.205c.06-.01.102.017.128.042.023.023.05.064.04.125l-.206 1.231a1.521 1.521 0 0 0 1.748 1.749l1.233-.205c.06-.01.101.016.126.041a.14.14 0 0 1 .04.126l-.205 1.231a1.52 1.52 0 0 0 .279 1.155L6.505 44.94l-3.23-3.231 1.107-3.445c.329.243.746.347 1.154.278zM46.388 6.24l-4.413-4.413A3.783 3.783 0 0 0 39.282.711a3.783 3.783 0 0 0-2.692 1.115L17.369 21.047a.687.687 0 1 0 .972.972L31.928 8.433l1.97 1.97L7.264 37.036a1.518 1.518 0 0 0-.721-.055l-1.234.205a.138.138 0 0 1-.125-.04.14.14 0 0 1-.04-.126l.36-2.164 10.569-10.569a.687.687 0 1 0-.972-.972L4.376 34.04a.686.686 0 0 0-.167.275l-2.355 7.32-.956 1.87a2.824 2.824 0 0 0 .519 3.292 2.825 2.825 0 0 0 3.291.52l1.871-.957 7.32-2.354a.687.687 0 0 0 .275-.168l16.707-16.706a.687.687 0 1 0-.972-.972L13.358 42.71l-2.163.36a.14.14 0 0 1-.127-.04.14.14 0 0 1-.04-.126l.205-1.233a1.52 1.52 0 0 0-.055-.72l26.634-26.635 1.97 1.97-7.607 7.608a.687.687 0 1 0 .971.971l13.242-13.24a3.812 3.812 0 0 0 0-5.386z"/><path fill="none" stroke="#fff" stroke-miterlimit="20" d="M45.416 10.652l-2.309 2.31-7.854-7.855 2.309-2.309a2.436 2.436 0 0 1 3.441 0l4.413 4.413a2.436 2.436 0 0 1 0 3.441zM32.9 7.461l1.382-1.382 7.854 7.854-1.381 1.382zM10.206 39.978a1.521 1.521 0 0 0-.721-.055l-1.233.206a.14.14 0 0 1-.126-.04.14.14 0 0 1-.04-.127l.205-1.233c.04-.244.02-.492-.055-.72L34.87 11.374l1.97 1.97zm-6.123 6.114a1.454 1.454 0 0 1-1.694-.267 1.453 1.453 0 0 1-.267-1.694l.551-1.079 2.49 2.489zm1.453-7.55l1.232-.205c.06-.01.102.017.128.042.023.023.05.064.04.125l-.206 1.231a1.521 1.521 0 0 0 1.748 1.749l1.233-.205c.06-.01.101.016.126.041a.14.14 0 0 1 .04.126l-.205 1.231a1.52 1.52 0 0 0 .279 1.155L6.505 44.94l-3.23-3.231 1.107-3.445c.329.243.746.347 1.154.278zM46.388 6.24l-4.413-4.413A3.783 3.783 0 0 0 39.282.711a3.783 3.783 0 0 0-2.692 1.115L17.369 21.047a.687.687 0 1 0 .972.972L31.928 8.433l1.97 1.97L7.264 37.036a1.518 1.518 0 0 0-.721-.055l-1.234.205a.138.138 0 0 1-.125-.04.14.14 0 0 1-.04-.126l.36-2.164 10.569-10.569a.687.687 0 1 0-.972-.972L4.376 34.04a.686.686 0 0 0-.167.275s0 0 0 0l-2.355 7.32-.956 1.87a2.824 2.824 0 0 0 .519 3.292 2.825 2.825 0 0 0 3.291.52l1.871-.957 7.32-2.354s0 0 0 0a.687.687 0 0 0 .275-.168l16.707-16.706a.687.687 0 1 0-.972-.972L13.358 42.71l-2.163.36a.14.14 0 0 1-.127-.04.14.14 0 0 1-.04-.126l.205-1.233a1.52 1.52 0 0 0-.055-.72l26.634-26.635 1.97 1.97-7.607 7.608a.687.687 0 1 0 .971.971l13.242-13.24a3.812 3.812 0 0 0 0-5.386z"/></g></g></svg>