<?xml version="1.0" encoding="UTF-8"?>
<svg width="20px" height="20px" viewBox="0 0 20 20" version="1.1" xmlns="http://www.w3.org/2000/svg" xmlns:xlink="http://www.w3.org/1999/xlink">
    <!-- Generator: Sketch 52.5 (67469) - http://www.bohemiancoding.com/sketch -->
    <title>Facebook</title>
    <desc>Created with Sketch.</desc>
    <g id="Symbols" stroke="none" stroke-width="1" fill="none" fill-rule="evenodd">
        <g id="Footer-light" transform="translate(-273.000000, -220.000000)" fill="#063C34" fill-rule="nonzero">
            <g id="Footer-#4">
                <g id="Content" transform="translate(207.000000, 60.000000)">
                    <g id="Social-Media" transform="translate(0.000000, 160.000000)">
                        <g id="Facebook" transform="translate(66.000000, 0.000000)">
                            <path d="M9.92884956,19.8576991 C4.44529736,19.8576991 -1.54543045e-13,15.4124018 -1.54543045e-13,9.92884956 C-1.54543045e-13,4.44529736 4.44529736,-1.54543045e-13 9.92884956,-1.54543045e-13 C15.4124018,-1.54543045e-13 19.8576991,4.44529736 19.8576991,9.92884956 C19.8576991,15.4124018 15.4124018,19.8576991 9.92884956,19.8576991 Z M12.4249558,10.3175221 L12.659469,8.03858407 L10.6534513,8.03858407 L10.6534513,6.69610619 C10.6534513,6.19256637 10.9861947,6.07433628 11.2228319,6.07433628 L12.6654867,6.07433628 L12.6654867,3.86017699 L10.6771681,3.85185841 C8.47044248,3.85185841 7.96902655,5.50477876 7.96902655,6.56035398 L7.96902655,8.03646018 L6.69238938,8.03646018 L6.69238938,10.3175221 L7.96902655,10.3175221 L7.96902655,16.8081416 L10.6532743,16.8081416 L10.6532743,10.3175221 L12.4249558,10.3175221 Z" id="Oval-3"></path>
                        </g>
                    </g>
                </g>
            </g>
        </g>
    </g>
</svg>