<svg xmlns="http://www.w3.org/2000/svg" width="19" height="19" viewBox="0 0 19 19"><g transform="translate(0.25 0.25)"><g transform="translate(-0.198 -0.217)"><path d="M18.869,6.544h0L14.46,2.115,16.068.507,18.547,3a.227.227,0,0,0,.322-.322L16.219.034a.218.218,0,0,0-.322,0L14.119,1.813,12.34.034a.218.218,0,0,0-.322,0L10.239,1.813,8.442,0A.218.218,0,0,0,8.12,0l-1.779,1.8L4.562,0A.218.218,0,0,0,4.24,0L2.253,1.964h0A.066.066,0,0,0,2.234,2c-.019.019-.019.038-.038.038,0,.019,0,.038-.019.038V2.21c0,.019.019.019.019.038a.066.066,0,0,0,.019.038L6.549,6.7,4.922,8.323.474,3.819a.218.218,0,0,0-.322,0,.218.218,0,0,0,0,.322L2.67,6.676.115,9.231a.218.218,0,0,0,0,.322.218.218,0,0,0,.322,0L2.972,7.017,4.6,8.644.1,13.167a.218.218,0,0,0,0,.322c.019.019.019.019.038.019a.019.019,0,0,0,.019.019l2.479,2.5L.1,18.466a.218.218,0,0,0,0,.322.205.205,0,0,0,.17.076.215.215,0,0,0,.151-.057l2.536-2.441,2.422,2.422a.282.282,0,0,0,.17.076.231.231,0,0,0,.17-.076.218.218,0,0,0,0-.322L3.181,15.949c-.019-.019-.019-.057-.057-.076-.019-.019-.057-.038-.076-.057L.626,13.375l1.627-1.627,6.359,6.321.719.719a.282.282,0,0,0,.17.076.231.231,0,0,0,.17-.076.218.218,0,0,0,0-.322l-.7-.7h0l-.057-.057L4.6,13.375l1.627-1.627,1.741,1.741c.019.019.019.019.038.019a.019.019,0,0,0,.019.019l5.242,5.261a.282.282,0,0,0,.17.076.231.231,0,0,0,.17-.076.218.218,0,0,0,0-.322l-.662-.662a.019.019,0,0,0-.019-.019L8.5,13.375l1.627-1.627,6.34,6.359a.414.414,0,0,0,.095.057l.625.625a.282.282,0,0,0,.17.076.231.231,0,0,0,.17-.076.218.218,0,0,0,0-.322l-5.091-5.091,1.627-1.627,4.485,4.5a.227.227,0,0,0,.322-.322l-2.555-2.574,2.574-2.574a.227.227,0,0,0-.322-.322l-2.574,2.555-1.627-1.627,4.5-4.523A.218.218,0,0,0,18.869,6.544ZM4.221,13.016,2.594,11.388,6.928,7.036,8.555,8.663,6,11.218a.019.019,0,0,1-.019.019ZM8.99,8.871a.252.252,0,0,0,.095-.057l1.76-1.779,1.609,1.609L8.12,13,6.492,11.369Zm1.438,2.517,2.555-2.555h0l1.779-1.8L16.39,8.663l-4.334,4.353ZM12.208.488l1.7,1.7a.252.252,0,0,0,.057.095l4.409,4.428L16.768,8.323,10.58,2.134Zm-3.936,0L14.46,6.7,12.832,8.323l-1.779-1.76a.019.019,0,0,0-.019-.019L6.644,2.115Zm-3.9,0,1.76,1.779a.019.019,0,0,0,.019.019l4.372,4.39L8.9,8.3,2.745,2.134Z" transform="translate(-0.025 0.075)" fill="#fff"/></g><g transform="translate(-0.25 -0.25)"><path d="M18.75,18.75h-19v-19h19ZM.2,18.3H18.3V.2H.2Z" transform="translate(0.25 0.25)" fill="#fff"/></g></g></svg>