<svg xmlns="http://www.w3.org/2000/svg" xmlns:xlink="http://www.w3.org/1999/xlink" width="18.802" height="18.802" viewBox="0 0 18.802 18.802"><defs><clipPath id="a"><rect width="18.437" height="18.437" fill="none"/></clipPath></defs><g transform="translate(374.862 181.089)"><g transform="translate(-374.862 -181.089)"><path d="M-356.06-162.287h-18.8v-18.8h18.8Zm-18.353-.45h17.9v-17.9h-17.9Z" transform="translate(374.862 181.089)" fill="#fff"/></g><g transform="translate(-374.76 -180.907)"><g transform="translate(0 0)" clip-path="url(#a)"><path d="M-357.837-123.991a.212.212,0,0,1-.211-.211v-1.867h-13.435v1.867a.212.212,0,0,1-.211.211.211.211,0,0,1-.211-.211v-1.867h-2.214a.211.211,0,0,1-.211-.211.211.211,0,0,1,.211-.211h3.6v-6.717a.211.211,0,0,1,.211-.211.212.212,0,0,1,.211.211v6.717h.963v-6.717a.212.212,0,0,1,.211-.211.211.211,0,0,1,.211.211v6.717h.963v-6.717a.212.212,0,0,1,.211-.211.211.211,0,0,1,.211.211v6.717h.963v-6.717a.212.212,0,0,1,.211-.211.211.211,0,0,1,.211.211v6.717h4.428v-6.717a.212.212,0,0,1,.211-.211.212.212,0,0,1,.211.211v6.717h.963v-6.717a.212.212,0,0,1,.211-.211.212.212,0,0,1,.211.211v6.717h3.946a.211.211,0,0,1,.211.211.211.211,0,0,1-.211.211h-1.867v1.867A.212.212,0,0,1-357.837-123.991Z" transform="translate(374.331 142.428)" fill="#fff"/><path d="M-359.635-170.713a.212.212,0,0,1-.211-.211v-1.868h-13.435v1.868a.211.211,0,0,1-.211.211.212.212,0,0,1-.211-.211v-1.868h-2.214a.211.211,0,0,1-.211-.211.212.212,0,0,1,.211-.211h3.946v-6.717a.211.211,0,0,1,.211-.211.212.212,0,0,1,.211.211v6.717h.963v-6.717a.212.212,0,0,1,.211-.211.211.211,0,0,1,.211.211v6.717h.963v-6.717a.212.212,0,0,1,.211-.211.211.211,0,0,1,.211.211v6.717h4.428v-6.717a.212.212,0,0,1,.211-.211.212.212,0,0,1,.211.211v6.717h.963v-6.717a.212.212,0,0,1,.211-.211.212.212,0,0,1,.211.211v6.717h.963v-6.717a.212.212,0,0,1,.211-.211.212.212,0,0,1,.211.211v6.717h3.6a.211.211,0,0,1,.211.211.211.211,0,0,1-.211.211h-1.867v1.868A.212.212,0,0,1-359.635-170.713Z" transform="translate(375.782 180.143)" fill="#fff"/></g></g></g></svg>