<?xml version="1.0" encoding="UTF-8"?>
<svg width="175px" height="24px" viewBox="0 0 175 24" version="1.1" xmlns="http://www.w3.org/2000/svg" xmlns:xlink="http://www.w3.org/1999/xlink">
    <title></title>
    <desc></desc>
    <g id="Symbols" stroke="none" stroke-width="1" fill="none" fill-rule="evenodd">
        <g id="Header-dark" transform="translate(-206.000000, -51.000000)" fill="#FFFFFF">
            <g id="Header">
                <g id="Logo" transform="translate(206.000000, 51.000000)">
                    <path d="M3.31081081,13.68 L3.31081081,20.64 L14.1891892,20.64 L14.1891892,24 L0,24 L0,0 L14.1891892,0 L14.1891892,3.36 L3.31081081,3.36 L3.31081081,10.32 L13.7162162,10.32 L13.7162162,13.68 L3.31081081,13.68 Z M24.4763514,24 C20.3762776,24 15.8445946,21.3877437 15.8445946,16.56 L15.8445946,0 L19.1554054,3.41060513e-13 L19.1554054,16.56 C19.1554054,19.1595543 22.0096403,20.64 24.4763514,20.64 C26.9097285,20.64 29.7972973,19.1595543 29.7972973,16.56 L29.7972973,0 L33.1081081,0 L33.1081081,16.56 C33.1081081,21.3539833 28.4764233,24 24.4763514,24 Z M39.0214399,13.2 L39.0214399,11.76 L43.277027,11.76 C46.1104113,11.76 47.42474,9.61938719 47.42474,7.56 C47.42474,5.53437326 46.1104113,3.36 43.277027,3.36 L38.0743243,3.36 L38.0743243,24 L34.7635135,24 L34.7635135,4.54747351e-13 L43.277027,4.54747351e-13 C48.3437849,4.54747351e-13 50.8445946,3.81259053 50.8445946,7.56 C50.8445946,10.9022841 48.6960179,14.1710306 44.6959459,14.88 L51.7905405,24 L47.7702703,24 L39.0214399,13.2 Z M52.5,11.88 C52.5,8.53771588 53.7009663,5.53303621 55.8010041,3.33860724 C57.9343758,1.14417827 60.9510967,6.60804744e-13 64.2178222,6.60804744e-13 C67.5178816,6.60804744e-13 70.4679346,1.14417827 72.6346403,3.33860724 C74.7346781,5.53303621 76.1486486,8.53771588 76.1486486,11.88 C76.1486486,15.2222841 74.7346781,18.2269638 72.6346403,20.4213928 C70.4679346,22.6495822 67.5012146,24 64.2011552,24 C60.9344298,24 57.9343758,22.6495822 55.8010041,20.4213928 C53.7009663,18.2269638 52.5,15.2222841 52.5,11.88 Z M55.8108108,11.9136 C55.8108108,14.3200446 56.6755065,16.4834139 58.1875337,18.0634028 C59.7235614,19.6676992 61.8836002,20.64 64.2356426,20.64 C66.6116853,20.64 68.7477238,19.6676992 70.3077518,18.0634028 C71.819779,16.4834139 72.8378378,14.3200446 72.8378378,11.9136 C72.8378378,9.50715543 71.819779,7.34378607 70.3077518,5.76379721 C68.7477238,4.18380836 66.6236855,3.36 64.2476428,3.36 C61.8956005,3.36 59.7235614,4.18380836 58.1875337,5.76379721 C56.6755065,7.34378607 55.8108108,9.50715543 55.8108108,11.9136 Z M92.8002343,19.400671 L94.5503545,14.24753 L95.6587838,17.52 L101.452703,5.96855898e-13 L104.763514,5.96855898e-13 L96.9594595,24 L94.3581081,24 L92.8002343,19.400671 Z M91.6206552,15.9181859 L90.4560811,12.48 L86.5540541,24 L83.9527027,24 L76.1486486,5.96855898e-13 L79.4594595,5.96855898e-13 L85.2533784,17.52 L89.1554054,5.99985528 L91.7567568,5.99985528 L93.3825463,10.7997529 L91.6206552,15.9181859 Z M104.763514,11.88 C104.763514,8.53771588 105.96448,5.53303621 108.064518,3.33860724 C110.197889,1.14417827 113.21461,6.60804744e-13 116.481336,6.60804744e-13 C119.781395,6.60804744e-13 122.731448,1.14417827 124.898154,3.33860724 C126.998192,5.53303621 128.412162,8.53771588 128.412162,11.88 C128.412162,15.2222841 126.998192,18.2269638 124.898154,20.4213928 C122.731448,22.6495822 119.764728,24 116.464669,24 C113.197943,24 110.197889,22.6495822 108.064518,20.4213928 C105.96448,18.2269638 104.763514,15.2222841 104.763514,11.88 Z M108.074324,11.9136 C108.074324,14.3200446 108.93902,16.4834139 110.451047,18.0634028 C111.987075,19.6676992 114.147114,20.64 116.499156,20.64 C118.875199,20.64 121.011237,19.6676992 122.571265,18.0634028 C124.083293,16.4834139 125.101351,14.3200446 125.101351,11.9136 C125.101351,9.50715543 124.083293,7.34378607 122.571265,5.76379721 C121.011237,4.18380836 118.887199,3.36 116.511156,3.36 C114.159114,3.36 111.987075,4.18380836 110.451047,5.76379721 C108.93902,7.34378607 108.074324,9.50715543 108.074324,11.9136 Z M129.831081,11.88 C129.831081,8.53771588 131.032047,5.53303621 133.132085,3.33860724 C135.265457,1.14417827 138.282178,6.60804744e-13 141.548903,6.60804744e-13 C144.848963,6.60804744e-13 147.799016,1.14417827 149.965721,3.33860724 C152.065759,5.53303621 153.47973,8.53771588 153.47973,11.88 C153.47973,15.2222841 152.065759,18.2269638 149.965721,20.4213928 C147.799016,22.6495822 144.832296,24 141.532236,24 C138.265511,24 135.265457,22.6495822 133.132085,20.4213928 C131.032047,18.2269638 129.831081,15.2222841 129.831081,11.88 Z M133.141892,11.9136 C133.141892,14.3200446 134.006588,16.4834139 135.518615,18.0634028 C137.054642,19.6676992 139.214681,20.64 141.566724,20.64 C143.942766,20.64 146.078805,19.6676992 147.638833,18.0634028 C149.15086,16.4834139 150.168919,14.3200446 150.168919,11.9136 C150.168919,9.50715543 149.15086,7.34378607 147.638833,5.76379721 C146.078805,4.18380836 143.954767,3.36 141.578724,3.36 C139.226682,3.36 137.054642,4.18380836 135.518615,5.76379721 C134.006588,7.34378607 133.141892,9.50715543 133.141892,11.9136 Z M155.135135,-1.70530257e-13 L163.648649,-3.13020007e-27 C171.282119,-3.13020007e-27 175,6.09192201 175,12 C175,17.908078 171.282119,24 163.648649,24 L155.135135,24 L155.135135,-1.70530257e-13 Z M158.445946,20.4 L163.648649,20.4 C169.048746,20.4 171.689189,16.0662953 171.689189,11.88 C171.689189,7.69370474 169.048746,3.36 163.648649,3.36 L158.445946,3.36 L158.445946,20.4 Z" id="EUROWOOD-Copy-3"></path>
                </g>
            </g>
        </g>
    </g>
</svg>