<?xml version="1.0" encoding="UTF-8"?>
<svg width="110px" height="15px" viewBox="0 0 110 15" version="1.1" xmlns="http://www.w3.org/2000/svg" xmlns:xlink="http://www.w3.org/1999/xlink">
    <!-- Generator: Sketch 52.5 (67469) - http://www.bohemiancoding.com/sketch -->
    <title>Combined Shape Copy</title>
    <desc>Created with Sketch.</desc>
    <g id="Symbols" stroke="none" stroke-width="1" fill="none" fill-rule="evenodd">
        <g id="Footer-light" transform="translate(-207.000000, -60.000000)" fill="#063C34">
            <g id="Footer-#4">
                <g id="Content" transform="translate(207.000000, 60.000000)">
                    <g id="Logo-Copy">
                        <path d="M2.08108108,8.55 L2.08108108,12.9 L8.91891892,12.9 L8.91891892,15 L0,15 L0,0 L8.91891892,0 L8.91891892,2.1 L2.08108108,2.1 L2.08108108,6.45 L8.62162162,6.45 L8.62162162,8.55 L2.08108108,8.55 Z M15.3851351,15 C12.8079459,15 9.95945946,13.3673398 9.95945946,10.35 L9.95945946,0 L12.0405405,2.13162821e-13 L12.0405405,10.35 C12.0405405,11.9747214 13.834631,12.9 15.3851351,12.9 C16.9146865,12.9 18.7297297,11.9747214 18.7297297,10.35 L18.7297297,0 L20.8108108,0 L20.8108108,10.35 C20.8108108,13.3462396 17.8994661,15 15.3851351,15 Z M24.5277622,8.25 L24.5277622,7.35 L27.2027027,7.35 C28.9836871,7.35 29.8098366,6.01211699 29.8098366,4.725 C29.8098366,3.45898329 28.9836871,2.1 27.2027027,2.1 L23.9324324,2.1 L23.9324324,15 L21.8513514,15 L21.8513514,4.54747351e-13 L27.2027027,4.54747351e-13 C30.3875219,4.54747351e-13 31.9594595,2.38286908 31.9594595,4.725 C31.9594595,6.81392758 30.6089256,8.85689415 28.0945946,9.3 L32.5540541,15 L30.027027,15 L24.5277622,8.25 Z M33,7.425 C33,5.33607242 33.7548931,3.45814763 35.0749168,2.08662953 C36.4158934,0.715111421 38.3121179,6.60804744e-13 40.3654882,6.60804744e-13 C42.4398113,6.60804744e-13 44.2941303,0.715111421 45.6560596,2.08662953 C46.9760834,3.45814763 47.8648649,5.33607242 47.8648649,7.425 C47.8648649,9.51392758 46.9760834,11.3918524 45.6560596,12.7633705 C44.2941303,14.1559889 42.4293349,15 40.3550119,15 C38.3016416,15 36.4158934,14.1559889 35.0749168,12.7633705 C33.7548931,11.3918524 33,9.51392758 33,7.425 Z M35.0810811,7.446 C35.0810811,8.95002786 35.6246041,10.3021337 36.5750212,11.2896267 C37.5405243,12.292312 38.898263,12.9 40.3766896,12.9 C41.8702022,12.9 43.2128549,12.292312 44.193444,11.2896267 C45.1438611,10.3021337 45.7837838,8.95002786 45.7837838,7.446 C45.7837838,5.94197214 45.1438611,4.5898663 44.193444,3.60237326 C43.2128549,2.61488022 41.8777452,2.1 40.3842326,2.1 C38.905806,2.1 37.5405243,2.61488022 36.5750212,3.60237326 C35.6246041,4.5898663 35.0810811,5.94197214 35.0810811,7.446 Z M58.3315759,12.1254194 L59.4316514,8.90470627 L60.1283784,10.95 L63.7702703,5.96855898e-13 L65.8513514,5.96855898e-13 L60.9459459,15 L59.3108108,15 L58.3315759,12.1254194 Z M57.5901261,9.94886619 L56.8581081,7.8 L54.4054054,15 L52.7702703,15 L47.8648649,5.96855898e-13 L49.9459459,5.96855898e-13 L53.5878378,10.95 L56.0405405,3.74990955 L57.6756757,3.74990955 L58.6976005,6.74984557 L57.5901261,9.94886619 Z M65.8513514,7.425 C65.8513514,5.33607242 66.6062444,3.45814763 67.9262682,2.08662953 C69.2672447,0.715111421 71.1634693,6.60804744e-13 73.2168396,6.60804744e-13 C75.2911626,6.60804744e-13 77.1454817,0.715111421 78.507411,2.08662953 C79.8274347,3.45814763 80.7162162,5.33607242 80.7162162,7.425 C80.7162162,9.51392758 79.8274347,11.3918524 78.507411,12.7633705 C77.1454817,14.1559889 75.2806862,15 73.2063632,15 C71.1529929,15 69.2672447,14.1559889 67.9262682,12.7633705 C66.6062444,11.3918524 65.8513514,9.51392758 65.8513514,7.425 Z M67.9324324,7.446 C67.9324324,8.95002786 68.4759555,10.3021337 69.4263726,11.2896267 C70.3918756,12.292312 71.7496144,12.9 73.228041,12.9 C74.7215536,12.9 76.0642063,12.292312 77.0447954,11.2896267 C77.9952125,10.3021337 78.6351351,8.95002786 78.6351351,7.446 C78.6351351,5.94197214 77.9952125,4.5898663 77.0447954,3.60237326 C76.0642063,2.61488022 74.7290965,2.1 73.235584,2.1 C71.7571574,2.1 70.3918756,2.61488022 69.4263726,3.60237326 C68.4759555,4.5898663 67.9324324,5.94197214 67.9324324,7.446 Z M81.6081081,7.425 C81.6081081,5.33607242 82.3630012,3.45814763 83.683025,2.08662953 C85.0240015,0.715111421 86.9202261,6.60804744e-13 88.9735963,6.60804744e-13 C91.0479194,6.60804744e-13 92.9022385,0.715111421 94.2641677,2.08662953 C95.5841915,3.45814763 96.472973,5.33607242 96.472973,7.425 C96.472973,9.51392758 95.5841915,11.3918524 94.2641677,12.7633705 C92.9022385,14.1559889 91.037443,15 88.96312,15 C86.9097497,15 85.0240015,14.1559889 83.683025,12.7633705 C82.3630012,11.3918524 81.6081081,9.51392758 81.6081081,7.425 Z M83.6891892,7.446 C83.6891892,8.95002786 84.2327122,10.3021337 85.1831293,11.2896267 C86.1486324,12.292312 87.5063711,12.9 88.9847977,12.9 C90.4783103,12.9 91.820963,12.292312 92.8015521,11.2896267 C93.7519692,10.3021337 94.3918919,8.95002786 94.3918919,7.446 C94.3918919,5.94197214 93.7519692,4.5898663 92.8015521,3.60237326 C91.820963,2.61488022 90.4858533,2.1 88.9923407,2.1 C87.5139141,2.1 86.1486324,2.61488022 85.1831293,3.60237326 C84.2327122,4.5898663 83.6891892,5.94197214 83.6891892,7.446 Z M97.5135135,-1.70530257e-13 L102.864865,-6.39488462e-14 C107.663046,-6.39488462e-14 110,3.80745125 110,7.5 C110,11.1925487 107.663046,15 102.864865,15 L97.5135135,15 L97.5135135,-1.70530257e-13 Z M99.5945946,12.75 L102.864865,12.75 C106.259212,12.75 107.918919,10.0414345 107.918919,7.425 C107.918919,4.80856546 106.259212,2.1 102.864865,2.1 L99.5945946,2.1 L99.5945946,12.75 Z" id="Combined-Shape-Copy"></path>
                    </g>
                </g>
            </g>
        </g>
    </g>
</svg>