<svg xmlns="http://www.w3.org/2000/svg" xmlns:xlink="http://www.w3.org/1999/xlink" width="18.802" height="18.802" viewBox="0 0 18.802 18.802"><defs><clipPath id="a"><rect width="18.353" height="18.353" fill="none"/></clipPath></defs><g transform="translate(626.845 83.105)"><g transform="translate(-626.845 -83.105)"><path d="M-608.043-64.3h-18.8V-83.1h18.8Zm-18.353-.449h17.9v-17.9h-17.9Z" transform="translate(626.845 83.105)" fill="#fff"/></g><g transform="translate(-626.64 -82.921)"><g transform="translate(0 0)" clip-path="url(#a)"><path d="M-617.752-74.943a.232.232,0,0,1-.232-.232.232.232,0,0,1,.232-.231h2.011v-4.342H-623.2a3.439,3.439,0,0,1-3.435-3.435V-96.958a3.439,3.439,0,0,1,3.435-3.435h11.853a3.439,3.439,0,0,1,3.435,3.435v1.281a.553.553,0,0,1-.552.552h-12.9v10.108h5.623V-90h-.729a.232.232,0,0,1-.232-.232.232.232,0,0,1,.232-.232h4.485a.232.232,0,0,1,.232.232.232.232,0,0,1-.232.232h-.729v4.983h4.253a.552.552,0,0,1,.552.552v1.282a3.439,3.439,0,0,1-3.435,3.435h-1.37v4.342h2.011a.232.232,0,0,1,.232.231.232.232,0,0,1-.232.232Zm2.474-.463h2.1v-4.342h-2.1ZM-623.2-99.93a2.975,2.975,0,0,0-2.972,2.972v13.775a2.975,2.975,0,0,0,2.972,2.972h11.853a2.975,2.975,0,0,0,2.972-2.972v-1.37h-12.582a.873.873,0,0,1-.872-.872v-9.29a.873.873,0,0,1,.872-.873h12.582v-1.37a2.975,2.975,0,0,0-2.972-2.972Zm7.92,14.913h2.1V-90h-2.1v4.983Z" transform="translate(626.468 96.972)" fill="#fff"/></g></g></g></svg>