<?xml version="1.0" encoding="UTF-8"?>
<svg width="60px" height="60px" viewBox="0 0 60 60" version="1.1" xmlns="http://www.w3.org/2000/svg" xmlns:xlink="http://www.w3.org/1999/xlink">
    <!-- Generator: Sketch 52.5 (67469) - http://www.bohemiancoding.com/sketch -->
    <title>Artboard</title>
    <desc>Created with Sketch.</desc>
    <g id="Artboard" stroke="none" stroke-width="1" fill="none" fill-rule="evenodd">
        <g id="marker" transform="translate(0.000000, 6.600000)" fill="#063C34" fill-rule="nonzero">
            <path d="M50.6192914,26.4806874 L59.8578234,45.4009734 C60.2335098,46.1704673 59.8386077,46.8 58.9801761,46.8 L1.01986565,46.8 C0.16143404,46.8 -0.233566071,46.1704673 0.142218348,45.4009734 L9.3808484,26.4806874 C9.52780922,26.1797511 9.92280933,25.9334505 10.2584957,25.9334505 L18.1801646,25.9334505 C18.4242823,25.9334505 18.7539883,26.0858245 18.9137923,26.2698658 C19.4512434,26.8890382 19.9986945,27.4939408 20.544577,28.0926859 C21.0630085,28.6610344 21.5841852,29.2368109 22.1012441,29.8260754 L12.7001631,29.8260754 C12.3643786,29.8260754 11.9693785,30.0722783 11.8225158,30.3733124 L5.70231795,42.9074728 L54.2974297,42.9074728 L48.1777221,30.3733124 C48.0308593,30.0722783 47.6358592,29.8260754 47.2999767,29.8260754 L37.8776211,29.8260754 C38.394582,29.2368109 38.9159547,28.6610344 39.4343863,28.0926859 C39.9819354,27.4921815 40.5324258,26.8884518 41.0711514,26.2690839 C41.2307593,26.0855313 41.559779,25.9334505 41.8035046,25.9334505 L49.7418401,25.9334505 C50.0774285,25.9334505 50.4723305,26.1795556 50.6192914,26.4806874 Z M43.5825247,13.5506867 C43.5825247,23.8890576 34.949385,25.8279908 30.8891878,35.763191 C30.5592857,36.5705097 29.4191874,36.5664047 29.0891873,35.7592814 C25.4265392,26.8014647 18.046243,24.3450069 16.6341838,16.3648668 C15.2438893,8.50875663 20.6999692,0.813230552 28.6664421,0.0625023492 C36.7684051,-0.701029577 43.5825247,5.63153532 43.5825247,13.5506867 Z M37.1681111,13.5506867 C37.1681111,9.59853914 33.9544828,6.3946763 29.9900699,6.3946763 C26.025657,6.3946763 22.8120286,9.59853914 22.8120286,13.5506867 C22.8120286,17.5029321 26.025657,20.7066972 29.9900699,20.7066972 C33.9544828,20.7066972 37.1681111,17.5029321 37.1681111,13.5506867 Z" id="Shape"></path>
        </g>
    </g>
</svg>