<?xml version="1.0" encoding="UTF-8"?>
<svg width="60px" height="60px" viewBox="0 0 60 60" version="1.1" xmlns="http://www.w3.org/2000/svg" xmlns:xlink="http://www.w3.org/1999/xlink">
    <!-- Generator: Sketch 52.5 (67469) - http://www.bohemiancoding.com/sketch -->
    <title>partners</title>
    <desc>Created with Sketch.</desc>
    <g id="partners" stroke="none" stroke-width="1" fill="none" fill-rule="evenodd">
        <path d="M52,20 L47,20 C48.4558203,18.5478125 50,16.2139063 50,14 L50,4.99940019 L50,1.5 C50,0.852773438 49.1472266,0 48.5,0 L39.5,0 C36.3323047,0 34,1.83170488 34,4.99940019 C34,8.32774277 34,9.99460938 34,10 L34,14 C34,16.2139063 35.0441797,18.5476953 36.5,20 L23,20 C24.4558203,18.5478125 26,16.2139063 26,14 L26,4.99940019 L26,1.5 C26,0.852773438 25.1472266,0 24.5,0 L15.5,0 C12.3323047,0 10,2.02253906 10,5.19023438 C9.99992188,8.39135417 9.99992188,9.99460938 10,10 L10,14 C10,16.2139063 11.5441797,18.5476953 13,20 L9,20.1887109 C3.77214844,20.1887109 0,23.870625 0,29.0985937 L0,44 C0,44.6471094 0.852773438,45 1.5,45 L26,44.9938605 C26.5,44.9938605 27,44.8179297 27,44 C27,43.1820703 26.5,42.9941604 26,42.9941604 L7,42.9941604 L7,35.9840234 C7,35.3369141 6.64722656,34.9953598 6,34.9953598 C5.35277344,34.9953598 5,35.3528906 5,36 L5,42.9941604 L2,43 L2,29 C2,25.0644922 5.064375,22 9,22 L13,22 L17,27.9961806 L17,35.0542969 C17,35.7014063 17.3527734,36.0069141 18,36.0069141 C18.6472266,36.0069141 19,35.7014063 19,35.0542969 L18.9567188,27.9961806 L23,22 L27.5,22 C30.9264453,22 34,25.5735547 34,29 L34,34 C34,34.6471094 34.3527734,34.9953598 35,34.9953598 C35.6472266,34.9953598 36.0424219,34.6471094 36.0424219,34 L36.0424219,29 C36.0424219,26.5544141 34.1503516,23.5609375 32.5,22 L36,22 L40,28 C40.211875,28.3171094 40.4560938,29 41.4780469,29 C42.5,29 42.77875,28.2988281 43,28 L47,22 L52,22 C55.4264453,22 58,24.5697353 58,27.9961806 L58,34 C58,34.6471094 58.3527734,35 59,35 C59.6472266,35 60,34.6471094 60,34 L60,28 C60,23.2810937 56.7187891,20 52,20 Z M17.954707,26 L15.5,22 L20.5,22 L17.954707,26 Z M36.0692578,4.99940019 C36.069375,3.12404863 37.6247656,2 39.5,2 L48,2 L48,4.99940019 C48,6.78287676 45.7835937,8.5 44,8.5 L36.0692578,8.5 L36.0692578,4.99940019 Z M12.0692578,4.99940019 C12.069375,3.12404863 13.6247656,2 15.5,2 L24,2 L24,4.99940019 C24,6.78287676 21.7835937,8.5 20,8.5 L12.0692578,8.5 L12.0692578,4.99940019 Z M41.5,26.5 L38.5,22 L44.5,22 L41.5,26.5 Z M42,20 C38.8717969,20 36,17.1282031 36,14 L36,10.5 L45,10.5 C46.2051562,10.5 47.086875,9.65118332 48,8.99880051 L48,14 C48,17.1282031 45.1282031,20 42,20 Z M18,20 C14.8717969,20 12,17.1282031 12,14 L12,10.5 L21,10.5 C22.2051562,10.5 23.086875,9.65118332 24,8.99880051 L24,14 C24,17.1282031 21.1282031,20 18,20 Z M53,38.9947601 L57.643945,39.0479152 C58.9494976,39.0628587 60,40.1254541 60,41.4310922 L60,50 C59.997168,50.6107856 59.5,51.5 58.5,51.5 L58.5,58.5 C58.5,59.2976888 58.3007568,60 57.5,60 L33.5,60 C32.6992432,60 32.5,59.2976888 32.5,58.5 L32.5,51.5 C31.5,51.5 31.003068,50.6107856 31,50 L31,41.3780932 C31,40.0618147 32.0670546,38.9947601 33.3833331,38.9947601 L38,38.9947601 L38,37.3919759 C38,37.3891002 38.0000052,37.3862245 38.0000156,37.3833488 C38.0047802,36.0670789 39.0756903,35.0038938 40.3919602,35.0086584 L50.625294,35.0457009 C51.9381961,35.0504534 53,36.1161077 53,37.4290184 L53,38.9947601 Z M51,38.9947601 L51,36.9948311 L40,36.9948311 L40,38.9947601 L51,38.9947601 Z M56.5,58 L56.5,51.5 L49,52.9931187 L49,53.6166669 C49,54.9329454 47.9329454,56 46.6166669,56 L44.3833331,56 C43.0670546,56 42,54.9329454 42,53.6166669 L42,52.9931187 L34.5,51.5 L34.5,58 L56.5,58 Z M45.5,53.9927399 C46.3284271,53.9927399 47,53.321167 47,52.4927399 L47,50.4726637 C47,49.6558647 46.3378536,48.9937184 45.5210547,48.9937184 C44.7022483,48.9937184 44.0365489,49.6538339 44.0296519,50.4726112 L44.0126348,52.4927931 C44.0125997,52.4969693 44.0125821,52.5011456 44.0125821,52.505322 C44.0125821,53.3268002 44.6785218,53.9927399 45.5,53.9927399 Z M58,48.9937184 L58,41 L33,41 L33,49 L42,50.5454545 L42,49.3833331 C42,48.0670546 43.0670546,47 44.3833331,47 L46.6166669,47 C47.9329454,47 49,48.0670546 49,49.3833331 L49,50.5454545 C55.0001573,49.6709874 58.0001573,49.153742 58,48.9937184 Z" id="Shape" fill="#FFFFFF" fill-rule="nonzero"></path>
    </g>
</svg>