<?xml version="1.0" encoding="UTF-8"?>
<svg width="30px" height="30px" viewBox="0 0 30 30" version="1.1" xmlns="http://www.w3.org/2000/svg" xmlns:xlink="http://www.w3.org/1999/xlink">
    <!-- Generator: Sketch 52.5 (67469) - http://www.bohemiancoding.com/sketch -->
    <title>wood copy</title>
    <desc>Created with Sketch.</desc>
    <g id="wood-copy" stroke="none" stroke-width="1" fill="none" fill-rule="evenodd">
        <path d="M29.1290323,15.6216216 C29.1290323,11.9018811 26.1459708,8.87567568 22.4792619,8.87567568 C21.1793597,8.87567568 19.9075911,9.26635676 18.8289855,9.98454054 C18.5489279,8.7403027 18.1766047,7.5416 17.7269779,6.46899459 C16.5188297,3.58717838 14.936632,2 13.2718875,2 C11.6052888,2 10.0230911,3.58062703 8.81698897,6.4507027 C8.39210701,7.46175135 8.03615248,8.58735135 7.76191339,9.75945946 L6.09256527,3.54994595 C6.03182217,3.32421622 5.82970752,3.16756757 5.59907558,3.16756757 C5.36844364,3.16756757 5.16626504,3.32421622 5.10558589,3.55001081 L0.501898713,20.6743351 C0.459954008,20.8303351 0.492115878,20.9972973 0.588857249,21.1257946 C0.68566256,21.2543568 0.835985734,21.3297297 0.995388402,21.3297297 L5.08755478,21.3297297 L5.08755478,25.4810811 C5.08755478,25.7676541 5.31658822,26 5.59907558,26 C5.88156294,26 6.11059638,25.7676541 6.11059638,25.4810811 L6.11059638,21.3297297 L10.2027628,21.3297297 C10.3621654,21.3297297 10.5124886,21.2543568 10.60923,21.1257297 C10.6880042,21.0211027 10.7231073,20.8910486 10.7111505,20.7620973 C11.3440296,21.0575568 12.0344548,21.2469622 12.7603667,21.3079351 L12.7603667,25.4810811 C12.7603667,25.7676541 12.9894002,26 13.2718875,26 C13.5543749,26 13.7834083,25.7676541 13.7834083,25.4810811 L13.7834083,21.308 C15.1113163,21.1964973 16.3208073,20.6550054 17.2758166,19.8212973 C18.4276335,21.2889297 20.126522,22.2031351 21.9677411,22.3468757 L21.9677411,25.4810811 C21.9677411,25.7676541 22.1967745,26 22.4792619,26 C22.7617493,26 22.9907827,25.7676541 22.9907827,25.4810811 L22.9907827,22.3477838 C26.4193787,22.0819676 29.1290323,19.1667459 29.1290323,15.6216216 Z M9.53305415,20.2918919 L6.11059638,20.2918919 L6.11059638,19.4690162 L7.01579637,18.5507243 C7.21554524,18.3480216 7.21554524,18.0195459 7.01579637,17.8168432 C6.81598356,17.6142703 6.49219089,17.6142703 6.29237808,17.8168432 L6.11059638,18.0011892 L6.11059638,14.5837838 C6.11059638,14.2972108 5.88156294,14.0648649 5.59907558,14.0648649 C5.31658822,14.0648649 5.08755478,14.2972108 5.08755478,14.5837838 L5.08755478,16.9634162 L4.42622233,16.2925189 C4.22640952,16.0899459 3.90261685,16.0899459 3.70280404,16.2925189 C3.50305517,16.4952216 3.50305517,16.8236973 3.70280404,17.0264 L5.08755478,18.4311784 L5.08755478,19.2536649 C5.08755478,19.2538595 5.08755478,19.2541189 5.08755478,19.2543135 L5.08755478,20.2918919 L1.66509701,20.2918919 L5.59907558,5.65863784 L7.33217198,12.1051027 C7.19732231,13.1132973 7.12564546,14.1230486 7.12564546,15.0945297 C7.12564546,17.0669405 8.03333911,18.8280865 9.44692684,19.9714595 L9.53305415,20.2918919 Z M13.7834083,19.4690162 L15.6796799,17.5453189 C15.8794287,17.3426162 15.8794287,17.0141405 15.6796799,16.8114378 C15.4798671,16.6088649 15.1560744,16.6088649 14.9562616,16.8114378 L13.7834083,18.0011892 L13.7834083,15.8365838 L15.1681591,14.4318054 C15.3679079,14.2291027 15.3679079,13.900627 15.1681591,13.6979243 C14.9683463,13.4953514 14.6445536,13.4953514 14.4447408,13.6979243 L13.7834083,14.3687568 L13.7834083,13.027027 C13.7834083,12.7404541 13.5543749,12.5081081 13.2718875,12.5081081 C12.9894002,12.5081081 12.7603667,12.7404541 12.7603667,13.027027 L12.7603667,15.6212973 C12.7603667,15.6214919 12.7603667,15.6217514 12.7603667,15.6219459 L12.7603667,16.9633514 L11.5875135,15.7735351 C11.3877007,15.5709622 11.063908,15.5709622 10.8640952,15.7735351 C10.6643463,15.9762378 10.6643463,16.3047135 10.8640952,16.5074162 L12.7603667,18.4311784 L12.7603667,19.2536649 C12.7603667,19.2538595 12.7603667,19.2541189 12.7603667,19.2543135 L12.7603667,20.2658162 C10.174757,20.0045405 8.14868705,17.7851243 8.14868705,15.0945297 C8.14868705,12.3349189 8.75029945,9.25565405 9.75805936,6.85772973 C10.7782876,4.43016216 12.0590078,3.03783784 13.2718875,3.03783784 C14.4825294,3.03783784 15.7631856,4.43651892 16.7855239,6.87517838 C17.7934117,9.27932973 18.395088,12.3520432 18.395088,15.0945946 C18.395088,17.7852541 16.3690181,20.0046703 13.7834083,20.2658811 L13.7834083,19.4690162 Z M22.9907827,21.3059243 L22.9907827,20.5069189 L24.8870542,18.5832216 C25.0868031,18.3805189 25.0868031,18.0520432 24.8870542,17.8493405 C24.6872414,17.6467676 24.3634487,17.6467676 24.1636359,17.8493405 L22.9907827,19.039027 L22.9907827,15.6216216 C22.9907827,15.3350486 22.7617493,15.1027027 22.4792619,15.1027027 C22.1967745,15.1027027 21.9677411,15.3350486 21.9677411,15.6216216 L21.9677411,18.0012541 L20.7948878,16.8114378 C20.595075,16.6088649 20.2712824,16.6088649 20.0714696,16.8114378 C19.8717207,17.0141405 19.8717207,17.3426162 20.0714696,17.5453189 L21.9677411,19.4690162 L21.9677411,20.2915027 C21.9677411,20.2916973 21.9677411,20.2919568 21.9677411,20.2921514 L21.9677411,21.3059892 C20.3987789,21.1610811 18.9584642,20.3539676 17.9992349,19.0747676 C18.8848052,17.9941838 19.4181296,16.6064 19.4181296,15.0945297 C19.4181296,13.8003459 19.28961,12.4354595 19.0522004,11.0952216 C20.0308037,10.3324108 21.2399749,9.91351351 22.4792619,9.91351351 C25.5818273,9.91351351 28.1059907,12.4741838 28.1059907,15.6216216 C28.1059907,18.5941189 25.8545319,21.0428324 22.9907827,21.3059243 Z" id="Shape" fill="#063C34" fill-rule="nonzero"></path>
    </g>
</svg>