<?xml version="1.0" encoding="UTF-8"?>
<svg width="60px" height="60px" viewBox="0 0 60 60" version="1.1" xmlns="http://www.w3.org/2000/svg" xmlns:xlink="http://www.w3.org/1999/xlink">
    <!-- Generator: Sketch 52.5 (67469) - http://www.bohemiancoding.com/sketch -->
    <title>products</title>
    <desc>Created with Sketch.</desc>
    <g id="products" stroke="none" stroke-width="1" fill="none" fill-rule="evenodd">
        <path d="M60,33.3783784 C60,25.6289189 53.7516957,19.3243243 46.0714269,19.3243243 C43.3486588,19.3243243 40.6848192,20.1382432 38.4255778,21.6344595 C37.8389706,19.0422973 37.0591044,16.545 36.1173186,14.3104054 C33.586738,8.30662162 30.2726751,5 26.7857104,5 C23.2948618,5 19.9807989,8.29297297 17.4545039,14.2722973 C16.5645485,16.3786486 15.818968,18.7236486 15.2445483,21.1655405 L11.7479408,8.22905405 C11.6207086,7.75878378 11.1973603,7.43243243 10.7142799,7.43243243 C10.2311995,7.43243243 9.80771732,7.75878378 9.68061909,8.22918919 L0.037760818,43.9048649 C-0.0500963351,44.2298649 0.0172697442,44.5777027 0.219903697,44.8454054 C0.422671578,45.1132432 0.737537686,45.2702703 1.07142165,45.2702703 L9.64285123,45.2702703 L9.64285123,53.9189189 C9.64285123,54.5159459 10.1225834,55 10.7142799,55 C11.3059764,55 11.7857086,54.5159459 11.7857086,53.9189189 L11.7857086,45.2702703 L20.3571382,45.2702703 C20.6910222,45.2702703 21.0058883,45.1132432 21.2085222,44.8452703 C21.3735223,44.6272973 21.447049,44.3563514 21.4220044,44.0877027 C22.7476296,44.7032432 24.1937904,45.0978378 25.7142817,45.2248649 L25.7142817,53.9189189 C25.7142817,54.5159459 26.1940139,55 26.7857104,55 C27.3774069,55 27.8571391,54.5159459 27.8571391,53.9189189 L27.8571391,45.225 C30.638568,44.9927027 33.1719611,43.8645946 35.1723185,42.1277027 C37.5849081,45.1852703 41.1433906,47.0898649 44.9999982,47.3893243 L44.9999982,53.9189189 C44.9999982,54.5159459 45.4797304,55 46.0714269,55 C46.6631234,55 47.1428556,54.5159459 47.1428556,53.9189189 L47.1428556,47.3912162 C54.3243743,46.8374324 60,40.7640541 60,33.3783784 Z M18.9543702,43.1081081 L11.7857086,43.1081081 L11.7857086,41.3937838 L13.6817356,39.4806757 C14.1001285,39.0583784 14.1001285,38.3740541 13.6817356,37.9517568 C13.2632088,37.5297297 12.5849944,37.5297297 12.1664676,37.9517568 L11.7857086,38.3358108 L11.7857086,31.2162162 C11.7857086,30.6191892 11.3059764,30.1351351 10.7142799,30.1351351 C10.1225834,30.1351351 9.64285123,30.6191892 9.64285123,31.2162162 L9.64285123,36.1737838 L8.25762785,34.7760811 C7.83910102,34.3540541 7.16088665,34.3540541 6.74235982,34.7760811 C6.32396691,35.1983784 6.32396691,35.8827027 6.74235982,36.305 L9.64285123,39.2316216 L9.64285123,40.9451351 C9.64285123,40.9455405 9.64285123,40.9460811 9.64285123,40.9464865 L9.64285123,43.1081081 L2.47418968,43.1081081 L10.7142799,12.6221622 L14.3444143,26.0522973 C14.0619589,28.1527027 13.9118249,30.2563514 13.9118249,32.2802703 C13.9118249,36.3894595 15.8130752,40.0585135 18.7739684,42.4405405 L18.9543702,43.1081081 Z M27.8571391,41.3937838 L31.8290592,37.3860811 C32.2474521,36.9637838 32.2474521,36.2794595 31.8290592,35.8571622 C31.4105324,35.4351351 30.732318,35.4351351 30.3137912,35.8571622 L27.8571391,38.3358108 L27.8571391,33.8262162 L30.7576305,30.8995946 C31.1760234,30.4772973 31.1760234,29.792973 30.7576305,29.3706757 C30.3391037,28.9486486 29.6608893,28.9486486 29.2423625,29.3706757 L27.8571391,30.7682432 L27.8571391,27.972973 C27.8571391,27.3759459 27.3774069,26.8918919 26.7857104,26.8918919 C26.1940139,26.8918919 25.7142817,27.3759459 25.7142817,27.972973 L25.7142817,33.3777027 C25.7142817,33.3781081 25.7142817,33.3786486 25.7142817,33.3790541 L25.7142817,36.1736486 L23.2576296,33.6948649 C22.8391028,33.2728378 22.1608884,33.2728378 21.7423616,33.6948649 C21.3239687,34.1171622 21.3239687,34.8014865 21.7423616,35.2237838 L25.7142817,39.2316216 L25.7142817,40.9451351 C25.7142817,40.9455405 25.7142817,40.9460811 25.7142817,40.9464865 L25.7142817,43.0537838 C20.2984775,42.5094595 16.0546823,37.8856757 16.0546823,32.2802703 C16.0546823,26.5310811 17.3148164,20.1159459 19.4256649,15.1202703 C21.5626294,10.0628378 24.245219,7.16216216 26.7857104,7.16216216 C29.3215143,7.16216216 32.0039699,10.0760811 34.1453541,15.1566216 C36.2564704,20.1652703 37.5167384,26.5667568 37.5167384,32.2804054 C37.5167384,37.8859459 33.2729433,42.5097297 27.8571391,43.0539189 L27.8571391,41.3937838 Z M47.1428556,45.2206757 L47.1428556,43.5560811 L51.1147757,39.5483784 C51.5331686,39.1260811 51.5331686,38.4417568 51.1147757,38.0194595 C50.6962489,37.5974324 50.0180345,37.5974324 49.5995077,38.0194595 L47.1428556,40.497973 L47.1428556,33.3783784 C47.1428556,32.7813514 46.6631234,32.2972973 46.0714269,32.2972973 C45.4797304,32.2972973 44.9999982,32.7813514 44.9999982,33.3783784 L44.9999982,38.3359459 L42.5433462,35.8571622 C42.1248193,35.4351351 41.446605,35.4351351 41.0280781,35.8571622 C40.6096852,36.2794595 40.6096852,36.9637838 41.0280781,37.3860811 L44.9999982,41.3937838 L44.9999982,43.1072973 C44.9999982,43.1077027 44.9999982,43.1082432 44.9999982,43.1086486 L44.9999982,45.2208108 C41.7136586,44.9189189 38.6967832,43.2374324 36.6875865,40.5724324 C38.5424975,38.3212162 39.6595958,35.43 39.6595958,32.2802703 C39.6595958,29.5840541 39.3903994,26.7405405 38.8931225,23.9483784 C40.9428995,22.3591892 43.4756231,21.4864865 46.0714269,21.4864865 C52.5700438,21.4864865 57.8571426,26.8212162 57.8571426,33.3783784 C57.8571426,39.5710811 53.1412492,44.6725676 47.1428556,45.2206757 Z" id="Shape" fill="#FFFFFF" fill-rule="nonzero"></path>
    </g>
</svg>