<?xml version="1.0" encoding="UTF-8"?>
<svg width="30px" height="30px" viewBox="0 0 30 30" version="1.1" xmlns="http://www.w3.org/2000/svg" xmlns:xlink="http://www.w3.org/1999/xlink">
    <!-- Generator: Sketch 52.5 (67469) - http://www.bohemiancoding.com/sketch -->
    <title>services copy</title>
    <desc>Created with Sketch.</desc>
    <g id="services-copy" stroke="none" stroke-width="1" fill="none" fill-rule="evenodd">
        <path d="M24.1740638,22.1827109 L24.1740638,27.9531172 C24.1740638,28.0779688 24.0717715,28.1795781 23.9460808,28.1795781 L21.7264256,28.1795781 L21.7264256,20.1023984 C21.7264256,19.8758828 21.5415506,19.6922422 21.3135125,19.6922422 C21.0854744,19.6922422 20.9005995,19.8758828 20.9005995,20.1023984 L20.9005995,28.1796328 L16.4309537,28.1796328 L17.7271152,26.7632266 C17.8687168,26.6084609 17.9354986,26.3880156 17.9057138,26.1733125 C17.9051633,26.1691563 17.9045026,26.165 17.9037869,26.1608438 L16.6692871,18.9165547 L17.0018748,18.4192266 C17.1857587,18.5489453 17.3274154,18.6738516 17.5930561,18.6738516 C17.8632664,18.6738516 18.1159141,18.523625 18.2402284,18.2763281 L19.5422808,15.6840859 L22.5084278,16.8251406 C22.6157301,16.8708594 24.1739537,17.5679063 24.1739537,19.4084688 L24.1739537,22.1827656 L24.9997798,22.1827656 L24.9997798,19.4084688 C24.9997798,16.9834063 22.9093938,16.1018984 22.8204249,16.0655313 C22.8178373,16.0644375 22.8151946,16.0633984 22.812552,16.0624141 L17.875874,14.1633359 L17.875874,13.0132578 C18.6599683,12.4075391 19.2036371,11.509625 19.3401186,10.4852188 C19.7310647,10.457875 20.0938225,10.3128438 20.3900739,10.0598047 C20.7769458,9.72932813 20.9989279,9.24835156 20.9989279,8.74041406 C20.9989279,8.31888281 20.8458197,7.91638281 20.5729668,7.60275 L20.5729668,6.08336719 C20.5729117,3.28041406 18.2772255,1 15.4554329,1 C12.6336404,1 10.3379541,3.28041406 10.3379541,6.08336719 L10.3379541,7.6425625 C10.0621833,7.95302344 9.91221324,8.33517969 9.91221324,8.74035938 C9.91221324,9.24846094 10.1340852,9.72938281 10.5210673,10.0599141 C10.8170984,10.3128438 11.179636,10.4577109 11.5704719,10.4851094 C11.7080546,11.5287109 12.2675792,12.4600938 13.1184553,13.0739609 L13.1184553,14.1633359 L8.18711769,16.0623594 C8.1845301,16.0633438 8.18194252,16.0643828 8.17935493,16.0654219 C8.09033088,16.1017891 6,16.9832969 6,19.4083594 L6,27.9530078 C6,28.5302344 6.47275788,28.9998359 7.05386414,28.9998359 L12.9150268,29 L12.9150268,28.1796875 L10.0995106,28.1795234 L10.0995106,20.1023984 C10.0995106,19.8758828 9.91463567,19.6922422 9.68659757,19.6922422 C9.45855947,19.6922422 9.27368455,19.8758828 9.27368455,20.1023984 L9.27368455,28.1796328 L7.0539192,28.1796328 C6.92822847,28.1796328 6.82593615,28.0780234 6.82593615,27.9531719 L6.82593615,19.4084141 C6.82593615,17.5616719 8.39462025,16.8662109 8.49096662,16.8253047 L11.4548012,15.6839766 L12.7569637,18.2762734 C12.8815534,18.5241719 13.1345314,18.6738516 13.4041911,18.6738516 C13.6685105,18.6738516 13.8087908,18.5508594 13.9953725,18.4192266 L14.3279602,18.9165547 L13.0935704,26.1608984 C13.0928547,26.165 13.0922491,26.1691016 13.0916435,26.1732578 C13.0618037,26.3878516 13.1285855,26.6084063 13.2702422,26.7632813 L14.5664037,28.1796875 L12.9150268,28.1796875 L12.9150268,29 L23.9461359,29 C24.5272421,29 25,28.5303438 25,27.9531719 L25,22.1827656 L24.1740638,22.1827109 Z M18.7688122,15.3865859 L17.5549029,17.8032266 C17.5247328,17.7819531 16.8814143,17.3279375 16.0950077,16.7732422 C16.436239,16.3548281 16.0370347,16.8442813 17.5944325,14.9348125 L18.7688122,15.3865859 Z M16.3281108,17.9439922 L16.0133059,18.4146875 L14.983611,18.4146875 L14.6688061,17.9439922 L15.498486,17.3586719 L16.3281108,17.9439922 Z M13.9442263,14.2956797 L13.9442263,13.5280859 C14.4458881,13.7289531 14.9820144,13.8220859 15.5055881,13.8220859 C16.0469446,13.8220859 16.5778406,13.7074609 17.0499929,13.5023828 L17.0499929,14.2990156 L15.498486,16.2013203 L13.9442263,14.2956797 Z M20.1730468,8.74041406 C20.1729917,9.00909375 20.0558345,9.26333594 19.8515802,9.43784375 C19.7165301,9.55323438 19.553402,9.62700781 19.3747483,9.65588281 L19.3747483,7.82510938 C19.849323,7.90167188 20.1730468,8.2926875 20.1730468,8.74041406 Z M11.5363378,9.65588281 C11.0563677,9.5785 10.7380393,9.1843125 10.7380393,8.74035938 C10.7380393,8.301875 11.1039903,7.94498438 11.5363378,7.84572656 L11.5363378,9.65588281 Z M11.558525,7.0099375 C11.4269984,7.02492188 11.2762576,7.06030469 11.1638902,7.09825781 L11.1638902,6.08336719 C11.1638902,3.73273438 13.0890559,1.82036719 15.455488,1.82036719 C17.82192,1.82036719 19.7470857,3.73273438 19.7470857,6.08336719 L19.7470857,7.07009375 C19.6270657,7.03383594 19.5025861,7.00988281 19.3748033,6.99861719 C19.3748033,6.60284375 19.3782718,6.6791875 18.074843,5.28722656 C17.8351332,5.03139844 17.4386266,4.97780469 17.1368698,5.17364063 C15.6982808,6.10710156 13.9434005,6.57604688 12.3242309,6.46054688 C11.9690706,6.43413281 11.6455671,6.6665 11.558525,7.0099375 Z M12.3622189,9.9788125 L12.3622189,7.419875 L12.3622189,7.28507031 C14.1446268,7.38875781 16.013361,6.86277344 17.5230261,5.90240625 C18.120814,6.53995313 18.4445378,6.87436719 18.5489222,7.00157031 C18.5489222,7.32335156 18.5489222,9.6104375 18.5489222,9.97875781 C18.5489222,11.6438281 17.1821251,13.0016641 15.5056431,13.0016641 C13.6230901,13.0017188 12.3622189,11.5510781 12.3622189,9.9788125 Z M13.4421241,17.8032266 L12.2282149,15.3865859 L13.4005024,14.9355781 L14.9002576,16.7744453 C14.1375797,17.3124063 13.5113283,17.7543906 13.4421241,17.8032266 Z M13.915873,26.2493281 L15.1110635,19.2349453 L15.8857433,19.2349453 L17.0809338,26.2493281 L15.4984309,27.9787109 L13.915873,26.2493281 Z" id="Shape" fill="#063C34" fill-rule="nonzero"></path>
    </g>
</svg>