<?xml version="1.0" encoding="UTF-8"?>
<svg width="60px" height="60px" viewBox="0 0 60 60" version="1.1" xmlns="http://www.w3.org/2000/svg" xmlns:xlink="http://www.w3.org/1999/xlink">
    <title></title>
    <desc></desc>
    <g id="assistant" stroke="none" stroke-width="1" fill="none" fill-rule="evenodd">
        <path d="M49.2177167,45.3915234 L49.2177167,57.7566797 C49.2177167,58.0242188 48.9969807,58.2419531 48.7257533,58.2419531 L43.935971,58.2419531 L43.935971,40.9337109 C43.935971,40.4483203 43.5370303,40.0548047 43.0449481,40.0548047 C42.5528659,40.0548047 42.1539253,40.4483203 42.1539253,40.9337109 L42.1539253,58.2420703 L32.5089001,58.2420703 L35.3058802,55.2069141 C35.6114416,54.8752734 35.7555497,54.4028906 35.6912772,53.9428125 C35.6900892,53.9339063 35.6886636,53.925 35.6871191,53.9160938 L33.0231985,38.3926172 L33.7408877,37.3269141 C34.1376898,37.6048828 34.4433701,37.8725391 35.0165948,37.8725391 C35.5996801,37.8725391 36.1448673,37.550625 36.4131245,37.0207031 L39.2228166,31.4658984 L45.6234494,33.9110156 C45.8549965,34.0089844 49.2174791,35.5026563 49.2174791,39.4467188 L49.2174791,45.3916406 L50.9995248,45.3916406 L50.9995248,39.4467188 C50.9995248,34.2501563 46.488692,32.3612109 46.2967063,32.2832813 C46.2911225,32.2809375 46.28542,32.2787109 46.2797174,32.2766016 L35.626886,28.2071484 L35.626886,25.7426953 C37.318879,24.4447266 38.492059,22.520625 38.7865718,20.3254688 C39.6301922,20.266875 40.4129855,19.9560938 41.0522646,19.4138672 C41.8870936,18.7057031 42.3661075,17.6750391 42.3661075,16.5866016 C42.3661075,15.6833203 42.0357163,14.8208203 41.4469284,14.14875 L41.4469284,10.8929297 C41.4468096,4.88660156 36.4929602,0 30.4038289,0 C24.3146977,0 19.3608483,4.88660156 19.3608483,10.8929297 L19.3608483,14.2340625 C18.7657639,14.8993359 18.4421444,15.7182422 18.4421444,16.5864844 C18.4421444,17.6752734 18.9209206,18.7058203 19.7559872,19.4141016 C20.3947912,19.9560938 21.1771093,20.2665234 22.0204921,20.3252344 C22.3173809,22.5615234 23.5247762,24.5573438 25.3608773,25.8727734 L25.3608773,28.2071484 L14.7195698,32.2764844 C14.713986,32.2785938 14.7084023,32.2808203 14.7028185,32.2830469 C14.510714,32.3609766 10,34.2499219 10,39.4464844 L10,57.7564453 C10,58.9933594 11.0201617,59.9996484 12.2741279,59.9996484 L24.9219,60 L24.9219,58.2421875 L18.8463123,58.2418359 L18.8463123,40.9337109 C18.8463123,40.4483203 18.4473717,40.0548047 17.9552895,40.0548047 C17.4632073,40.0548047 17.0642667,40.4483203 17.0642667,40.9337109 L17.0642667,58.2420703 L12.2742467,58.2420703 C12.0030193,58.2420703 11.7822833,58.0243359 11.7822833,57.7567969 L11.7822833,39.4466016 C11.7822833,35.4892969 15.1673384,33.9990234 15.3752438,33.9113672 L21.7708869,31.4656641 L24.5808165,37.0205859 C24.8496678,37.5517969 25.3955678,37.8725391 25.9774651,37.8725391 C26.5478385,37.8725391 26.8505487,37.6089844 27.2531722,37.3269141 L27.9708614,38.3926172 L25.3071783,53.9162109 C25.3056339,53.925 25.304327,53.9337891 25.3030202,53.9426953 C25.238629,54.4025391 25.382737,54.8751563 25.6884173,55.2070313 L28.4853974,58.2421875 L24.9219,58.2421875 L24.9219,60 L48.7258721,60 C49.9798383,60 51,58.9935938 51,57.7567969 L51,45.3916406 L49.2177167,45.3915234 Z M37.5537526,30.8283984 L34.9342642,36.0069141 C34.8691602,35.9613281 33.4809466,34.9884375 31.7839639,33.7998047 C32.5203052,32.9032031 31.6588643,33.9520313 35.0195648,29.8603125 L37.5537526,30.8283984 Z M32.286976,36.3085547 L31.6076602,37.3171875 L29.3856868,37.3171875 L28.706371,36.3085547 L30.4967329,35.0542969 L32.286976,36.3085547 Z M27.1428042,28.4907422 L27.1428042,26.8458984 C28.2253375,27.2763281 29.3822416,27.4758984 30.5120585,27.4758984 C31.6802488,27.4758984 32.8258666,27.2302734 33.8447215,26.7908203 L33.8447215,28.4978906 L30.4967329,32.5742578 L27.1428042,28.4907422 Z M40.583943,16.5866016 C40.5838242,17.1623438 40.3310114,17.7071484 39.8902521,18.0810938 C39.5988282,18.3283594 39.2468148,18.4864453 38.8612989,18.5483203 L38.8612989,14.6252344 C39.8853811,14.7892969 40.583943,15.6271875 40.583943,16.5866016 Z M21.9468342,18.5483203 C20.9111092,18.3825 20.22419,17.5378125 20.22419,16.5864844 C20.22419,15.646875 21.0138739,14.8821094 21.9468342,14.6694141 L21.9468342,18.5483203 Z M21.9947118,12.8784375 C21.7108913,12.9105469 21.3856086,12.9863672 21.1431316,13.0676953 L21.1431316,10.8929297 C21.1431316,5.85585938 25.2974365,1.75792969 30.4039477,1.75792969 C35.510459,1.75792969 39.6647639,5.85585938 39.6647639,10.8929297 L39.6647639,13.0073438 C39.4057732,12.9296484 39.1371596,12.8783203 38.8614177,12.8541797 C38.8614177,12.0060938 38.8689023,12.1696875 36.0562402,9.18691406 C35.5389717,8.63871094 34.6833522,8.52386719 34.0321927,8.94351563 C30.9278692,10.9437891 27.1410221,11.9486719 23.6470246,11.7011719 C22.8806261,11.6445703 22.1825394,12.1425 21.9947118,12.8784375 Z M23.7289987,19.2403125 L23.7289987,13.756875 L23.7289987,13.4680078 C27.5752472,13.6901953 31.607779,12.5630859 34.8654773,10.5051563 C36.1554407,11.8713281 36.8540026,12.5879297 37.0792532,12.8605078 C37.0792532,13.5500391 37.0792532,18.4509375 37.0792532,19.2401953 C37.0792532,22.8082031 34.1298488,25.7178516 30.5121773,25.7178516 C26.449826,25.7179688 23.7289987,22.6094531 23.7289987,19.2403125 Z M26.0593204,36.0069141 L23.4398321,30.8283984 L25.9695053,29.8619531 L29.205819,33.8023828 C27.5600405,34.9551563 26.2086558,35.9022656 26.0593204,36.0069141 Z M27.0816206,54.1057031 L29.6607159,39.0748828 L31.3323935,39.0748828 L33.9114888,54.1057031 L30.4966141,57.8115234 L27.0816206,54.1057031 Z" id="Shape" fill="#FFFFFF" fill-rule="nonzero"></path>
    </g>
</svg>