<?xml version="1.0" encoding="UTF-8"?>
<svg width="51px" height="51px" viewBox="0 0 51 51" version="1.1" xmlns="http://www.w3.org/2000/svg" xmlns:xlink="http://www.w3.org/1999/xlink">
    <!-- Generator: Sketch 52.5 (67469) - http://www.bohemiancoding.com/sketch -->
    <title>support</title>
    <desc>Created with Sketch.</desc>
    <g id="support" stroke="none" stroke-width="1" fill="none" fill-rule="evenodd">
        <g id="question-2" fill="#FFFFFF">
            <path d="M32.3128828,34.0016602 C33.7195664,34.0032539 34.8599941,35.1423867 34.8629824,36.5491699 C34.8633809,37.0186289 34.4832715,37.3995352 34.0138125,37.4000332 L34.012916,37.4000332 C33.5438555,37.3999336 33.1634473,37.0199238 33.1629492,36.5508633 C33.1619531,36.0819023 32.7818438,35.7021914 32.3129824,35.7016934 L32.3112891,35.7016934 C31.8418301,35.7018926 31.4610234,35.321584 31.4608242,34.852125 C31.460625,34.382666 31.8409336,34.0018594 32.3103926,34.0016602 L32.3128828,34.0016602 Z M22.1008301,37.4017266 L22.0999336,37.4017266 C21.6304746,37.4019258 21.249668,37.0216172 21.2494687,36.5521582 C21.2492695,36.0826992 21.6295781,35.7018926 22.0990371,35.7016934 L23.7990703,35.7 L23.7999668,35.7 C24.2694258,35.6998008 24.6502324,36.0801094 24.6504316,36.5495684 C24.6506309,37.0190273 24.2703223,37.399834 23.8008633,37.4000332 L22.1008301,37.4017266 Z M22.4349199,33.8704746 C21.9952441,33.709207 21.768832,33.2226152 21.9287051,32.7824414 C22.0885781,32.342168 22.574373,32.1142617 23.0151445,32.2726406 L24.6130781,32.8524668 C24.8996543,32.9552637 25.109332,33.2034902 25.1628223,33.5032148 C25.2163125,33.8028398 25.1054473,34.1083418 24.8720625,34.303875 C24.6386777,34.4994082 24.3186328,34.5552891 24.0328535,34.4503008 L22.4349199,33.8704746 Z M24.8738555,38.8140879 C25.1066426,39.009123 25.217707,39.3135293 25.1652129,39.6126562 C25.1127188,39.9116836 24.9046348,40.1601094 24.6193535,40.2642012 L23.0223164,40.846916 C22.7370352,40.9510078 22.4178867,40.8950273 22.1850996,40.6999922 C21.9523125,40.504957 21.841248,40.2005508 21.8937422,39.9014238 C21.9462363,39.6023965 22.1543203,39.3539707 22.4396016,39.2498789 L24.0366387,38.6671641 C24.3219199,38.5630723 24.6410684,38.6190527 24.8738555,38.8140879 Z M42.5000332,35.6983066 C42.9694922,35.6981074 43.3500996,36.0783164 43.3502988,36.5477754 C43.350498,37.0172344 42.9701895,37.398041 42.5007305,37.3982402 L40.8006973,37.3999336 L40.7999004,37.3999336 C40.332832,37.3968457 39.9557109,37.0174336 39.9555117,36.5503652 C39.9553125,36.0832969 40.3320352,35.7034863 40.7991035,35.7 L42.4991367,35.6983066 L42.5000332,35.6983066 Z M40.2977695,34.4876543 C39.8853867,34.4875547 39.5324707,34.191416 39.460752,33.7853086 C39.3890332,33.3792012 39.6190312,32.980166 40.0064121,32.8387207 L41.6030508,32.2560059 C41.888332,32.1519141 42.2074805,32.2078945 42.4402676,32.4029297 C42.6730547,32.5979648 42.7841191,32.9024707 42.731625,33.201498 C42.6791309,33.5005254 42.4710469,33.7489512 42.1857656,33.853043 L40.589127,34.4357578 C40.495793,34.4698242 40.3971797,34.4874551 40.2977695,34.4876543 Z M42.1908457,39.2328457 C42.6299238,39.3945117 42.8557383,39.8807051 42.6960645,40.3206797 C42.5363906,40.7604551 42.0511934,40.9884609 41.6106211,40.8307793 L40.0126875,40.2505547 C39.5730117,40.0891875 39.3465996,39.6026953 39.5064727,39.1624219 C39.6663457,38.7221484 40.1521406,38.4942422 40.5929121,38.6526211 L42.1908457,39.2328457 Z M17.5662129,3.40624219 C20.7384727,3.25453711 23.4707578,5.62085742 23.7736699,8.78206055 C24.0766816,11.9434629 21.8435391,14.7856172 18.7002656,15.2392383 L18.6998672,16.1498672 C18.6998672,16.6193262 18.3193594,16.999834 17.8499004,16.999834 C17.3804414,16.999834 16.9999336,16.6193262 16.9999336,16.1498672 L16.9999336,15.2334609 C17.0049141,14.3905664 17.6253809,13.6778613 18.4596094,13.5567363 C19.6299199,13.3861055 20.6766152,12.7363535 21.3487793,11.7631699 C22.0209434,10.7899863 22.2580137,9.58102734 22.0032129,8.42605664 C21.6523887,6.80979492 20.3900391,5.5473457 18.7737773,5.19662109 C17.5054512,4.92249609 16.1812441,5.23626562 15.1708066,6.05037305 C14.1754102,6.8563125 13.597875,8.06915625 13.5998672,9.34993359 C13.5998672,9.81929297 13.2193594,10.1999004 12.7499004,10.1999004 C12.2804414,10.1999004 11.8999336,9.81939258 11.8999336,9.34993359 C11.8999336,6.17408789 14.3939531,3.55794727 17.5662129,3.40624219 Z M18.4535332,18.9465 C18.5283398,19.0291758 18.5887031,19.1239043 18.6321328,19.2267012 C18.6757617,19.329 18.6988711,19.4388691 18.700166,19.5500332 C18.6985723,19.6069102 18.6928945,19.6636875 18.6831328,19.7197676 C18.6736699,19.772959 18.6564375,19.8245566 18.6320332,19.8728672 C18.6133066,19.9271543 18.5875078,19.9786523 18.5552344,20.0260664 C18.5215664,20.0684004 18.4875,20.1107344 18.4535332,20.1534668 C18.3707578,20.228373 18.2758301,20.2887363 18.1729336,20.3319668 C18.0720293,20.3795801 17.9614629,20.4028887 17.85,20.4 C17.625082,20.3966133 17.4095273,20.3086582 17.2465664,20.1534668 C17.2125,20.1107344 17.1784336,20.0684004 17.1444668,20.0260664 C17.1121934,19.9786523 17.0862949,19.9270547 17.067668,19.8728672 C17.0432637,19.8246563 17.0261309,19.7730586 17.0170664,19.7197676 C17.0071055,19.6636875 17.0013281,19.6070098 17.0000332,19.5500332 C17.0012285,19.4388691 17.0241387,19.329 17.067668,19.2267012 C17.1108984,19.1238047 17.1714609,19.0289766 17.2465664,18.9465 C17.3276484,18.869502 17.4227754,18.8087402 17.5267676,18.7676016 C17.7338555,18.6829336 17.9658457,18.6829336 18.1729336,18.7676016 C18.2760293,18.810832 18.3708574,18.8713945 18.4535332,18.9465 Z M37.4000332,20.4 C37.3978418,22.2768398 35.8769062,23.797875 33.9998672,23.7999668 L12.3028535,23.7999668 L7.20912891,30.036709 C7.19139844,30.0591211 7.17227344,30.0802383 7.15185352,30.1002598 C6.66595898,30.5871504 5.93442773,30.7330781 5.29891992,30.4698105 C4.66341211,30.206543 4.24933594,29.5861758 4.24993359,28.8982734 L4.24993359,23.7999668 L3.3999668,23.7999668 C1.52312695,23.797875 0.00219140625,22.2768398 -1.88293825e-13,20.4 L-1.88293825e-13,3.3999668 C0.00219140625,1.52312695 1.52312695,0.00219140625 3.3999668,4.47641924e-13 L33.9999668,4.47641924e-13 C35.8769062,0.00219140625 37.3978418,1.52312695 37.4000332,3.3999668 L37.4000332,20.4 Z M11.9000332,22.1000332 L33.9999668,22.1000332 C34.9384863,22.0990371 35.6991035,21.3385195 35.7,20.4 L35.7,3.3999668 C35.6990039,2.46144727 34.9384863,1.70083008 33.9999668,1.69993359 L3.3999668,1.69993359 C2.46144727,1.70092969 1.70083008,2.46144727 1.69993359,3.3999668 L1.69993359,20.4 C1.70092969,21.3385195 2.46144727,22.0991367 3.3999668,22.1000332 L5.10009961,22.1000332 C5.56955859,22.1000332 5.95006641,22.480541 5.95006641,22.95 L5.95006641,28.8913008 L11.2418145,22.4125078 C11.2510781,22.401252 11.2644258,22.3967695 11.2739883,22.3861113 C11.316123,22.3431797 11.3628398,22.3049297 11.4132422,22.271959 C11.4523887,22.240084 11.4943242,22.2117949 11.5385508,22.1874902 C11.6428418,22.1511328 11.7504199,22.1246367 11.8596914,22.1082012 C11.8738359,22.1075039 11.8856895,22.1000332 11.9000332,22.1000332 Z M47.6000332,27.2000332 C49.476873,27.202125 50.9978086,28.7231602 51,30.6 L51,47.6000332 C50.9979082,49.476873 49.476873,50.9978086 47.6000332,51 L17.0000332,51 C15.1231934,50.9979082 13.6022578,49.476873 13.6000664,47.6000332 L13.6000664,30.6 C13.6021582,28.7231602 15.1231934,27.2022246 17.0000332,27.2000332 L38.6970469,27.2000332 L43.7907715,20.963291 C43.808502,20.9408789 43.827627,20.9197617 43.8480469,20.8997402 C44.3342402,20.4136465 45.065373,20.2682168 45.700582,20.5312852 C46.335791,20.7943535 46.7499668,21.4142227 46.7500664,22.1017266 L46.7500664,27.2000332 L47.6000332,27.2000332 Z M49.2999668,47.6000332 L49.2999668,30.6 C49.2989707,29.6614805 48.5384531,28.9008633 47.5999336,28.8999668 L45.8999004,28.8999668 C45.430541,28.8999668 45.0499336,28.519459 45.0499336,28.05 L45.0499336,22.1085996 L39.7581855,28.5873926 C39.7497188,28.597752 39.7367695,28.6010391 39.7279043,28.6109004 C39.667043,28.6762441 39.5960215,28.7314277 39.5177285,28.774459 C39.4942207,28.7921895 39.4697168,28.808625 39.4445156,28.8238652 C39.3363398,28.8733711 39.2189004,28.8992695 39.0999668,28.8999668 L16.9999336,28.8999668 C16.0614141,28.9009629 15.3007969,29.6614805 15.2999004,30.6 L15.2999004,47.6000332 C15.3008965,48.5385527 16.0614141,49.2991699 16.9999336,49.3000664 L47.5999336,49.3000664 C48.5384531,49.2990703 49.2990703,48.5385527 49.2999668,47.6000332 Z M33.0155273,30.642334 C35.6370469,30.9795117 37.7309355,32.9894297 38.1747949,35.5950117 C38.5239258,37.7033437 37.7079258,39.8359805 36.0406641,41.1727383 C35.8305879,41.3344043 35.7052793,41.5826309 35.6999004,41.8475918 L35.6999004,42.5000332 C35.6980078,43.1044629 35.3742773,43.6620762 34.850332,43.9633945 L34.8511289,44.962875 C34.8787207,46.0791973 34.1866348,47.0870449 33.134959,47.4622734 C32.8651172,47.5523203 32.582625,47.5983398 32.2982402,47.5988379 C31.7640352,47.5992363 31.2434766,47.4303984 30.8111719,47.1165293 C30.1472754,46.6375078 29.7528223,45.8696191 29.7499336,45.0509297 L29.7489375,43.9630957 C29.225291,43.6615781 28.9018594,43.1041641 28.8999668,42.5000332 L28.8999668,41.8451016 C28.8992695,41.5895039 28.7816309,41.34825 28.5808184,41.1901699 C26.505457,39.5288848 25.7844844,36.6921094 26.8148437,34.2415195 C27.8452031,31.7909297 30.3765762,30.3215918 33.0155273,30.642334 Z M32.6008535,45.848502 C32.9498848,45.6963984 33.1687266,45.3447773 33.1511953,44.9644687 L33.1507969,44.1999668 L31.4490703,44.1999668 L31.4499668,45.0491367 C31.4514609,45.3226641 31.584041,45.5788594 31.8064687,45.7381348 C32.0370645,45.9031875 32.334,45.9444258 32.6008535,45.848502 Z M34.9728516,39.8500254 C36.1642793,38.8924805 36.7463965,37.3666641 36.4955801,35.8589766 C36.1783242,34.0021582 34.6855781,32.5702734 32.8171055,32.3307129 C32.6436855,32.3101934 32.4691699,32.3000332 32.2945547,32.3000332 C30.4928203,32.3033203 28.8890098,33.4426523 28.292748,35.1428848 C27.6964863,36.8431172 28.2373652,38.7345996 29.6424551,39.8624766 C30.2476816,40.3423945 30.6003984,41.0726309 30.5999004,41.8451016 L30.5999004,42.5000332 L33.9990703,42.4971445 L33.9999668,42.4971445 L33.9999668,41.8475918 C34.0041504,41.0685469 34.3620469,40.3336289 34.9728516,39.8500254 Z" id="Combined-Shape"></path>
        </g>
    </g>
</svg>