<?xml version="1.0" encoding="UTF-8"?>
<svg width="18px" height="18px" viewBox="0 0 18 18" version="1.1" xmlns="http://www.w3.org/2000/svg" xmlns:xlink="http://www.w3.org/1999/xlink">
    <title></title>
    <desc></desc>
    <g id="Platform" stroke="none" stroke-width="1" fill="none" fill-rule="evenodd">
        <g id="Company-details-v2-Copy" transform="translate(-1296.000000, -403.000000)" fill="#7D3DAF" fill-rule="nonzero">
            <g id="Group" transform="translate(0.000000, 125.000000)">
                <g id="block-1" transform="translate(855.000000, 100.000000)">
                    <path d="M458.597362,182.327444 C459.134213,184.699358 459.134213,187.104744 458.597362,189.476716 L458.591994,189.497492 C458.157741,191.195921 456.200027,193.018428 454.402174,193.397588 L454.381893,193.401628 C452.928221,193.669983 451.463812,193.803872 450,193.803872 C449.569148,193.803872 449.138295,193.790887 448.707682,193.767572 L446.72223,195.764308 C446.230713,196.259467 445.366384,195.922435 445.366384,195.236254 L445.366384,193.340339 C443.635638,192.862147 441.823708,191.123378 441.40741,189.497434 L441.402638,189.476658 C440.865787,187.104744 440.865787,184.699358 441.402638,182.327444 L441.40741,182.306669 C441.842259,180.60824 443.799973,178.785733 445.59723,178.406573 L445.618107,178.402533 C448.525451,177.865822 451.473953,177.865822 454.381893,178.402533 L454.402174,178.406573 C456.200027,178.785733 458.157741,180.60824 458.591994,182.306669 L458.597362,182.327444 Z M457.02618,189.132702 C457.509882,186.988746 457.509882,184.815357 457.02618,182.671343 C456.73628,181.563296 455.250398,180.185739 454.06873,179.931234 C451.368969,179.434344 448.631031,179.434344 445.930673,179.931234 C444.749602,180.185739 443.26372,181.563296 442.973224,182.671343 C442.490058,184.815299 442.490058,186.988688 442.973224,189.132644 C443.26372,190.240692 444.749602,191.618249 445.930673,191.872753 C445.930972,191.872811 445.93127,191.872869 445.931568,191.872926 C445.984239,191.88291 446.022534,191.927001 446.022534,191.978883 L446.022534,195.119621 C446.022534,195.276594 446.220573,195.353926 446.333311,195.240236 L447.875265,193.709169 C447.875265,193.709169 449.103997,192.488816 449.32494,192.269399 C449.346534,192.247931 449.376299,192.236331 449.407257,192.237139 C450.964124,192.278864 452.522541,192.157267 454.06873,191.872811 C455.249801,191.618306 456.73628,190.240749 457.02618,189.132702 Z M452.569187,190.582455 C452.387613,190.52913 452.214568,190.493292 452.053871,190.428771 C450.38868,189.760365 448.856151,188.89805 447.642212,187.576184 C446.951882,186.824501 446.411572,185.975864 445.954832,185.077768 C445.738242,184.651862 445.555713,184.209278 445.369665,183.76958 C445.20002,183.368605 445.449894,182.954357 445.71301,182.652241 C445.959902,182.368708 446.277598,182.151715 446.62166,181.991798 C446.890204,181.86697 447.15511,181.938935 447.351239,182.15916 C447.775232,182.635274 448.164687,183.135742 448.480057,183.68763 C448.673979,184.027085 448.620771,184.442026 448.269313,184.673042 C448.183894,184.729195 448.106051,184.795101 448.026478,184.858525 C447.956687,184.9141 447.891013,184.970253 447.843173,185.045508 C447.755726,185.183206 447.751551,185.345604 447.807861,185.495306 C448.241278,186.647675 448.971812,187.543751 450.170659,188.026386 C450.362493,188.103603 450.555163,188.193516 450.776166,188.168585 C451.146295,188.126745 451.266132,187.733965 451.52549,187.528746 C451.779003,187.328201 452.102963,187.325546 452.376041,187.492734 C452.649178,187.65998 452.913965,187.839518 453.177141,188.020961 C453.435485,188.199057 453.692696,188.373286 453.930998,188.576312 C454.160114,188.771548 454.239031,189.027668 454.110008,189.292619 C453.873794,189.777851 453.53009,190.181538 453.034279,190.439217 C452.89428,190.511875 452.727081,190.535421 452.569187,190.582455 C452.387613,190.529073 452.727081,190.535421 452.569187,190.582455 Z M450.004533,181.436967 C452.182655,181.496005 453.97162,182.894511 454.354991,184.977871 C454.420308,185.33285 454.443571,185.695793 454.472621,186.056082 C454.484849,186.20763 454.396149,186.351619 454.227101,186.353581 C454.052505,186.355601 453.973946,186.214267 453.962613,186.062776 C453.940184,185.762911 453.924616,185.461718 453.881906,185.164334 C453.656429,183.594543 452.362619,182.295819 450.747594,182.017133 C450.50458,181.975178 450.255839,181.964155 450.009663,181.939166 C449.854036,181.923353 449.650212,181.914235 449.615734,181.727079 C449.586804,181.570163 449.723701,181.445219 449.878135,181.437198 C449.920129,181.434947 449.962361,181.436794 450.004533,181.436967 C452.182655,181.496005 449.962361,181.436794 450.004533,181.436967 Z M453.314634,185.588451 C453.311055,185.614767 453.309146,185.676633 453.29322,185.734921 C453.235419,185.946489 452.903884,185.972978 452.827532,185.759448 C452.804924,185.696082 452.801524,185.624001 452.801405,185.555787 C452.80063,185.109451 452.700358,184.663578 452.467723,184.275242 C452.228586,183.876114 451.863229,183.540583 451.434703,183.337557 C451.175583,183.214806 450.895347,183.138512 450.611353,183.093036 C450.487222,183.073183 450.361778,183.061122 450.237049,183.044328 C450.085896,183.024014 450.00519,182.930811 450.012348,182.786707 C450.019028,182.651664 450.12103,182.554536 450.273138,182.562847 C450.773005,182.590317 451.255813,182.694831 451.700205,182.9225 C452.603904,183.385514 453.120115,184.116364 453.270791,185.092253 C453.277591,185.13646 453.288567,185.180262 453.292027,185.224642 C453.300557,185.334235 453.305925,185.443943 453.314634,185.588451 C453.311055,185.614767 453.305925,185.443943 453.314634,185.588451 Z M451.959862,185.537435 C451.777631,185.540609 451.680103,185.44302 451.661314,185.281372 C451.64825,185.168663 451.637931,185.054453 451.610134,184.944802 C451.555375,184.728849 451.436731,184.528707 451.248953,184.396377 C451.160313,184.333876 451.059862,184.288342 450.954639,184.258967 C450.820964,184.221628 450.682158,184.231901 450.54878,184.200275 C450.40395,184.165937 450.32384,184.052478 450.346626,183.921013 C450.367325,183.801378 450.487639,183.708002 450.622747,183.717467 C451.467212,183.776447 452.070752,184.198833 452.156886,185.160641 C452.162971,185.228509 452.170129,185.300243 452.15456,185.365168 C452.127896,185.476319 452.042835,185.53201 451.959862,185.537435 C451.777631,185.540609 452.042835,185.53201 451.959862,185.537435 Z" id="viber"></path>
                </g>
            </g>
        </g>
    </g>
</svg>