<?xml version="1.0" encoding="UTF-8"?>
<svg width="18px" height="18px" viewBox="0 0 18 18" version="1.1" xmlns="http://www.w3.org/2000/svg" xmlns:xlink="http://www.w3.org/1999/xlink">
    <title></title>
    <desc></desc>
    <g id="Platform" stroke="none" stroke-width="1" fill="none" fill-rule="evenodd">
        <g id="Company-details-v2-Copy" transform="translate(-1268.000000, -403.000000)" fill="#7AD06D">
            <g id="Group" transform="translate(0.000000, 125.000000)">
                <g id="block-1" transform="translate(855.000000, 100.000000)">
                    <g id="whatsapp" transform="translate(413.000000, 178.000000)">
                        <path d="M8.56423558,0.0103961814 C3.78605769,0.23627685 0.0154038462,4.18708353 0.0298990385,8.93642005 C0.0343125,10.3829499 0.386048077,11.7482864 1.00652885,12.954673 L0.0538701923,17.5458759 C0.00233653846,17.7942243 0.227942308,18.011685 0.4764375,17.9532601 L5.00772115,16.8873938 C6.17187981,17.463136 7.47947596,17.795685 8.86335577,17.8166492 C13.7471106,17.8907112 17.8193077,14.0406444 17.9715288,9.1936611 C18.1346971,3.99801909 13.815649,-0.237909308 8.56423558,0.0103961814 Z M13.9710288,13.8413986 C12.6440048,15.1589212 10.8796154,15.884506 9.00294231,15.884506 C7.90407692,15.884506 6.85202885,15.6397232 5.87591827,15.1569881 L5.24487981,14.8448878 L2.46673558,15.4983866 L3.05151923,12.6799475 L2.74062981,12.0755084 C2.23390385,11.0902339 1.97697115,10.0247971 1.97697115,8.9088401 C1.97697115,7.04556086 2.70778846,5.29384726 4.0348125,3.97628162 C5.34998077,2.67052983 7.14314423,1.93313126 9.00307212,1.93313126 C10.8797452,1.93317422 12.6440481,2.65875895 13.9710721,3.97623866 C15.2980962,5.29376134 16.0289135,7.04547494 16.0289567,8.90871122 C16.0289135,10.7553652 15.2861971,12.5356897 13.9710288,13.8413986 Z" id="Shape" fill-rule="nonzero"></path>
                        <path d="M13.3577308,10.8408544 L11.619649,10.3453604 C11.3911442,10.2802339 11.1450721,10.3445871 10.9785721,10.513031 L10.5535385,10.942969 C10.3743173,11.1242578 10.1023702,11.1825107 9.86516827,11.0872267 C9.04296635,10.7568687 7.31340865,9.23009069 6.87171635,8.46640095 C6.74428846,8.24610501 6.76536058,7.97069212 6.92182212,7.76968496 L7.29289904,7.29305012 C7.43828365,7.10630549 7.46896154,6.85550835 7.37281731,6.63963723 L6.64156731,4.99759905 C6.46641346,4.60430549 5.96020673,4.48981862 5.6295,4.76750835 C5.14440865,5.17484964 4.56884135,5.79385203 4.498875,6.47961337 C4.37551442,7.68866348 4.89777404,9.21277804 6.87271154,11.0428496 C9.15429808,13.1570979 10.9813846,13.43642 12.1709856,13.1503103 C12.845726,12.9880525 13.3849471,12.3375609 13.7252596,11.8049499 C13.9572692,11.4418138 13.7740673,10.9595513 13.3577308,10.8408544 Z" id="Path"></path>
                    </g>
                </g>
            </g>
        </g>
    </g>
</svg>