<svg xmlns="http://www.w3.org/2000/svg" xmlns:xlink="http://www.w3.org/1999/xlink" width="18.901" height="18.901" viewBox="0 0 18.901 18.901"><defs><clipPath id="a"><rect width="18.901" height="18.467" fill="none"/></clipPath></defs><g transform="translate(376.298 -35.323)"><g transform="translate(-376.298 35.323)"><path d="M-357.4,54.224h-18.9v-18.9h18.9Zm-18.449-.452h18v-18h-18Z" transform="translate(376.298 -35.323)" fill="#fff"/></g><g transform="translate(-376.298 35.323)"><g transform="translate(0 0)" clip-path="url(#a)"><g transform="translate(-0.338 -5.919)"><path d="M-358.542,27.234c-.007-.018-.015-.037-.022-.055l-.008-.019V4.593a.711.711,0,0,0-.71-.71h-18.031a.711.711,0,0,0-.71.71v18.76l-.035.039.035.029v2.209l-.069.015.016.073a.938.938,0,0,0,.036.118c.006.016.011.031.017.048v8.029a.711.711,0,0,0,.71.71h4.182l.028.038.047-.038h13.775a.711.711,0,0,0,.71-.71V27.326l.056-.021Zm-.74-22.832a.191.191,0,0,1,.191.191V6.219l-.157-.188A7.553,7.553,0,0,1-360.384,4.4Zm-1.664,0a7.23,7.23,0,0,0,1.3,1.962c.193.232.381.459.555.689V9.138a19.532,19.532,0,0,0-1.319-3.193c-.271-.559-.514-1.064-.712-1.543Zm-2.11,0a11.189,11.189,0,0,0,.522,1.265,10.093,10.093,0,0,1,.552,1.364c.075.289.171.58.273.888l.008.023a7.387,7.387,0,0,1,.456,1.937c.006.119.007.2.006.261-.059-.03-.13-.068-.2-.107a4.292,4.292,0,0,1-1.66-1.963c-.057-.124-.122-.261-.191-.405A8.494,8.494,0,0,1-364.349,4.4Zm-8.318,0c.039.058.08.12.127.19.286.42.818,1.2.671,1.545-.057.134-.254.193-.409.219a.685.685,0,0,1-.115.009c-.759,0-1.908-1.148-2.334-1.963ZM-377.5,20.7l.108.124c.085.1.171.194.267.309a10.064,10.064,0,0,0,4.115,3.01l.14.04a4.225,4.225,0,0,0,1.122.22,1.03,1.03,0,0,0,1.033-.676,3.3,3.3,0,0,0,.018-1.8l0-.028c-.016-.1-.031-.2-.042-.284a10.557,10.557,0,0,0-2.165-5.054c-.363-.483-.788-1.005-1.237-1.559l-.04-.049a21.151,21.151,0,0,1-3.317-4.894v-2.5a18.86,18.86,0,0,0,1.763,2.613A17.048,17.048,0,0,1-374.35,12.2c.31.619.637,1.241.953,1.843l.017.032c.639,1.213,1.3,2.468,1.846,3.755.218.514,2.1,5.081.954,7.019a1.624,1.624,0,0,1-1.33.794,4.465,4.465,0,0,1-.472.025c-2.149,0-4.121-1.537-5.12-2.47Zm2.765-.534a3.2,3.2,0,0,0,1.468.635.6.6,0,0,0,.385-.121c.4-.318.1-1.013.005-1.243a10.806,10.806,0,0,0-2.527-3.184,12.693,12.693,0,0,1-2.1-2.42V11.268a29.156,29.156,0,0,0,2.914,4.021c.461.566.9,1.1,1.266,1.593a10.052,10.052,0,0,1,2.065,4.813c.011.089.028.2.048.322a3.31,3.31,0,0,1,.03,1.484.563.563,0,0,1-.582.387,3.915,3.915,0,0,1-.965-.2l-.134-.038a9.609,9.609,0,0,1-3.878-2.859c-.09-.107-.179-.21-.268-.309l-.015-.018a6.953,6.953,0,0,1-.48-.591v-2A17.513,17.513,0,0,0-374.739,20.17ZM-377.5,17.1V14.755a17.327,17.327,0,0,0,1.733,1.873,10.425,10.425,0,0,1,2.413,3.02c.181.427.163.605.146.631a.108.108,0,0,1-.061.011,2.682,2.682,0,0,1-1.172-.547A15.756,15.756,0,0,1-377.5,17.1Zm0,12.591c.141.046.275.08.393.109.46.111.555.135.5.58a4.338,4.338,0,0,1-.7,1.379c-.068.1-.134.207-.2.309Zm1.888,4.413h-1.7a.191.191,0,0,1-.191-.191V33.4a3.044,3.044,0,0,1,.633-1.355,4.631,4.631,0,0,0,.776-1.587c.108-.917-.424-1.046-.893-1.16a3.608,3.608,0,0,1-.516-.157v-2.38a4.469,4.469,0,0,0,1.657.891c.859.314,1.671.61,1.951,1.5.195.618-.13,1.09-.506,1.638a4.564,4.564,0,0,0-.549.959,8.708,8.708,0,0,0-.284,1.067A6.743,6.743,0,0,1-375.616,34.1Zm2.377,0h-1.817a8.218,8.218,0,0,0,.328-1.176,8.225,8.225,0,0,1,.265-1,4.064,4.064,0,0,1,.491-.845,2.276,2.276,0,0,0,.572-2.087c-.356-1.135-1.328-1.49-2.268-1.833-.8-.293-1.559-.571-1.836-1.358V23.892a8.254,8.254,0,0,0,5.125,2.29,4.859,4.859,0,0,0,.522-.027,2.136,2.136,0,0,0,1.723-1.046c1.273-2.156-.695-6.946-.923-7.485-.556-1.311-1.221-2.573-1.864-3.794-.32-.608-.651-1.236-.968-1.872a17.437,17.437,0,0,0-1.441-2.1c-1-1.319-2.027-2.682-2.173-3.887V4.593a.191.191,0,0,1,.191-.191h1.169c1.849.94,2.52,3.717,2.963,5.556l.044.182c.111.479.206.947.3,1.4.406,2,.756,3.734,2.227,5.351,1.269,1.486,1.348,3.481,1.424,5.412a16.161,16.161,0,0,0,.344,3.242c.5,2.069-.345,3.358-1.6,4.953-.292.37-.6.82-.9,1.255A11.588,11.588,0,0,1-373.239,34.1Zm4.519-.4c-.095.17-.161.294-.208.4h-3.546a16.487,16.487,0,0,0,1.565-2.056c.293-.429.6-.872.875-1.227,1.3-1.656,2.252-3.106,1.694-5.4a15.794,15.794,0,0,1-.33-3.137c-.079-2.018-.162-4.1-1.553-5.735-1.38-1.517-1.717-3.184-2.109-5.122-.092-.455-.187-.925-.3-1.409l-.045-.183c-.4-1.663-1-4.147-2.542-5.434h1.21c.362.9,1.762,2.481,2.915,2.481a1.209,1.209,0,0,0,.192-.015.963.963,0,0,0,.8-.527c.245-.572-.246-1.344-.649-1.938h1.814l.051.02c.053.021.079.052.145.142a1.614,1.614,0,0,0,.16.193,5.056,5.056,0,0,1,.817,1.115c.553,1.026,1.191,2.023,1.817,3,1.2,1.783,2.247,3.724,1.765,5.834a7.547,7.547,0,0,1-1.686,2.873c-.959,1.2-1.95,2.434-1.809,4.107a19.312,19.312,0,0,0,.515,2.736c.447,1.869.869,3.634-.056,5.509a14.913,14.913,0,0,0-.843,2.131l-.007.02c-.13.385-.264.782-.411,1.156C-368.54,33.383-368.631,33.547-368.72,33.705Zm5.286.4a3.139,3.139,0,0,1-.031-1.48,12.016,12.016,0,0,1,.54,1.285c.024.064.048.127.073.189l0,.006Zm1.14,0c-.048-.124-.1-.249-.145-.377a8.3,8.3,0,0,0-.88-1.863l-.25-.354-.195.388a3.534,3.534,0,0,0-.207,2.207h-.569a11.43,11.43,0,0,0-.171-1.376c-.2-1.225-.412-2.491.421-3.4a.287.287,0,0,1,.217-.109.363.363,0,0,1,.083.011c.933.226,2.558,3.435,3.106,4.873Zm1.963,0c-.33-.895-2.117-5.034-3.534-5.378a.869.869,0,0,0-.2-.025.811.811,0,0,0-.6.275c-1.007,1.1-.766,2.552-.553,3.838a11.224,11.224,0,0,1,.163,1.29h-3.289l.08-.146c.089-.16.191-.342.269-.518.162-.414.3-.837.433-1.22a14.434,14.434,0,0,1,.812-2.052c1.01-2.048.567-3.9.1-5.864a18.979,18.979,0,0,1-.5-2.661c-.123-1.464.761-2.568,1.7-3.737a7.937,7.937,0,0,0,1.786-3.081c.525-2.3-.574-4.359-1.843-6.242-.612-.956-1.245-1.945-1.793-2.963A5.632,5.632,0,0,0-368.2,4.4h2.113A6.841,6.841,0,0,0-364.93,7.44l.013.023c.131.233.245.434.327.6a17.107,17.107,0,0,1,.776,1.93c.181.507.367,1.031.588,1.54a4.3,4.3,0,0,1,.232,3.38,7.308,7.308,0,0,1-.87,1.559,8.424,8.424,0,0,0-.888,1.564,14.767,14.767,0,0,0-1.078,3.926c-.155,2.277,1.248,3.938,2.6,5.546l.012.015c.446.528.867,1.027,1.232,1.546a10.12,10.12,0,0,1,1.951,5.037Zm1.241-.191a.191.191,0,0,1-.191.191h-.231a10.641,10.641,0,0,0-2.046-5.337c-.38-.54-.831-1.074-1.271-1.595-1.29-1.529-2.624-3.109-2.485-5.169a14.207,14.207,0,0,1,1.041-3.77,8.035,8.035,0,0,1,.843-1.477,7.776,7.776,0,0,0,.924-1.667,4.765,4.765,0,0,0-.241-3.759c-.218-.5-.4-1.017-.578-1.514a17.776,17.776,0,0,0-.8-1.987c-.09-.181-.217-.406-.352-.643A6.533,6.533,0,0,1-365.57,4.4h.693a9.031,9.031,0,0,0,1.114,3.486c.068.144.132.278.192.408a4.768,4.768,0,0,0,1.866,2.186l.042.023a1.279,1.279,0,0,0,.541.209.358.358,0,0,0,.2-.058c.2-.123.219-.367.2-.8a7.757,7.757,0,0,0-.482-2.076c-.1-.29-.2-.591-.273-.887a10.536,10.536,0,0,0-.581-1.443c-.172-.371-.325-.709-.444-1.047h.825c.213.541.48,1.1.8,1.769.817,1.683,1.743,3.592,1.477,5.3a8.508,8.508,0,0,1-1.9,3.648l-.013.018c-.263.353-.535.718-.786,1.091-1.758,2.612-2.189,4.948-1.319,7.14A14.664,14.664,0,0,0-361.5,26.51c.41.557.833,1.132,1.188,1.714a10.5,10.5,0,0,1,1.218,5.16Zm-.111-15.975c-.739.587-1.751,1.392-1.751,2.383a6.474,6.474,0,0,0,1.378,3.144l.019.029c.155.234.3.455.421.655l.039.064,0,0v1.9c-.316-.542-.684-1.067-1.014-1.54-1.167-1.669-2.269-3.245-1.541-5.09a9.43,9.43,0,0,1,1.388-2.348l.184-.251c.148-.2.316-.389.478-.575s.336-.388.5-.612v2.155Zm.111.575v4.742l-.051-.077a6.157,6.157,0,0,1-1.292-2.858C-360.434,19.634-359.643,18.955-359.091,18.513Zm0-3.807a5.205,5.205,0,0,1-.9,1.261c-.17.194-.346.395-.5.606l-.185.253a9.821,9.821,0,0,0-1.454,2.469c-.829,2.1.406,3.866,1.6,5.574a13.138,13.138,0,0,1,1.438,2.395v2.474a8.356,8.356,0,0,0-.773-1.781c-.361-.591-.784-1.169-1.194-1.726l-.021-.028a14.27,14.27,0,0,1-1.863-3.027c-.8-2.021-.387-4.2,1.268-6.657.242-.36.508-.716.764-1.061l.021-.029a10.977,10.977,0,0,0,1.8-3.078Z" transform="translate(378.092 -3.883)" fill="#fff"/><path d="M-335.914,34.444a4.957,4.957,0,0,0-.1-3.917c-.358-1.107-1.2-3.7-3.064-3.747h-.088a1.69,1.69,0,0,0-1.758,1.064c-.492.984-.109,2.442.145,3.406l.036.138c.439,1.465,1.168,3.479,2.419,4.044a1.857,1.857,0,0,0,.744.162A1.9,1.9,0,0,0-335.914,34.444Zm-2.2.513c-1.176-.531-1.869-2.842-2.13-3.71l-.034-.13c-.234-.889-.587-2.232-.172-3.065a1.175,1.175,0,0,1,1.283-.754h.077c1.5.037,2.258,2.387,2.584,3.395a4.509,4.509,0,0,1,.13,3.521,1.4,1.4,0,0,1-1.223.853A1.291,1.291,0,0,1-338.118,34.956Z" transform="translate(348.118 -22.469)" fill="#fff"/><path d="M-331.165,41.4a.487.487,0,0,0-.473.4,4.742,4.742,0,0,0,.828,2.994,1.029,1.029,0,0,0,.782.539c.284,0,.517-.193.694-.573.262-.562-.168-1.582-.616-2.285C-330.206,42.077-330.7,41.4-331.165,41.4Zm1.36,3.14c-.094.2-.179.274-.223.274-.014,0-.138-.009-.358-.319a4.461,4.461,0,0,1-.757-2.538c0-.012.007-.022.01-.029a2.255,2.255,0,0,1,.745.826A2.645,2.645,0,0,1-329.8,44.544Z" transform="translate(340.423 -34.34)" fill="#fff"/><path d="M-347.518,131.26c.01-.114,0-.491-.587-.588-.028,0-.057,0-.085,0a1.385,1.385,0,0,0-1.145.825.658.658,0,0,0,.088.745.523.523,0,0,0,.365.132A1.625,1.625,0,0,0-347.518,131.26Zm-1.364.591h-.008a.294.294,0,0,1,.032-.152.886.886,0,0,1,.669-.512h.016c.083.014.123.032.134.032s0,0,0,0A1.223,1.223,0,0,1-348.882,131.851Z" transform="translate(354.809 -106.8)" fill="#fff"/></g></g></g></g></svg>